<svg width="90" height="90" viewBox="0 0 90 90" fill="none" xmlns="http://www.w3.org/2000/svg">
<rect width="90" height="90" fill="white"/>
<path d="M26.2006 57.8094C27.0348 57.8557 27.8809 57.8675 28.7595 57.7898C27.0784 60.509 25.3944 63.2352 23.7692 66.0218L23.769 66.0221C21.6927 69.5868 19.6746 73.2177 17.8385 76.9131C17.3455 77.8438 16.9147 78.7729 16.4902 79.6883L16.4901 79.6887C16.4041 79.8639 16.337 80.0869 16.3693 80.3307C16.4042 80.5944 16.5467 80.8163 16.762 80.9788L16.8149 81.0188L16.8765 81.0435C17.1227 81.1426 17.3864 81.1647 17.6425 81.0542C17.8721 80.9552 18.0282 80.7765 18.1352 80.6329L18.1621 80.5968L18.1821 80.5566C18.3058 80.3075 18.4098 80.1007 18.5623 79.8961L18.5906 79.8581L18.6113 79.8154C19.8258 77.3096 21.1626 74.8023 22.561 72.3547L22.5623 72.3524C25.3618 67.3911 28.4058 62.5507 31.4572 57.6984L31.4706 57.6772L31.4817 57.6547C31.5822 57.4524 31.7361 57.3507 31.9708 57.3114L31.9906 57.308L32.0101 57.3031C32.9897 57.0567 33.9077 56.8103 34.8215 56.565L34.824 56.5644L34.824 56.5645L34.836 56.561C39.4402 55.2017 43.9159 53.4118 48.2601 51.4413C53.0931 49.2864 57.8648 46.8852 62.4533 44.2992C66.5417 42.0269 70.5281 39.7437 74.3349 37.0248C77.2797 34.9255 80.0659 32.6235 82.3639 29.7489C83.5467 28.3075 84.5573 26.7233 85.1919 24.9351L85.1952 24.9257L85.1982 24.9162C85.5068 23.9223 85.774 22.8692 85.708 21.7324C85.578 19.1266 84.407 16.9787 82.487 15.304L82.4871 15.3039L82.4796 15.2977C80.5915 13.7142 78.4606 12.6452 76.2284 11.8339L76.2284 11.8339L76.2225 11.8318C71.7649 10.2741 67.1956 9.71769 62.595 9.53249L62.595 9.53237L62.5842 9.53217C59.2854 9.47069 56.0294 9.47017 52.7063 9.77983L52.7038 9.78008C50.2031 10.0256 47.7517 10.2722 45.2369 10.6426L45.2369 10.6426L45.2327 10.6432C40.8793 11.322 36.5253 12.3094 32.2928 13.6057C26.4722 15.3324 20.7592 17.5566 15.4685 20.6524L15.4679 20.6527C12.5161 22.3857 9.72656 24.3788 7.36356 26.944C6.10961 28.2696 5.10226 29.7261 4.34619 31.3748L4.34285 31.382L4.33974 31.3894C3.64204 33.0491 3.36078 34.6737 3.56513 36.2449C3.76956 37.8168 4.45549 39.3 5.63591 40.6825C6.71984 42.0282 8.04892 43.0426 9.4666 43.9732C12.7594 46.1614 16.3551 47.5318 20.1802 48.4017C21.423 48.714 22.6291 48.9079 23.9695 48.8451C24.3187 48.8435 24.7246 48.7747 25.0757 48.5255C25.159 48.4805 25.294 48.3959 25.3951 48.2602C25.4616 48.171 25.5256 48.0434 25.5336 47.8826C25.5405 47.745 25.5044 47.62 25.4464 47.5137C25.4119 47.4308 25.357 47.3376 25.2672 47.259C25.1431 47.1503 24.9968 47.1084 24.8646 47.1084C24.748 47.1084 24.6524 47.1406 24.5982 47.1617C24.577 47.1699 24.5563 47.1789 24.5373 47.1876C23.9057 47.2825 23.2613 47.2295 22.6439 47.1165L22.6439 47.1165L22.6381 47.1155C19.4575 46.5719 16.4542 45.5449 13.5665 44.0918L13.5666 44.0916L13.5551 44.0862C11.6406 43.1831 9.85548 42.0436 8.31338 40.6109L8.3135 40.6108L8.30351 40.602C7.36862 39.7787 6.62977 38.8563 6.17825 37.7786C5.44311 35.9552 5.55068 34.1953 6.35416 32.4037C7.4076 30.1077 9.11168 28.3229 11.0461 26.6191C13.4449 24.5676 16.1517 22.931 18.9401 21.4667C24.0873 18.8464 29.5425 16.8937 35.1264 15.4276L35.1298 15.4267C40.1085 14.0824 45.2052 13.1056 50.3595 12.6174L50.3595 12.6175L50.37 12.6163C53.5234 12.2501 56.6766 12.0671 59.8295 12.0671C61.7613 12.0671 63.6956 12.1884 65.6483 12.3113C68.3681 12.5549 71.0179 12.98 73.6017 13.7055C75.9036 14.3763 78.0323 15.1553 79.913 16.5157L79.9142 16.5166C80.7336 17.1056 81.4205 17.7418 81.99 18.5425C82.9924 20.0597 83.1664 21.6812 82.6559 23.4561C82.1895 24.9199 81.4294 26.2191 80.5373 27.4163L80.5371 27.4162L80.5293 27.4273C79.5231 28.8568 78.2731 30.1176 76.9402 31.3371L76.9351 31.3418C74.1629 33.9498 71.0218 36.1403 67.7965 38.2227C60.1305 43.0598 52.2235 47.2833 43.9534 50.8329L43.9515 50.8337C40.8514 52.1796 37.756 53.4011 34.6033 54.4386C34.1675 54.5735 33.7387 54.7061 33.3037 54.8279C36.7791 49.3953 40.3682 44.0742 44.0711 38.8095C46.061 35.9895 48.1022 33.2277 50.1472 30.4608C51.1717 29.0747 52.197 27.6874 53.2174 26.2908L53.2189 26.2887C54.2002 24.9309 55.1251 23.5662 55.99 22.0742C56.3595 21.4542 56.7578 20.7266 56.9594 19.9151C57.1209 19.2648 56.903 18.4989 56.2718 18.1813C56.0131 18.0511 55.7186 17.9824 55.3939 18.0676C55.0924 18.1468 54.8332 18.342 54.5943 18.5825C53.9746 19.2061 53.3383 19.9084 52.8239 20.685L52.8067 20.7109L52.7929 20.7387L52.7014 20.9229L52.6099 21.1071C52.6087 21.1094 52.6072 21.1125 52.6052 21.1162C52.5803 21.1646 52.4967 21.3267 52.4967 21.5137C52.4967 21.7884 52.654 21.9883 52.8401 22.1131L52.8661 22.1305L52.8767 22.1359C52.1486 23.2074 51.4113 24.237 50.6435 25.2673C46.9775 30.1867 43.4957 35.1664 40.076 40.2673C36.7171 45.1844 33.4814 50.2227 30.3091 55.2572C30.1194 55.5419 29.9264 55.6741 29.6816 55.7093L29.6782 55.7099C28.4703 55.8922 27.3494 56.0094 26.1785 55.9505L26.1659 55.9499H26.1533H26.1523H26.1512H26.1501H26.1491H26.148H26.1469H26.1458H26.1448H26.1437H26.1426H26.1415H26.1405H26.1394H26.1383H26.1373H26.1362H26.1351H26.134H26.133H26.1319H26.1308H26.1297H26.1287H26.1276H26.1265H26.1255H26.1244H26.1233H26.1222H26.1212H26.1201H26.119H26.118H26.1169H26.1158H26.1147H26.1137H26.1126H26.1115H26.1104H26.1094H26.1083H26.1072H26.1062H26.1051H26.104H26.1029H26.1019H26.1008H26.0997H26.0986H26.0976H26.0965H26.0954H26.0944H26.0933H26.0922H26.0911H26.0901H26.089H26.0879H26.0869H26.0858H26.0847H26.0836H26.0826H26.0815H26.0804H26.0793H26.0783H26.0772H26.0761H26.0751H26.074H26.0729H26.0718H26.0708H26.0697H26.0686H26.0675H26.0665H26.0654H26.0643H26.0633H26.0622H26.0611H26.06H26.059H26.0579H26.0568H26.0558H26.0547H26.0536H26.0525H26.0515H26.0504H26.0493H26.0482H26.0472H26.0461H26.045H26.044H26.0429H26.0418H26.0407H26.0397H26.0386H26.0375H26.0364H26.0354H26.0343H26.0332H26.0322H26.0311H26.03H26.0289H26.0279H26.0268H26.0257H26.0247H26.0236H26.0225H26.0214H26.0204H26.0193H26.0182H26.0171H26.0161H26.015H26.0139H26.0129H26.0118H26.0107H26.0096H26.0086H26.0075H26.0064H26.0054H26.0043H26.0032H26.0021H26.0011H26H25.9989H25.9978H25.9968H25.9957H25.9946H25.9936H25.9925H25.9914H25.9903H25.9893H25.9882H25.9871H25.986H25.985H25.9839H25.9828H25.9818H25.9807H25.9796H25.9785H25.9775H25.9764H25.9753H25.9743H25.9732H25.9721H25.971H25.97H25.9689H25.9678H25.9667H25.9657H25.9646H25.9635H25.9625H25.9614H25.9603H25.9592H25.9582H25.9571H25.956H25.9549H25.9539H25.9528H25.9517H25.9507H25.9496H25.9485H25.9474H25.9464H25.9453H25.9442H25.9432H25.9421H25.941H25.9399H25.9389H25.9378H25.9367H25.9356H25.9346H25.9335H25.9324H25.9314H25.9303H25.9292H25.9281H25.9271H25.926H25.9249H25.9238H25.9228H25.9217H25.9206H25.9196H25.9185H25.9174H25.9163H25.9153H25.9142H25.9131H25.9121H25.911H25.9099H25.9088H25.9078H25.9067H25.9056H25.9045H25.9035H25.9024H25.9013H25.9003H25.8992H25.8981H25.897H25.896H25.8949H25.8938H25.8927H25.8917H25.8906H25.8895H25.8885H25.8874H25.8863H25.8852H25.8842H25.8831H25.882H25.881H25.8799H25.8788H25.8777H25.8767H25.8756H25.8745H25.8734H25.8724H25.8713H25.8702H25.8692H25.8681H25.867H25.8659H25.8649H25.8638H25.8627H25.8616H25.8606H25.8595H25.8584H25.8574H25.8563H25.8552H25.8541H25.8531H25.852H25.8509H25.8499H25.8488H25.8477H25.8466H25.8456H25.8445H25.8434H25.8423H25.8413H25.8402H25.8391H25.8381H25.837H25.8359H25.8348H25.8338H25.8327H25.8316H25.8305H25.8295H25.8284H25.8273H25.8263H25.8252H25.8241H25.823H25.822H25.8209H25.8198H25.8188H25.8177H25.8166H25.8155H25.8145H25.8134H25.8123H25.8112H25.8102H25.8091H25.808H25.807H25.8059H25.8048H25.8037H25.8027H25.8016H25.8005H25.7994H25.7984H25.7973H25.7962H25.7952H25.7941H25.793H25.7919H25.7909H25.7898H25.7887H25.7877H25.7866H25.7855H25.7844H25.7834H25.7823H25.7812H25.7801H25.7791H25.778H25.7769H25.7759H25.7748H25.7737H25.7726H25.7716H25.7705H25.7694H25.7683H25.7673H25.7662H25.7651H25.7641H25.763H25.7619H25.7608H25.7598H25.7587H25.7576H25.7566H25.7555H25.7544H25.7533H25.7523H25.7512H25.7501H25.749H25.748H25.7469H25.7458H25.7448H25.7437H25.7426H25.7415H25.7405H25.7394H25.7383H25.7372H25.7362H25.7351H25.734H25.733H25.7319H25.7308H25.7297H25.7287H25.7276H25.7265H25.7255H25.7244H25.7233H25.7222H25.7212H25.7201H25.719H25.7179H25.7169H25.7158H25.7147H25.7137H25.7126H25.7115H25.7104H25.7094H25.7083H25.7072H25.7062H25.7051H25.704H25.7029H25.7019H25.7008H25.6997H25.6986H25.6976H25.6965H25.6954H25.6944H25.6933H25.6922H25.6911H25.6901H25.689H25.6879H25.6868H25.6858H25.6847H25.6836H25.6826H25.6815H25.6804H25.6793H25.6783H25.6772H25.6761H25.6751H25.674H25.6729H25.6718H25.6708H25.6697H25.6686H25.6675H25.6665H25.6654H25.6643H25.6633H25.6622H25.6611H25.66H25.659H25.6579H25.6568H25.6557H25.6547H25.6536H25.6525H25.6515H25.6504H25.6493H25.6482H25.6472H25.6461H25.645H25.6439H25.6429H25.6418H25.6407H25.6397H25.6386H25.6375H25.6364H25.6354H25.6343H25.6332H25.6322H25.6311H25.63H25.6289H25.6279H25.6268H25.6257H25.6246H25.6236H25.6225H25.6214H25.6204H25.6193H25.6182H25.6171H25.6161H25.615H25.6139H25.6129H25.6118H25.6107H25.6096H25.6086H25.6075H25.6064H25.6053H25.6043C25.1317 55.9499 24.8658 56.2911 24.7636 56.5996L24.7382 56.6762V56.7568C24.7382 57.0018 24.8206 57.4695 25.2868 57.6476C25.6281 57.8101 25.963 57.8097 26.1885 57.8095C26.1926 57.8095 26.1966 57.8094 26.2006 57.8094ZM53.0577 21.3295L53.0768 21.291L52.9604 22.0125C53.0278 21.913 53.095 21.8131 53.1622 21.7129C53.1486 21.7105 53.1342 21.7057 53.1187 21.6979C52.9357 21.5751 52.9967 21.4523 53.0577 21.3295Z" fill="#4F4C4C" stroke="#4F4C4C"/>
</svg>
