<svg width="320" height="80" viewBox="0 0 320 80" fill="none" xmlns="http://www.w3.org/2000/svg">
<path d="M29.5698 46.9244C28.4106 47.1076 27.3125 47.1076 26.2143 47.0465C25.9703 47.0465 25.7263 47.0465 25.4823 46.9244C25.2992 46.8634 25.2382 46.6802 25.2382 46.497C25.2992 46.3138 25.4212 46.1917 25.6043 46.1917C25.7873 46.1917 25.9703 46.1917 26.1533 46.1917C27.3735 46.2528 28.5326 46.1307 29.7528 45.9475C30.1798 45.8864 30.4849 45.6422 30.7289 45.2759C33.9013 40.2691 37.1347 35.2624 40.4901 30.3777C43.9066 25.3099 47.384 20.3642 51.0444 15.4796C52.1426 14.0142 53.1797 12.5488 54.2168 10.9613C54.2779 10.8392 54.3999 10.656 54.3999 10.3507C54.0948 10.7781 53.7288 11.1445 53.3627 11.5108C53.3017 11.5719 53.2407 11.694 53.1187 11.6329C52.9357 11.5108 52.9967 11.3887 53.0577 11.2666C53.1187 11.1445 53.1797 11.0223 53.2407 10.9002C53.7288 10.1675 54.3389 9.49589 54.9489 8.88531C55.376 8.45791 55.681 8.39685 56.0471 8.58002C56.4131 8.7632 56.5961 9.25166 56.4741 9.74012C56.2911 10.4728 55.9251 11.1445 55.559 11.755C54.7049 13.2204 53.7898 14.5637 52.8137 15.907C49.7633 20.0589 46.6519 24.1498 43.6625 28.3628C39.819 33.797 36.0976 39.2922 32.4981 44.9095C32.3761 45.0316 32.3151 45.0927 32.3151 45.3369C33.1692 45.1537 33.9623 44.9095 34.7554 44.6653C37.9278 43.6273 41.0392 42.4061 44.1506 41.0629C52.4476 37.5215 60.3786 33.3085 68.0656 28.4849C71.299 26.4089 74.4714 24.2109 77.2777 21.5854C78.6199 20.3642 79.9011 19.082 80.9382 17.6166C81.8533 16.3954 82.6464 15.0522 83.1345 13.5257C83.6835 11.6329 83.5005 9.86224 82.4024 8.21367C81.7923 7.35886 81.0602 6.68722 80.2061 6.07664C78.2539 4.67231 76.0576 3.87856 73.7393 3.20692C71.116 2.47422 68.4316 2.04682 65.6863 1.80259C63.734 1.68047 61.7818 1.55835 59.8295 1.55835C56.6572 1.55835 53.4848 1.74153 50.3124 2.10788C45.1267 2.59634 40.0021 3.57327 34.9994 4.91654C29.3867 6.38193 23.8961 8.33579 18.7104 10.9613C15.9041 12.4267 13.1587 14.0752 10.7184 16.1512C8.76617 17.8608 6.99695 19.6926 5.89881 22.0738C5.0447 23.9666 4.92269 25.8594 5.71579 27.8133C6.20385 28.9734 6.99695 29.9503 7.97307 30.8051C9.55927 32.2705 11.3895 33.4306 13.3417 34.3465C16.2701 35.8119 19.3205 36.8499 22.5539 37.3994C23.225 37.5215 23.9571 37.5826 24.6892 37.4604C24.8112 37.3994 24.9332 37.3383 24.9942 37.5215C25.1162 37.7047 24.9332 37.8268 24.8112 37.8878C24.5671 38.071 24.2621 38.1321 23.9571 38.1321C22.6759 38.1931 21.5168 38.01 20.2966 37.7047C16.5141 36.8499 12.9757 35.5066 9.74229 33.3696C8.33912 32.4537 7.05795 31.4768 6.02082 30.1945C3.76354 27.569 3.4585 24.6383 4.80067 21.4633C5.53276 19.8757 6.50889 18.4714 7.72904 17.1892C10.0473 14.6858 12.7927 12.732 15.721 11.0223C20.9677 7.96944 26.6414 5.77135 32.4371 4.06173C36.6467 2.77951 40.9782 1.80259 45.3097 1.13095C47.811 0.764601 50.2513 0.520368 52.7527 0.27614C56.0471 -0.0291536 59.2805 -0.0291536 62.5749 0.0319072C67.1505 0.215079 71.665 0.764601 76.0576 2.29105C78.2539 3.08481 80.3281 4.12279 82.1583 5.64924C83.9886 7.23674 85.0867 9.25166 85.2087 11.694C85.2697 12.732 85.0257 13.7089 84.7207 14.6858C84.1106 16.3954 83.1345 17.9219 81.9753 19.3262C79.718 22.1349 76.9727 24.394 74.0443 26.47C70.2618 29.1566 66.2964 31.4157 62.2088 33.6748C57.6333 36.2393 52.8747 38.6205 48.0551 40.7576C43.7235 42.7114 39.27 44.4821 34.6944 45.8254C33.7793 46.0696 32.8642 46.3138 31.8881 46.5581C31.522 46.6191 31.217 46.8023 31.0339 47.1687C27.9836 51.9922 24.9332 56.8158 22.1268 61.7615C20.7237 64.2038 19.3815 66.7072 18.1613 69.2106C17.9783 69.4548 17.8563 69.699 17.7343 69.9433C17.5513 70.1875 17.3682 70.3096 17.0632 70.1875C16.8192 70.0043 16.8192 69.7601 16.9412 69.5159C17.3682 68.6 17.7953 67.6841 18.2834 66.7683C20.1136 63.1048 22.1268 59.5024 24.2011 55.961C25.8483 53.1523 27.5565 50.4047 29.2647 47.6571C29.3867 47.4739 29.5088 47.2908 29.5698 46.9244Z" fill="#4F4C4C"/>
<path d="M105.607 21.3411C105.729 21.4633 105.851 21.4633 105.973 21.4633C109.267 21.3411 112.562 21.2801 115.795 21.219C116.039 21.219 116.283 21.219 116.466 21.219C121.652 21.219 126.837 21.158 131.962 21.219C135.256 21.2801 138.551 21.219 141.784 21.3411C142.821 21.3411 143.858 21.4022 144.896 21.4633C145.079 21.4633 145.262 21.5243 145.445 21.5243C145.628 21.5854 145.75 21.6464 145.75 21.8296C145.75 22.0738 145.567 22.0738 145.384 22.0738C145.323 22.0738 145.262 22.0738 145.201 22.0738C143.553 21.9517 141.906 22.0128 140.259 22.0128C132.633 21.9517 124.946 21.9517 117.32 22.0738C113.599 22.0738 109.816 22.1959 106.095 22.3181C104.509 22.3791 104.936 22.257 104.143 23.4171C101.092 28.0575 98.1028 32.759 95.1744 37.4604C92.063 42.3451 89.0736 47.2908 86.0233 52.2365C83.3389 56.7548 80.5936 61.212 77.8482 65.6692C77.7872 65.7913 77.7262 65.9745 77.6042 66.0356C77.4822 66.2187 77.2992 66.2187 77.1161 66.1577C76.9331 66.0356 76.9331 65.8524 76.9941 65.6692C77.0551 65.486 77.1772 65.3639 77.2382 65.1808C78.8244 62.3721 80.5326 59.6245 82.1798 56.8158C85.4132 51.3817 88.6466 45.9475 92.002 40.5744C95.6015 34.7739 99.2009 28.9734 102.861 23.1729C102.983 22.9286 103.166 22.8065 103.166 22.5012C102.861 22.4402 102.739 22.6844 102.556 22.8065C101.641 23.9666 100.787 25.1267 99.872 26.2258C96.9436 29.7671 94.1373 33.3696 91.1479 36.8499C89.3177 38.9869 87.2434 40.8797 84.8641 42.4672C84.193 42.8946 83.5219 43.1999 82.8509 43.5052C82.6678 43.6273 82.4238 43.6884 82.2408 43.7494C80.8986 44.1158 79.8615 43.4441 79.7395 42.0398C79.6175 41.1239 79.8615 40.3302 80.1665 39.4753C80.2885 39.1701 80.4716 38.8648 80.4716 38.4374C80.1665 38.4374 79.9835 38.6816 79.8005 38.8037C78.0923 40.0249 76.3841 41.3071 74.6758 42.5282C74.1268 42.9557 73.5777 43.2609 72.9676 43.5052C71.6255 43.9936 70.5273 43.2609 70.4663 41.7956C70.4663 41.246 70.5883 40.7576 70.7714 40.208C71.7475 37.5826 73.6387 35.7508 76.079 34.4686C77.2382 33.858 78.4583 33.7359 79.6785 34.2244C80.5936 34.5907 81.2647 35.1402 81.4477 36.1782C81.4477 36.1782 81.5087 36.2393 81.5087 36.3003C81.7527 36.1172 81.8137 35.8729 81.9968 35.6287C82.1188 35.4455 82.2408 35.2013 82.3628 34.9571C82.6678 34.5297 83.1559 34.4075 83.644 34.7128C84.01 34.9571 84.193 35.3234 83.949 35.8119C83.705 36.4225 83.3999 36.972 83.0949 37.5215C82.6068 38.3763 82.0578 39.2311 81.6307 40.147C81.3867 40.6355 81.2037 41.1239 81.0816 41.6124C81.0206 41.7956 81.0206 41.9177 81.0206 42.1008C80.9596 42.8335 81.3257 43.0778 81.9968 42.9557C82.6068 42.7725 83.2169 42.5282 83.766 42.223C85.3522 41.3071 86.7554 40.208 88.0975 38.9869C90.2328 36.972 92.124 34.7739 93.9542 32.5147C96.4556 29.4618 99.0179 26.3479 101.519 23.2339C101.641 23.0508 101.885 22.9286 101.885 22.6234C101.702 22.4402 101.458 22.5623 101.214 22.5623C99.4449 22.5012 97.6757 22.7455 95.9675 22.6844C95.6015 22.6844 95.2964 22.6844 94.9914 22.6234C94.8084 22.6234 94.5643 22.5623 94.5643 22.3181C94.6253 22.0738 94.8694 22.0738 95.0524 22.0738C95.5405 22.0738 96.0285 22.0128 96.5776 22.0128C98.4078 21.8907 100.299 21.7685 102.129 21.7075C102.617 21.6464 102.922 21.5243 103.227 21.158C104.509 19.6315 105.79 18.1051 107.071 16.5786C107.925 15.4796 108.657 14.2584 109.511 13.0983C110.609 11.5108 111.707 9.98435 112.867 8.39685C113.05 8.15262 113.233 7.90838 113.477 7.72521C113.66 7.48098 113.843 7.41992 114.087 7.6031C114.392 7.78627 114.331 8.0305 114.209 8.21367C113.965 8.58002 113.782 8.94637 113.599 9.25166C111.219 12.793 108.779 16.3954 106.4 19.9368C106.095 20.3642 105.79 20.7916 105.607 21.3411ZM71.9915 41.9177C71.9915 42.5893 72.1135 42.7114 72.6626 42.5282C73.1507 42.4061 73.5777 42.1619 74.0048 41.8566C76.201 40.3912 78.3973 38.9258 80.5936 37.4604C80.6546 37.4604 80.6546 37.3994 80.7156 37.3994C80.9596 37.2162 81.0206 36.972 80.8986 36.7277C80.6546 35.6898 80.0445 35.1402 78.9464 35.1402C78.1533 35.1402 77.4212 35.3845 76.7501 35.8119C74.7979 37.1551 73.1507 38.8037 72.2355 41.0629C72.1135 41.3681 71.9915 41.6734 71.9915 41.9177Z" fill="#4F4C4C"/>
<path d="M103.355 39.5364C103.904 39.2922 104.209 38.8037 104.575 38.4374C105.49 37.2773 106.589 36.3003 107.565 35.2624C107.87 34.9571 108.175 34.7128 108.419 34.3465C108.663 33.858 109.395 33.858 109.7 34.4686C109.883 34.8349 109.822 35.2013 109.761 35.5676C109.7 36.1172 109.7 36.6667 109.944 37.2162C110.249 37.8268 110.676 38.2542 111.286 38.4984C112.628 39.109 113.97 39.4753 115.435 39.4753C117.448 39.5364 119.4 39.3532 121.352 38.8037C121.474 38.7427 121.657 38.6816 121.84 38.7427C121.84 38.9869 121.657 38.9869 121.535 39.0479C120.437 39.3532 119.278 39.7196 118.18 39.9028C116.533 40.0859 114.886 40.147 113.238 39.9028C112.506 39.8417 111.713 39.6585 111.042 39.4143C110.127 39.109 109.395 38.5595 108.785 37.8878C108.297 37.2773 108.114 36.6667 107.992 35.8119C107.626 36.1172 107.321 36.4225 107.016 36.6667C105.673 37.9489 104.453 39.4143 103.233 40.8797C102.623 41.6124 102.074 42.3451 101.525 43.0778C101.403 43.1388 101.342 43.2609 101.281 43.322C101.098 43.5052 100.915 43.7494 100.61 43.6273C100.305 43.5052 100.183 43.2609 100.183 42.8335C100.244 42.5282 100.305 42.223 100.427 41.8566C100.732 40.8797 101.098 39.9028 101.586 38.9869C102.379 37.4604 103.294 36.1172 104.209 34.7128C104.392 34.4075 104.575 34.2244 104.819 34.0412C105.185 33.7359 105.673 33.7359 106.039 33.9801C106.345 34.2244 106.467 34.5907 106.345 35.0792C106.223 35.3234 106.1 35.5676 105.917 35.8119C105.124 36.972 104.209 38.071 103.538 39.2922C103.477 39.3532 103.416 39.4753 103.355 39.5364Z" fill="#4F4C4C"/>
<path d="M128.691 29.9503C128.935 30.0114 129.179 30.0114 129.423 30.0724C129.606 30.1335 129.667 30.2556 129.667 30.4388C129.667 30.6219 129.545 30.7441 129.423 30.7441C128.752 30.8662 128.081 31.0494 127.471 31.2325C127.105 31.3546 126.8 31.1104 126.739 30.8051C126.739 30.4388 126.922 30.3167 127.166 30.1945C127.654 30.0114 128.203 30.0724 128.691 29.9503ZM126.068 33.7359C126.068 33.9801 125.946 34.2244 125.824 34.4075C125.519 34.8349 125.275 35.2624 124.969 35.6287C122.59 38.8648 120.15 42.1008 118.076 45.5201C117.771 46.0086 117.527 46.1917 117.283 46.0086C116.977 45.7033 117.222 45.398 117.344 45.1537C118.137 43.6273 118.991 42.223 119.906 40.8186C121.309 38.6816 122.712 36.5446 124.176 34.4075C124.42 34.0412 124.725 33.6138 125.091 33.3085C125.275 33.1253 125.519 33.0643 125.763 33.1864C125.946 33.3085 126.068 33.4917 126.068 33.7359Z" fill="#4F4C4C"/>
<path d="M153.46 38.9869C153.216 39.2922 152.91 39.2922 152.605 39.4143C151.202 39.8417 149.799 40.208 148.396 40.6965C146.2 41.4292 143.942 42.0398 141.746 42.6504C140.16 43.1388 138.574 43.5662 136.926 43.7494C135.828 43.8105 134.669 43.9326 133.632 43.5662C131.741 42.9557 130.765 41.4292 131.131 39.4143C131.314 38.4984 131.741 37.7657 132.351 36.972C133.388 35.6287 134.791 34.7128 136.255 33.9191C137.11 33.4306 138.086 33.1864 139.123 33.2474C139.489 33.2474 139.794 33.3085 140.099 33.4917C140.709 33.797 140.892 34.3465 140.709 35.0181C140.465 35.934 139.855 36.4835 139.123 36.972C139.062 37.033 139.062 37.033 139.001 37.033C138.94 37.033 138.879 37.033 138.879 37.033C138.757 36.8499 138.879 36.7888 138.94 36.6667C139.245 36.3614 139.489 35.995 139.733 35.6898C139.855 35.5066 139.916 35.3234 139.977 35.1402C140.038 34.7128 139.794 34.4686 139.428 34.5907C139.123 34.6518 138.818 34.7739 138.513 34.896C137.232 35.5066 136.133 36.4225 135.096 37.3994C134.425 38.01 133.876 38.6816 133.327 39.4143C132.9 40.0859 132.778 40.7576 132.839 41.4903C132.9 41.9177 133.144 42.223 133.51 42.4672C134.547 43.1388 135.706 43.2609 136.865 43.1388C138.879 42.8335 140.831 42.3451 142.722 41.7956C146.078 40.8797 149.433 39.8417 152.788 38.9258C152.971 38.9258 153.155 38.7427 153.46 38.9869Z" fill="#4F4C4C"/>
<path d="M160.327 29.9503C160.571 30.0114 160.815 30.0114 161.059 30.0724C161.242 30.1335 161.303 30.2556 161.303 30.4388C161.303 30.6219 161.181 30.7441 161.059 30.7441C160.388 30.8662 159.717 31.0494 159.107 31.2325C158.741 31.3546 158.435 31.1104 158.374 30.8051C158.374 30.4388 158.558 30.3167 158.802 30.1945C159.29 30.0114 159.839 30.0724 160.327 29.9503ZM157.703 33.7359C157.703 33.9801 157.581 34.2244 157.459 34.4075C157.154 34.8349 156.91 35.2624 156.605 35.6287C154.226 38.8648 151.786 42.1008 149.711 45.5201C149.406 46.0086 149.162 46.1917 148.918 46.0086C148.613 45.7033 148.857 45.398 148.979 45.1537C149.772 43.6273 150.627 42.223 151.542 40.8186C152.945 38.6816 154.348 36.5446 155.812 34.4075C156.056 34.0412 156.361 33.6138 156.727 33.3085C156.91 33.1253 157.154 33.0643 157.398 33.1864C157.581 33.3085 157.703 33.4917 157.703 33.7359Z" fill="#4F4C4C"/>
<path d="M164.048 43.322C164.414 43.3831 164.78 43.2609 165.085 43.0778C165.817 42.7114 166.488 42.284 167.098 41.7956C168.806 40.4523 170.454 39.0479 172.162 37.7657C172.345 37.6436 172.467 37.5215 172.65 37.3994C172.772 37.2773 172.833 37.1551 172.833 36.972C172.772 36.0561 171.979 35.3234 171.064 35.3234C169.965 35.3845 168.989 35.8119 168.074 36.4225C166.427 37.4604 165.207 38.9258 164.109 40.5133C163.865 40.9407 163.682 41.3681 163.499 41.7956C163.377 42.0398 163.316 42.3451 163.316 42.6504C163.316 43.1388 163.56 43.322 164.048 43.322ZM172.04 38.3763C171.186 39.109 170.393 39.8417 169.599 40.5744C168.44 41.6124 167.281 42.5893 166 43.4441C165.512 43.7494 165.085 43.9936 164.536 44.1158C162.95 44.5432 161.607 43.3831 161.851 41.7345C161.973 40.9407 162.217 40.208 162.645 39.5364C163.743 37.6436 165.207 36.0561 167.159 34.9571C168.257 34.3465 169.416 34.0412 170.637 34.1023C171.918 34.1023 172.833 34.7739 173.199 35.995C173.321 36.3614 173.321 36.7277 173.87 36.6667C174.175 36.6667 174.297 36.972 174.236 37.2773C174.175 37.4604 174.053 37.6436 173.992 37.8268C173.565 38.4984 173.138 39.2311 172.833 39.9638C172.589 40.5133 172.406 41.0629 172.406 41.6734C172.406 42.3451 172.711 42.7114 173.321 42.8946C173.931 43.0778 174.602 43.0778 175.212 43.0167C176.31 42.8946 177.347 42.5893 178.385 42.284C181.679 41.3681 184.912 40.208 188.146 39.0479C188.329 38.9869 188.573 38.8037 188.878 38.9258C188.756 39.2311 188.451 39.2922 188.207 39.3532C187.109 39.7806 185.949 40.208 184.79 40.6355C182.228 41.5513 179.666 42.5282 176.981 43.1999C175.822 43.5052 174.663 43.7494 173.504 43.5662C172.101 43.322 171.43 42.5893 171.43 41.185C171.43 40.4523 171.613 39.7196 171.918 39.0479C171.979 38.8648 172.04 38.6205 172.162 38.4374C172.101 38.4374 172.04 38.3763 172.04 38.3763Z" fill="#4F4C4C"/>
<path d="M134.713 49.4244C136.785 49.4244 138.217 49.375 139.006 49.2762V50.2641C138.118 50.4617 137.361 50.9392 136.736 51.6965C136.111 52.421 135.535 53.5736 135.009 55.1542L126.52 79.5554H125.73L118.129 60.7359L110.085 79.5554H109.295L99.2266 53.4254C98.437 51.3837 97.3018 50.3299 95.8212 50.2641V49.2762C97.1373 49.375 98.8976 49.4244 101.102 49.4244C103.932 49.4244 106.038 49.375 107.419 49.2762V50.2641C106.169 50.3299 105.281 50.4946 104.754 50.758C104.261 50.9885 104.014 51.4166 104.014 52.0423C104.014 52.5363 104.195 53.3266 104.557 54.4133L111.565 73.5292L117.537 59.3528L115.168 53.4254C114.313 51.3837 113.177 50.3299 111.763 50.2641V49.2762C113.112 49.375 114.872 49.4244 117.044 49.4244C119.873 49.4244 121.979 49.375 123.361 49.2762V50.2641C122.111 50.3299 121.222 50.4946 120.696 50.758C120.169 50.9885 119.906 51.4331 119.906 52.0917C119.906 52.6515 120.104 53.4254 120.498 54.4133L127.655 73.1835L132.936 57.7228C133.561 55.8787 133.873 54.4297 133.873 53.376C133.873 52.2893 133.561 51.5154 132.936 51.0544C132.344 50.5934 131.439 50.3299 130.221 50.2641V49.2762C131.208 49.375 132.705 49.4244 134.713 49.4244Z" fill="#4F4C4C"/>
<path d="M165.513 73.4798C165.513 75.1922 165.628 77.1351 165.859 79.3085C163.72 79.2097 160.117 79.1603 155.05 79.1603C148.963 79.1603 144.357 79.2097 141.231 79.3085V78.3206C142.415 78.2547 143.271 78.123 143.797 77.9254C144.357 77.7278 144.735 77.3491 144.932 76.7893C145.13 76.2295 145.228 75.3239 145.228 74.0726V54.5121C145.228 53.2607 145.13 52.3551 144.932 51.7953C144.735 51.2355 144.357 50.8568 143.797 50.6592C143.271 50.4617 142.415 50.3299 141.231 50.2641V49.2762C144.357 49.375 148.963 49.4244 155.05 49.4244C159.656 49.4244 162.93 49.375 164.872 49.2762C164.641 51.252 164.526 53.0302 164.526 54.6109C164.526 55.8951 164.575 56.916 164.674 57.6734H163.539C163.309 54.9731 162.733 53.0961 161.812 52.0423C160.923 50.9556 159.459 50.4123 157.419 50.4123H153.816C152.632 50.4123 151.76 50.5111 151.2 50.7086C150.674 50.8733 150.312 51.2355 150.115 51.7953C149.917 52.3551 149.818 53.2607 149.818 54.5121V63.6996H153.915C154.968 63.6996 155.774 63.4361 156.333 62.9093C156.893 62.3494 157.271 61.7567 157.468 61.131C157.666 60.4724 157.847 59.6492 158.011 58.6613H159.146C159.048 59.7809 158.998 60.9993 158.998 62.3165V64.1935C158.998 65.4778 159.097 67.3219 159.295 69.7258H158.159C157.962 68.1452 157.584 66.9103 157.024 66.0212C156.465 65.132 155.428 64.6875 153.915 64.6875H149.818V74.0726C149.818 75.3239 149.917 76.2295 150.115 76.7893C150.312 77.3491 150.674 77.7278 151.2 77.9254C151.76 78.09 152.632 78.1724 153.816 78.1724H157.419C159.064 78.1724 160.364 77.9089 161.318 77.3821C162.272 76.8552 162.996 76.0155 163.49 74.8629C163.983 73.6774 164.329 72.0309 164.526 69.9234H165.661C165.563 70.8125 165.513 71.998 165.513 73.4798Z" fill="#4F4C4C"/>
<path d="M184.057 49.2762C189.19 49.2762 193.039 50.5275 195.606 53.0302C198.205 55.5 199.505 59.1223 199.505 63.8972C199.505 66.9926 198.88 69.7093 197.629 72.0474C196.379 74.3525 194.553 76.1472 192.151 77.4314C189.782 78.6828 186.936 79.3085 183.613 79.3085L180.75 79.2591C178.908 79.1932 177.559 79.1603 176.703 79.1603C174.005 79.1603 171.965 79.2097 170.583 79.3085V78.3206C171.768 78.2547 172.623 78.123 173.15 77.9254C173.709 77.7278 174.087 77.3491 174.285 76.7893C174.482 76.2295 174.581 75.3239 174.581 74.0726V54.5121C174.581 53.2607 174.482 52.3551 174.285 51.7953C174.087 51.2355 173.709 50.8568 173.15 50.6592C172.623 50.4617 171.768 50.3299 170.583 50.2641V49.2762C171.735 49.375 173.331 49.4244 175.371 49.4244L179.566 49.375C181.803 49.3091 183.3 49.2762 184.057 49.2762ZM182.823 50.1653C181.803 50.1653 181.03 50.2806 180.503 50.5111C180.01 50.7416 179.664 51.1532 179.467 51.7459C179.27 52.3387 179.171 53.2278 179.171 54.4133V74.1714C179.171 75.3568 179.27 76.246 179.467 76.8387C179.664 77.4314 180.01 77.8431 180.503 78.0736C181.03 78.3041 181.82 78.4194 182.872 78.4194C185.867 78.4194 188.219 77.8925 189.93 76.8387C191.641 75.752 192.842 74.1714 193.533 72.0968C194.224 70.0222 194.569 67.3548 194.569 64.0947C194.569 59.2869 193.681 55.7634 191.904 53.5242C190.128 51.2849 187.1 50.1653 182.823 50.1653Z" fill="#4F4C4C"/>
<path d="M217.313 49.2762C222.446 49.2762 226.296 50.5275 228.862 53.0302C231.462 55.5 232.761 59.1223 232.761 63.8972C232.761 66.9926 232.136 69.7093 230.886 72.0474C229.636 74.3525 227.809 76.1472 225.408 77.4314C223.039 78.6828 220.192 79.3085 216.869 79.3085L214.007 79.2591C212.164 79.1932 210.815 79.1603 209.96 79.1603C207.262 79.1603 205.222 79.2097 203.84 79.3085V78.3206C205.024 78.2547 205.88 78.123 206.406 77.9254C206.965 77.7278 207.344 77.3491 207.541 76.7893C207.739 76.2295 207.837 75.3239 207.837 74.0726V54.5121C207.837 53.2607 207.739 52.3551 207.541 51.7953C207.344 51.2355 206.965 50.8568 206.406 50.6592C205.88 50.4617 205.024 50.3299 203.84 50.2641V49.2762C204.991 49.375 206.587 49.4244 208.627 49.4244L212.822 49.375C215.06 49.3091 216.557 49.2762 217.313 49.2762ZM216.08 50.1653C215.06 50.1653 214.286 50.2806 213.76 50.5111C213.266 50.7416 212.921 51.1532 212.723 51.7459C212.526 52.3387 212.427 53.2278 212.427 54.4133V74.1714C212.427 75.3568 212.526 76.246 212.723 76.8387C212.921 77.4314 213.266 77.8431 213.76 78.0736C214.286 78.3041 215.076 78.4194 216.129 78.4194C219.123 78.4194 221.476 77.8925 223.187 76.8387C224.898 75.752 226.098 74.1714 226.789 72.0968C227.48 70.0222 227.826 67.3548 227.826 64.0947C227.826 59.2869 226.938 55.7634 225.161 53.5242C223.384 51.2849 220.357 50.1653 216.08 50.1653Z" fill="#4F4C4C"/>
<path d="M249.681 50.2641C248.497 50.3299 247.625 50.4617 247.066 50.6592C246.539 50.8568 246.177 51.2355 245.98 51.7953C245.782 52.3551 245.684 53.2607 245.684 54.5121V74.0726C245.684 75.3239 245.782 76.2295 245.98 76.7893C246.177 77.3491 246.539 77.7278 247.066 77.9254C247.625 78.123 248.497 78.2547 249.681 78.3206V79.3085C248.168 79.2097 246.079 79.1603 243.413 79.1603C240.584 79.1603 238.478 79.2097 237.096 79.3085V78.3206C238.281 78.2547 239.136 78.123 239.663 77.9254C240.222 77.7278 240.6 77.3491 240.798 76.7893C240.995 76.2295 241.094 75.3239 241.094 74.0726V54.5121C241.094 53.2607 240.995 52.3551 240.798 51.7953C240.6 51.2355 240.222 50.8568 239.663 50.6592C239.136 50.4617 238.281 50.3299 237.096 50.2641V49.2762C238.478 49.375 240.584 49.4244 243.413 49.4244C246.046 49.4244 248.135 49.375 249.681 49.2762V50.2641Z" fill="#4F4C4C"/>
<path d="M283.828 50.2641C282.677 50.3299 281.821 50.5111 281.262 50.8074C280.702 51.0709 280.324 51.5319 280.127 52.1905C279.929 52.8162 279.83 53.7547 279.83 55.006V79.5554H278.695L258.954 52.1905V73.5786C258.954 74.8629 259.052 75.8179 259.25 76.4436C259.48 77.0692 259.908 77.5302 260.533 77.8266C261.158 78.0901 262.129 78.2547 263.445 78.3206V79.3085C262.26 79.2097 260.582 79.1603 258.411 79.1603C256.436 79.1603 254.906 79.2097 253.821 79.3085V78.3206C254.972 78.2547 255.828 78.0901 256.387 77.8266C256.946 77.5302 257.325 77.0692 257.522 76.4436C257.72 75.7849 257.818 74.83 257.818 73.5786V54.5121C257.818 53.2607 257.72 52.3551 257.522 51.7953C257.325 51.2355 256.946 50.8568 256.387 50.6592C255.861 50.4617 255.005 50.3299 253.821 50.2641V49.2762C254.906 49.375 256.436 49.4244 258.411 49.4244C260.187 49.4244 261.701 49.375 262.951 49.2762L278.695 71.2077V55.006C278.695 53.7218 278.58 52.7668 278.35 52.1411C278.152 51.5154 277.741 51.0709 277.116 50.8074C276.491 50.5111 275.52 50.3299 274.204 50.2641V49.2762C275.389 49.375 277.067 49.4244 279.238 49.4244C281.212 49.4244 282.742 49.375 283.828 49.2762V50.2641Z" fill="#4F4C4C"/>
<path d="M302.329 48.5846C304.171 48.5846 305.652 48.8481 306.771 49.375C307.922 49.9019 309.14 50.7086 310.423 51.7953C310.851 52.1246 311.18 52.2893 311.41 52.2893C312.035 52.2893 312.446 51.2849 312.644 49.2762H313.779C313.647 51.1532 313.582 54.4462 313.582 59.1552H312.446C312.183 57.9039 311.854 56.8007 311.459 55.8457C311.097 54.8908 310.604 54.0511 309.979 53.3266C308.893 52.0752 307.758 51.1203 306.573 50.4617C305.389 49.8031 303.941 49.4738 302.23 49.4738C300.256 49.4738 298.545 50.083 297.097 51.3014C295.65 52.4869 294.531 54.1992 293.741 56.4385C292.951 58.6777 292.557 61.3121 292.557 64.3417C292.557 69.38 293.478 73.0847 295.32 75.4556C297.163 77.8266 299.91 79.0121 303.563 79.0121C304.977 79.0121 306.244 78.8804 307.363 78.6169C307.955 78.4852 308.35 78.2712 308.547 77.9748C308.778 77.6784 308.893 77.2668 308.893 76.7399V72.4919C308.893 71.1089 308.761 70.1045 308.498 69.4788C308.235 68.8531 307.774 68.4251 307.116 68.1945C306.458 67.964 305.389 67.8158 303.908 67.75V66.7621C305.685 66.8609 308.005 66.9103 310.867 66.9103C313.105 66.9103 314.815 66.8609 316 66.7621V67.75C315.243 67.8158 314.7 67.9476 314.371 68.1452C314.042 68.3427 313.812 68.7214 313.68 69.2812C313.549 69.8411 313.483 70.7466 313.483 71.998V79.3085H312.496C312.43 78.5181 312.183 78.123 311.756 78.123C311.558 78.123 311.196 78.2382 310.67 78.4688C310.143 78.6993 309.781 78.8475 309.584 78.9133C307.478 79.6378 305.323 80 303.118 80C298.183 80 294.366 78.6828 291.668 76.0484C288.97 73.381 287.621 69.6599 287.621 64.8851C287.621 61.5921 288.246 58.7271 289.497 56.2903C290.747 53.8205 292.474 51.9271 294.679 50.6099C296.916 49.2597 299.466 48.5846 302.329 48.5846Z" fill="#4F4C4C"/>
</svg>
