<svg aria-hidden="true" style="position: absolute; width: 0; height: 0; overflow: hidden;" version="1.1" xmlns="http://www.w3.org/2000/svg" xmlns:xlink="http://www.w3.org/1999/xlink">
<defs>
<symbol id="icon-mastercard" viewBox="0 0 32 32">
  <path fill="#c56b8a" style="fill: var(--color1, #c56b8a)" d="M31.307 21.163c-0.027-0.050-0.066-0.088-0.117-0.115-0.049-0.027-0.099-0.041-0.151-0.041s-0.103 0.014-0.152 0.041c-0.049 0.027-0.089 0.065-0.116 0.115-0.027 0.048-0.041 0.1-0.041 0.153s0.014 0.105 0.041 0.153c0.028 0.049 0.067 0.088 0.115 0.116s0.1 0.041 0.155 0.041c0.052 0 0.104-0.014 0.153-0.041s0.087-0.067 0.114-0.116c0.027-0.048 0.041-0.1 0.041-0.153s-0.013-0.105-0.041-0.153zM31.144 21.431h-0.067l-0.041-0.102h-0.040v0.102h-0.054v-0.259h0.108c0.013 0 0.040 0.001 0.067 0.015 0.014 0.013 0.027 0.039 0.027 0.065 0 0.028-0.013 0.055-0.040 0.067l0.040 0.112z"></path>
  <path fill="#c56b8a" style="fill: var(--color1, #c56b8a)" d="M31.064 21.225c0-0.005-0.027-0.005-0.041-0.005h-0.027v0.067h0.041c0 0 0.014 0 0.027-0.005s0.014-0.018 0.014-0.030c0-0.010 0-0.020-0.014-0.026z"></path>
  <path fill="#c56b8a" style="fill: var(--color1, #c56b8a)" d="M22.422 6.42c-2.473 0.001-4.726 0.938-6.424 2.476-1.7-1.538-3.951-2.474-6.421-2.474-0.021 0-0.041 0-0.061 0-5.258 0.034-9.515 4.312-9.515 9.578 0 5.287 4.291 9.577 9.577 9.577 2.47 0 4.721-0.937 6.421-2.475-0.355-0.32-0.676-0.675-0.979-1.047h1.978c-0.299 0.366-0.624 0.708-0.973 1.026h-0.002c0.001 0.001 0.001 0.001 0.001 0.001-0.008 0.007-0.017 0.013-0.024 0.020 1.699 1.54 3.955 2.478 6.428 2.477 5.29-0.001 9.575-4.291 9.574-9.579 0-0.002 0-0.003 0-0.005-0.001-5.289-4.29-9.576-9.578-9.576zM15.127 9.886h1.82c0.27 0.324 0.519 0.667 0.743 1.025h-3.246c0.207-0.343 0.437-0.694 0.683-1.025zM13.877 11.918h4.364c0.157 0.332 0.294 0.675 0.413 1.026h-5.295c0.052-0.099 0.237-0.498 0.517-1.026zM9.051 18.296h-1.136l0.677-3.548-1.556 3.548h-1.028l-0.19-3.524-0.677 3.524h-1.029l0.88-4.613h1.773l0.081 2.857 1.259-2.857h1.841l-0.895 4.613zM13.071 16.303l-0.244 1.333-0.040 0.239-0.027 0.19-0.014 0.128-0.013 0.102h-0.947l0.027-0.388c-0.284 0.309-0.677 0.453-1.191 0.453-0.609 0-1.029-0.418-1.029-1.023 0-0.913 0.731-1.447 1.989-1.447 0.122 0 0.284 0.011 0.46 0.029 0.027-0.124 0.041-0.175 0.041-0.244 0-0.248-0.204-0.34-0.731-0.34-0.325 0-0.69 0.039-0.934 0.104l-0.163 0.041-0.095 0.024 0.149-0.845c0.568-0.144 0.934-0.198 1.353-0.198 0.974 0 1.489 0.381 1.489 1.1 0 0.186-0.013 0.326-0.081 0.743zM15.332 14.451c0.933 0 1.529 0.531 1.529 1.362 0 0.278-0.041 0.547-0.137 0.928h-2.245c-0.014 0.057-0.014 0.083-0.014 0.119 0 0.434 0.338 0.655 0.988 0.655 0.406 0 0.772-0.073 1.177-0.238l-0.189 0.94c-0.379 0.102-0.758 0.151-1.15 0.151-1.272 0-1.935-0.577-1.935-1.682 0-1.287 0.839-2.234 1.976-2.235zM17.702 21.070h-3.398c-0.206-0.33-0.4-0.669-0.566-1.025h4.522c-0.166 0.355-0.352 0.696-0.558 1.025zM19.784 15.405c-0.298-0.034-0.595-0.055-0.826-0.055-0.366 0-0.555 0.103-0.555 0.305 0 0.176 0.054 0.218 0.528 0.408 0.581 0.228 0.812 0.53 0.812 1.045 0 0.856-0.555 1.252-1.773 1.252-0.148 0-0.351-0.011-0.622-0.031-0.136-0.010-0.243-0.020-0.312-0.034l-0.203-0.037-0.054-0.011 0.163-0.866c0.365 0.103 0.678 0.148 1.029 0.148 0.447 0 0.65-0.104 0.65-0.338 0-0.172-0.068-0.227-0.528-0.414-0.609-0.245-0.88-0.573-0.88-1.046 0-0.693 0.447-1.27 1.719-1.27 0.271 0 0.718 0.033 1.014 0.074l-0.162 0.87zM21.558 17.456c0.121 0 0.215-0.012 0.297-0.036l-0.149 0.833c-0.311 0.085-0.554 0.123-0.812 0.123-0.582 0-0.893-0.293-0.893-0.825 0-0.106 0.013-0.218 0.027-0.337l0.068-0.369 0.054-0.297 0.528-2.865h1.123l-0.162 0.862h0.581l-0.163 0.913h-0.582l-0.297 1.565c-0.014 0.068-0.014 0.12-0.014 0.155 0 0.195 0.122 0.278 0.394 0.279zM24.326 15.6c-0.541 0-0.716 0.403-1.123 2.698h-1.137l0.69-3.753h1.029l-0.108 0.57c0.352-0.443 0.622-0.61 0.988-0.61 0.041 0 0.082 0.004 0.122 0.009 0 0.002 0.042 0.009 0.096 0.022 0.013 0.004 0.026 0.004 0.122 0.041l-0.404 1.060-0.135-0.028c-0.054-0.007-0.095-0.010-0.139-0.010zM26.334 18.396c-1.288 0-1.801-0.778-1.801-1.73 0-1.329 0.88-2.231 2.233-2.231 1.179 0 1.801 0.741 1.801 1.693 0 0.233 0 0.249-0.027 0.467-0.176 1.248-1.043 1.802-2.206 1.801zM28.661 18.296c-0.163 0-0.298-0.131-0.298-0.294 0-0.16 0.135-0.291 0.298-0.291s0.298 0.131 0.298 0.291c0 0.163-0.136 0.294-0.298 0.294z"></path>
  <path fill="#c56b8a" style="fill: var(--color1, #c56b8a)" d="M28.661 17.78c-0.122 0-0.23 0.1-0.23 0.222 0 0.126 0.108 0.225 0.23 0.225s0.217-0.1 0.217-0.225c0-0.122-0.094-0.222-0.217-0.222zM28.769 18.133h-0.068l-0.041-0.101h-0.041v0.101h-0.054v-0.26h0.108c0.015 0 0.042 0.001 0.069 0.015 0.013 0.012 0.027 0.038 0.027 0.065 0 0.028-0.014 0.055-0.041 0.067l0.041 0.112z"></path>
  <path fill="#c56b8a" style="fill: var(--color1, #c56b8a)" d="M28.688 17.926c0.001-0.006-0.026-0.006-0.040-0.006h-0.028v0.067h0.041c0 0 0.014 0 0.027-0.005s0.014-0.018 0.014-0.030c0-0.010 0-0.020-0.014-0.026z"></path>
  <path fill="#c56b8a" style="fill: var(--color1, #c56b8a)" d="M15.318 15.311c-0.365 0-0.622 0.239-0.731 0.673l1.259 0.003c0-0.082 0-0.145 0-0.194 0-0.305-0.19-0.482-0.528-0.482z"></path>
  <path fill="#c56b8a" style="fill: var(--color1, #c56b8a)" d="M11.65 16.61c-0.635-0.001-0.96 0.192-0.96 0.571 0 0.233 0.149 0.383 0.406 0.383 0.461 0 0.785-0.385 0.812-0.94-0.122-0.012-0.176-0.014-0.258-0.014z"></path>
  <path fill="#c56b8a" style="fill: var(--color1, #c56b8a)" d="M26.739 15.354c-0.582 0-0.934 0.684-0.934 1.286 0 0.51 0.243 0.852 0.65 0.844 0.244 0 0.771-0.336 0.866-0.92 0.026-0.137 0.040-0.287 0.040-0.45 0-0.391-0.162-0.763-0.622-0.761z"></path>
</symbol>
<symbol id="icon-paypal" viewBox="0 0 33 32">
  <path fill="#c56b8a" style="fill: var(--color1, #c56b8a)" d="M6.331 13.080c-0.105-0.21-0.27-0.383-0.476-0.514-0.215-0.131-0.468-0.223-0.757-0.278-0.295-0.053-0.635-0.077-1.029-0.081l-1.82 0.001c-0.189 0.003-0.375 0.15-0.419 0.333l-1.225 5.334c-0.044 0.18 0.074 0.331 0.263 0.331h0.872c0.189 0 0.376-0.147 0.418-0.331l0.299-1.295c0.040-0.18 0.227-0.331 0.418-0.331h0.249c1.066-0.001 1.891-0.219 2.484-0.655 0.596-0.437 0.89-1.014 0.89-1.729-0.001-0.313-0.052-0.576-0.168-0.785zM4.452 14.822c-0.263 0.193-0.63 0.289-1.102 0.289h-0.213c-0.19 0-0.306-0.15-0.265-0.333l0.262-1.133c0.037-0.182 0.228-0.332 0.415-0.331l0.286-0.002c0.333 0 0.588 0.058 0.758 0.17 0.168 0.11 0.253 0.286 0.251 0.519 0.005 0.354-0.13 0.627-0.392 0.82z"></path>
  <path fill="#c56b8a" style="fill: var(--color1, #c56b8a)" d="M31.178 12.624l-0.055 0.017-0.073 0.010-0.090-0.014-0.046-0.044-0.021-0.070-0.001-0.105v-0.388h0.291v-0.12h-0.291v-0.242h-0.144v0.242h-0.098v0.12h0.098v0.451l0.067 0.223 0.198 0.071 0.083-0.007 0.088-0.017v-0.128h-0.008z"></path>
  <path fill="#c56b8a" style="fill: var(--color1, #c56b8a)" d="M32.529 11.972l-0.208-0.086-0.154 0.031-0.156 0.105-0.091-0.101-0.147-0.035-0.142 0.031-0.134 0.086v-0.094h-0.142v0.848h0.141v-0.633l0.119-0.074 0.118-0.029 0.096 0.017 0.048 0.049 0.021 0.081 0.007 0.105v0.484h0.142v-0.542l-0.003-0.045-0.003-0.041 0.121-0.077 0.119-0.030 0.093 0.017 0.051 0.049 0.018 0.082 0.010 0.104v0.484h0.142v-0.55l-0.067-0.237z"></path>
  <path fill="#c56b8a" style="fill: var(--color1, #c56b8a)" d="M10.534 13.842c-0.329-0.185-0.848-0.278-1.558-0.278-0.351 0-0.701 0.027-1.054 0.082-0.261 0.040-0.286 0.048-0.447 0.083-0.331 0.072-0.383 0.403-0.383 0.403l-0.107 0.439c-0.060 0.28 0.101 0.269 0.168 0.246 0.145-0.043 0.225-0.088 0.521-0.154 0.282-0.064 0.58-0.112 0.816-0.109 0.348 0 0.615 0.037 0.793 0.112 0.175 0.076 0.263 0.207 0.263 0.396l-0.015 0.123-0.126 0.077c-0.495 0.031-0.852 0.077-1.286 0.14-0.424 0.059-0.796 0.163-1.105 0.304-0.332 0.146-0.578 0.342-0.75 0.592-0.166 0.251-0.249 0.555-0.249 0.912 0 0.336 0.121 0.613 0.355 0.828 0.236 0.211 0.547 0.314 0.919 0.314 0.236-0.001 0.418-0.020 0.547-0.051l0.422-0.145 0.357-0.198 0.329-0.217 0.004 0.006-0.033 0.14-0.002 0.006v0.001c-0.036 0.17 0.067 0.31 0.233 0.326l0.003 0.004h0.809l0.011-0.005c0.174-0.020 0.337-0.16 0.375-0.326l0.635-2.751 0.033-0.224 0.015-0.21c0.002-0.39-0.166-0.679-0.495-0.863zM9.129 16.935l-0.136 0.179-0.343 0.177c-0.161 0.065-0.314 0.098-0.456 0.098-0.215 0-0.383-0.031-0.496-0.095l-0.168-0.327c0-0.177 0.041-0.317 0.128-0.425l0.369-0.251c0.158-0.053 0.351-0.098 0.575-0.13 0.199-0.025 0.593-0.070 0.644-0.071l0.060 0.106c-0.012 0.060-0.124 0.528-0.177 0.738z"></path>
  <path fill="#c56b8a" style="fill: var(--color1, #c56b8a)" d="M26.365 13.846c-0.331-0.185-0.849-0.279-1.557-0.279-0.351 0-0.701 0.027-1.054 0.084-0.262 0.038-0.288 0.046-0.449 0.081-0.331 0.072-0.382 0.404-0.382 0.404l-0.107 0.438c-0.060 0.28 0.098 0.267 0.171 0.246 0.145-0.043 0.223-0.086 0.517-0.154 0.281-0.063 0.581-0.11 0.818-0.109 0.347 0 0.614 0.037 0.791 0.112 0.177 0.076 0.263 0.208 0.263 0.396l-0.013 0.123-0.124 0.079c-0.5 0.030-0.858 0.076-1.287 0.138-0.423 0.059-0.796 0.162-1.106 0.304-0.331 0.147-0.58 0.343-0.75 0.593-0.168 0.251-0.25 0.554-0.25 0.908 0 0.338 0.119 0.616 0.357 0.829 0.237 0.21 0.545 0.316 0.917 0.316 0.234-0.003 0.416-0.018 0.547-0.051l0.421-0.143 0.361-0.198 0.326-0.22 0.006 0.007-0.030 0.141-0.003 0.003 0.001 0.003c-0.039 0.17 0.064 0.311 0.232 0.326l0.001 0.003h0.015c0.11 0 0.489 0 0.67 0h0.123l0.013-0.004c0.172-0.021 0.334-0.161 0.371-0.329l0.637-2.747 0.034-0.225 0.018-0.211c0.001-0.389-0.166-0.676-0.498-0.861zM24.963 16.939l-0.142 0.181-0.34 0.176c-0.161 0.065-0.315 0.098-0.454 0.098-0.222 0-0.385-0.032-0.496-0.095l-0.17-0.326c0-0.178 0.041-0.317 0.124-0.427 0.084-0.104 0.213-0.189 0.373-0.251 0.156-0.053 0.349-0.096 0.574-0.129 0.198-0.025 0.59-0.071 0.641-0.072l0.062 0.106c-0.009 0.060-0.121 0.526-0.173 0.738z"></path>
  <path fill="#c56b8a" style="fill: var(--color1, #c56b8a)" d="M22.16 13.099c-0.109-0.211-0.273-0.382-0.48-0.515-0.212-0.132-0.463-0.225-0.757-0.278-0.289-0.051-0.634-0.079-1.025-0.080l-1.823 0.001c-0.19 0.003-0.372 0.15-0.416 0.331l-1.226 5.336c-0.044 0.181 0.077 0.331 0.263 0.331l0.873-0.001c0.185 0.001 0.375-0.147 0.419-0.33l0.295-1.296c0.043-0.18 0.23-0.332 0.419-0.331h0.249c1.067 0 1.894-0.22 2.49-0.655 0.588-0.44 0.886-1.016 0.886-1.731-0.003-0.312-0.057-0.575-0.168-0.783zM20.28 14.844c-0.263 0.189-0.63 0.286-1.099 0.286h-0.217c-0.187 0.002-0.308-0.15-0.267-0.332l0.264-1.131c0.039-0.181 0.228-0.333 0.416-0.331l0.282-0.002c0.335 0.002 0.587 0.057 0.758 0.169s0.251 0.287 0.253 0.519c0.002 0.354-0.13 0.627-0.391 0.821z"></path>
  <path fill="#c56b8a" style="fill: var(--color1, #c56b8a)" d="M29.633 12.601c0.040-0.182-0.074-0.33-0.262-0.328h-0.781c-0.16 0-0.304 0.119-0.374 0.265l-0.043 0.067-0.039 0.173-1.091 4.96-0.035 0.152 0.001 0.004c-0.036 0.163 0.064 0.286 0.219 0.31l0.013 0.018h0.811c0.159 0 0.308-0.121 0.376-0.269l0.042-0.064 1.167-5.289-0.003-0.001z"></path>
  <path fill="#c56b8a" style="fill: var(--color1, #c56b8a)" d="M16.457 13.63c-0.206 0.003-1.045 0-1.045 0-0.188 0-0.429 0.152-0.549 0.333 0 0-1.248 2.142-1.369 2.357l-0.145-0.002-0.389-2.341c-0.043-0.184-0.236-0.342-0.475-0.342l-0.781 0.001c-0.188 0-0.303 0.15-0.261 0.333 0 0 0.593 3.374 0.712 4.168 0.055 0.438-0.007 0.516-0.007 0.516l-0.772 1.345c-0.114 0.183-0.053 0.332 0.135 0.332l0.903-0.001c0.188 0 0.435-0.148 0.547-0.331l3.472-5.873c0 0.001 0.334-0.502 0.023-0.495z"></path>
</symbol>
<symbol id="icon-tabl" viewBox="0 0 32 32">
  <path d="M0 0h32v9.412h-32v-9.412z"></path>
  <path d="M0 11.294h32v9.412h-32v-9.412z"></path>
  <path d="M0 22.588h32v9.412h-32v-9.412z"></path>
</symbol>
<symbol id="icon-tile" viewBox="0 0 32 32">
  <path d="M0 0h9.412v9.412h-9.412v-9.412z"></path>
  <path d="M0 11.294h9.412v9.412h-9.412v-9.412z"></path>
  <path d="M0 22.588h9.412v9.412h-9.412v-9.412z"></path>
  <path d="M11.294 0h9.412v9.412h-9.412v-9.412z"></path>
  <path d="M11.294 11.294h9.412v9.412h-9.412v-9.412z"></path>
  <path d="M11.294 22.588h9.412v9.412h-9.412v-9.412z"></path>
  <path d="M22.589 0h9.412v9.412h-9.412v-9.412z"></path>
  <path d="M22.589 11.294h9.412v9.412h-9.412v-9.412z"></path>
  <path d="M22.589 22.588h9.412v9.412h-9.412v-9.412z"></path>
</symbol>
<symbol id="icon-check" viewBox="0 0 32 32">
  <path fill="#fff" style="fill: var(--color4, #fff)" d="M28.175 6.492c0.833 0.833 0.833 2.184 0 3.017l-14.667 14.667c-0.833 0.833-2.184 0.833-3.017 0l-6.667-6.667c-0.833-0.833-0.833-2.184 0-3.017s2.184-0.833 3.017 0l5.158 5.158 13.158-13.158c0.833-0.833 2.184-0.833 3.017 0z"></path>
</symbol>
<symbol id="icon-chevron" viewBox="0 0 32 32">
  <path d="M7.057 11.057c0.521-0.521 1.365-0.521 1.886 0l7.057 7.057 7.057-7.057c0.521-0.521 1.365-0.521 1.886 0s0.521 1.365 0 1.886l-8 8c-0.521 0.521-1.365 0.521-1.886 0l-8-8c-0.521-0.521-0.521-1.365 0-1.886z"></path>
</symbol>
<symbol id="icon-like" viewBox="0 0 32 32">
  <path fill="#fff" style="fill: var(--color4, #fff)" d="M23.667 1.333c-3.549 0-6.481 3.44-7.667 5.064-1.186-1.624-4.117-5.064-7.667-5.064-4.595 0-8.333 4.408-8.333 9.826 0 2.956 1.124 5.711 3.092 7.596 0.029 0.052 0.064 0.099 0.105 0.142l12.332 12.842c0.13 0.135 0.3 0.203 0.471 0.203s0.341-0.068 0.471-0.204l12.874-13.425c0.104-0.103 0.207-0.207 0.322-0.34 0.048-0.050 0.088-0.105 0.119-0.166 1.429-1.826 2.214-4.181 2.214-6.649 0-5.418-3.738-9.826-8.333-9.826z"></path>
</symbol>
<symbol id="icon-search" viewBox="0 0 32 32">
  <path d="M13.511 1.867c-6.431 0-11.644 5.213-11.644 11.644s5.213 11.644 11.644 11.644c6.431 0 11.644-5.213 11.644-11.644s-5.213-11.644-11.644-11.644zM0.267 13.511c0-7.315 5.93-13.244 13.244-13.244s13.244 5.93 13.244 13.244c0 3.37-1.258 6.445-3.33 8.782l7.007 7.007c0.312 0.312 0.312 0.819 0 1.131s-0.819 0.312-1.131 0l-7.007-7.007c-2.337 2.072-5.413 3.331-8.782 3.331-7.315 0-13.244-5.93-13.244-13.244z"></path>
</symbol>
<symbol id="icon-visa" viewBox="0 0 31 32">
  <path fill="#c56b8a" style="fill: var(--color1, #c56b8a)" d="M29.025 20.922l-0.294-1.469h-3.284l-0.522 1.459-2.632 0.005c1.253-3.013 2.509-6.025 3.767-9.036 0.214-0.511 0.594-0.771 1.155-0.768 0.428 0.004 1.127 0.004 2.098 0.001l2.035 9.804-2.322 0.004zM26.186 17.44h2.116l-0.79-3.683-1.326 3.683zM9.221 11.112l2.646 0.003-4.091 9.809-2.679-0.003c-0.674-2.591-1.339-5.184-1.996-7.779-0.131-0.517-0.389-0.879-0.887-1.050-0.735-0.246-1.474-0.482-2.215-0.708v-0.268h4.228c0.731 0 1.159 0.354 1.296 1.080 0.138 0.727 0.486 2.58 1.045 5.556l2.653-6.64zM15.504 11.114l-2.092 9.806-2.518-0.003 2.090-9.806 2.521 0.003zM20.611 10.933c0.754 0 1.703 0.235 2.249 0.451l-0.441 2.034c-0.494-0.199-1.306-0.466-1.989-0.457-0.993 0.017-1.607 0.434-1.607 0.833 0 0.65 1.066 0.978 2.163 1.689 1.253 0.81 1.417 1.537 1.401 2.328-0.017 1.64-1.401 3.259-4.322 3.259-1.332-0.020-1.813-0.132-2.9-0.517l0.46-2.122c1.106 0.464 1.575 0.611 2.521 0.611 0.866 0 1.609-0.35 1.616-0.96 0.005-0.434-0.261-0.649-1.233-1.185-0.972-0.537-2.335-1.28-2.317-2.772 0.022-1.91 1.831-3.191 4.4-3.191h-0.001z"></path>
</symbol>
<symbol id="icon-lang" viewBox="0 0 32 32">
  <path d="M24.594 8.48c-0.022-0.033-0.049-0.063-0.080-0.087-1.070-1.202-2.383-2.164-3.851-2.822s-3.060-0.999-4.669-0.999c-1.61 0-3.201 0.341-4.669 0.999s-2.781 1.62-3.851 2.822c-0.030 0.024-0.056 0.052-0.077 0.084v0.009c-1.445 1.652-2.383 3.685-2.702 5.856s-0.007 4.388 0.901 6.386c0.908 1.998 2.372 3.692 4.217 4.881s3.994 1.82 6.189 1.82 4.344-0.632 6.189-1.82c1.845-1.188 3.309-2.883 4.217-4.881s1.22-4.215 0.901-6.386-1.258-4.204-2.702-5.856l-0.011-0.005zM24.237 22.834c-0.811-0.473-1.673-0.856-2.568-1.141 0.555-1.726 0.848-3.525 0.87-5.337h4.163c-0.076 2.374-0.944 4.655-2.464 6.48v-0.002zM5.29 16.356h4.162c0.021 1.813 0.314 3.613 0.87 5.339-0.895 0.285-1.756 0.667-2.568 1.141-1.521-1.825-2.388-4.106-2.464-6.48v0zM7.781 9.135c0.807 0.469 1.664 0.849 2.554 1.132-0.563 1.737-0.861 3.549-0.882 5.375h-4.162c0.078-2.386 0.955-4.678 2.491-6.506v0zM16.353 11.115c1.569-0.022 3.128-0.241 4.643-0.65 0.535 1.674 0.816 3.419 0.836 5.177h-5.479v-4.527zM16.353 10.401v-5.091c1.811 0.202 3.393 1.926 4.393 4.482-1.434 0.382-2.909 0.586-4.393 0.609v0zM15.638 10.401c-1.484-0.022-2.959-0.227-4.393-0.609 1-2.556 2.582-4.28 4.393-4.482v5.091zM15.638 11.115v4.527h-5.471c0.017-1.757 0.296-3.502 0.829-5.177 1.514 0.409 3.074 0.627 4.643 0.65v0zM10.167 16.356h5.471v4.488c-1.569 0.023-3.129 0.243-4.643 0.653-0.528-1.663-0.807-3.396-0.829-5.141v0zM15.638 21.557v5.13c-1.818-0.204-3.414-1.942-4.407-4.518 1.438-0.384 2.918-0.59 4.407-0.612v0zM16.353 21.557c1.489 0.022 2.969 0.228 4.407 0.612-0.993 2.576-2.589 4.314-4.407 4.518v-5.13zM16.353 20.843v-4.488h5.471c-0.021 1.744-0.301 3.476-0.829 5.139-1.514-0.41-3.074-0.629-4.643-0.652v0zM22.538 15.642c-0.021-1.826-0.319-3.638-0.882-5.375 0.89-0.283 1.746-0.663 2.554-1.132 1.536 1.829 2.413 4.12 2.491 6.506h-4.163zM23.726 8.594c-0.734 0.412-1.508 0.746-2.311 1-0.659-1.692-1.573-3.056-2.645-3.94 1.889 0.509 3.603 1.526 4.955 2.94v0zM13.221 5.654c-1.071 0.878-1.984 2.246-2.643 3.94-0.803-0.253-1.577-0.588-2.311-1 1.352-1.414 3.065-2.43 4.954-2.94v0zM8.24 23.378c0.737-0.416 1.515-0.755 2.321-1.010 0.661 1.71 1.579 3.092 2.657 3.975-1.9-0.512-3.623-1.538-4.979-2.965v0zM18.776 26.343c1.071-0.893 1.996-2.265 2.657-3.975 0.807 0.256 1.585 0.594 2.322 1.010-1.357 1.428-3.082 2.453-4.984 2.965h0.005z"></path>
</symbol>
<symbol id="icon-account" viewBox="0 0 32 32">
  <path d="M16.381 15.111c-3.857 0-6.984-3.127-6.984-6.984s3.127-6.984 6.984-6.984c3.857 0 6.984 3.127 6.984 6.984s-3.127 6.984-6.984 6.984zM16.381 16.254c4.488 0 8.127-3.639 8.127-8.127s-3.639-8.127-8.127-8.127c-4.488 0-8.127 3.639-8.127 8.127s3.639 8.127 8.127 8.127z"></path>
  <path d="M30.813 30.857h-29.626c0.272-3.522 1.792-6.847 4.308-9.363 2.786-2.786 6.565-4.352 10.506-4.352s7.719 1.565 10.506 4.352c2.516 2.516 4.036 5.84 4.308 9.363zM31.959 30.857c-0.274-3.826-1.915-7.441-4.645-10.171-3.001-3.001-7.070-4.686-11.314-4.686s-8.313 1.686-11.314 4.686c-2.73 2.73-4.372 6.345-4.645 10.171-0.027 0.379-0.041 0.76-0.041 1.143h32c0-0.383-0.014-0.764-0.041-1.143z"></path>
</symbol>
<symbol id="icon-bag" viewBox="0 0 32 32">
  <path d="M16.049 0.102c-2.96 0-5.397 2.19-5.629 4.969h-1.794c-1.63 0-2.828 1.222-3.076 2.879l-3.133 20.925c-0.246 1.646 1.342 3.023 3.080 3.023h21.080c1.751 0 3.323-1.377 3.077-3.023l-3.13-20.925c-0.239-1.599-1.399-2.879-3.077-2.879h-1.771c-0.232-2.779-2.668-4.969-5.628-4.969zM16.049 1.096c2.409 0 4.375 1.741 4.603 3.975h-9.202c0.227-2.234 2.191-3.975 4.6-3.975zM8.627 6.066h14.821c1.231 0 1.909 1.019 2.059 2.024l3.129 20.929c0.156 1.040-0.956 1.884-2.059 1.884h-21.080c-1.1 0-2.215-0.838-2.058-1.884l3.129-20.929c0.165-1.103 0.897-2.024 2.058-2.024zM20.675 10.037c0 2.438-2.063 4.412-4.626 4.412s-4.623-1.974-4.623-4.412c0-0.661-1.029-0.664-1.029 0 0 2.981 2.539 5.406 5.652 5.405s5.652-2.424 5.652-5.405c0-0.661-1.026-0.661-1.026 0z"></path>
  <path d="M10.324 4.969c0.283-2.787 2.744-4.969 5.726-4.969s5.441 2.182 5.725 4.969h1.674c1.745 0 2.938 1.332 3.182 2.966l3.129 20.925c0.258 1.724-1.384 3.139-3.182 3.139h-21.080c-1.784 0-3.443-1.415-3.185-3.139l3.133-20.925c0.254-1.694 1.486-2.966 3.181-2.966h1.697zM10.421 5.071c0.232-2.779 2.668-4.969 5.629-4.969s5.396 2.19 5.628 4.969h1.771c1.678 0 2.838 1.28 3.077 2.879l3.13 20.925c0.246 1.646-1.326 3.023-3.077 3.023h-21.080c-1.738 0-3.327-1.376-3.080-3.023l3.133-20.925c0.248-1.657 1.446-2.879 3.076-2.879h1.794zM20.534 4.969c-0.275-2.127-2.17-3.771-4.484-3.771s-4.207 1.644-4.481 3.771h8.966zM20.64 4.969c-0.276-2.185-2.219-3.873-4.591-3.873s-4.313 1.688-4.588 3.873c-0.004 0.034-0.008 0.068-0.012 0.102h9.202c-0.003-0.034-0.007-0.068-0.012-0.102zM23.448 6.168h-14.821c-1.088 0-1.793 0.861-1.953 1.936l-3.129 20.929c-0.072 0.481 0.147 0.92 0.524 1.243s0.906 0.524 1.43 0.524h21.080c0.525 0 1.054-0.201 1.431-0.526s0.595-0.763 0.523-1.241l-3.129-20.929c-0.147-0.983-0.8-1.936-1.954-1.936zM16.049 14.347c-2.505 0-4.517-1.929-4.517-4.31 0-0.193-0.076-0.345-0.196-0.449-0.118-0.101-0.273-0.15-0.424-0.151s-0.306 0.048-0.424 0.15c-0.12 0.103-0.196 0.256-0.196 0.45 0 3.039 2.588 5.508 5.758 5.508s5.758-2.469 5.758-5.508c0-0.193-0.076-0.345-0.196-0.448-0.118-0.101-0.272-0.15-0.423-0.15s-0.305 0.048-0.423 0.15c-0.12 0.103-0.196 0.255-0.196 0.448 0 2.381-2.015 4.31-4.52 4.31zM23.448 6.066h-14.821c-1.161 0-1.893 0.921-2.058 2.024l-3.129 20.929c-0.156 1.046 0.959 1.884 2.058 1.884h21.080c1.103 0 2.215-0.844 2.059-1.884l-3.129-20.929c-0.15-1.005-0.828-2.024-2.059-2.024zM16.049 14.449c2.563 0 4.626-1.974 4.626-4.412 0-0.661 1.026-0.661 1.026 0 0 2.981-2.539 5.405-5.652 5.405s-5.652-2.424-5.652-5.405c0-0.664 1.029-0.661 1.029 0 0 2.438 2.060 4.412 4.623 4.412z"></path>
</symbol>
<symbol id="icon-wishlist" viewBox="0 0 32 32">
  <path d="M23.221 1.839c-3.427 0-6.258 3.183-7.402 4.686-1.145-1.502-3.975-4.686-7.402-4.686-4.437 0-8.046 4.079-8.046 9.092 0 2.735 1.086 5.284 2.986 7.028 0.028 0.048 0.062 0.092 0.101 0.131l11.907 11.882c0.126 0.125 0.29 0.188 0.454 0.188s0.329-0.063 0.455-0.189l12.43-12.422c0.101-0.095 0.2-0.191 0.311-0.314 0.046-0.046 0.085-0.098 0.114-0.154 1.38-1.69 2.138-3.869 2.138-6.152 0-5.013-3.609-9.092-8.046-9.092zM28.058 16.359c-0.018 0.021-0.034 0.043-0.048 0.065-0.060 0.069-0.126 0.13-0.192 0.192l-12 11.991-11.304-11.281c-0.036-0.072-0.087-0.137-0.15-0.192-1.72-1.502-2.707-3.763-2.707-6.204 0-4.303 3.032-7.805 6.759-7.805 3.685 0 6.83 4.806 6.861 4.855 0.238 0.367 0.845 0.367 1.082 0 0.031-0.048 3.176-4.855 6.861-4.855 3.727 0 6.759 3.501 6.759 7.805 0 2.028-0.683 3.956-1.922 5.428z"></path>
</symbol>
<symbol id="icon-wish" viewBox="0 0 32 32">
  <path d="M22.571 3.429c-3.042 0-5.555 2.826-6.571 4.16-1.016-1.334-3.529-4.16-6.571-4.16-3.939 0-7.143 3.621-7.143 8.071 0 2.428 0.964 4.691 2.651 6.239 0.025 0.042 0.055 0.081 0.090 0.117l10.57 10.549c0.112 0.111 0.257 0.167 0.403 0.167s0.292-0.056 0.404-0.167l11.035-11.027c0.089-0.084 0.177-0.17 0.276-0.279 0.041-0.041 0.075-0.087 0.102-0.136 1.225-1.5 1.898-3.435 1.898-5.462 0-4.45-3.204-8.071-7.143-8.071z"></path>
</symbol>
<symbol id="icon-close" viewBox="0 0 32 32">
  <path d="M17.88 16l5.733-5.72c0.251-0.251 0.392-0.592 0.392-0.947s-0.141-0.696-0.392-0.947c-0.251-0.251-0.592-0.392-0.947-0.392s-0.696 0.141-0.947 0.392l-5.72 5.733-5.72-5.733c-0.251-0.251-0.592-0.392-0.947-0.392s-0.696 0.141-0.947 0.392c-0.251 0.251-0.392 0.592-0.392 0.947s0.141 0.696 0.392 0.947l5.733 5.72-5.733 5.72c-0.125 0.124-0.224 0.271-0.292 0.434s-0.103 0.337-0.103 0.513 0.035 0.35 0.103 0.513c0.068 0.162 0.167 0.31 0.292 0.434 0.124 0.125 0.271 0.224 0.434 0.292s0.337 0.102 0.513 0.102c0.176 0 0.35-0.035 0.513-0.102s0.31-0.167 0.434-0.292l5.72-5.733 5.72 5.733c0.124 0.125 0.271 0.224 0.434 0.292s0.337 0.102 0.513 0.102c0.176 0 0.35-0.035 0.513-0.102s0.31-0.167 0.434-0.292c0.125-0.124 0.224-0.271 0.292-0.434s0.102-0.337 0.102-0.513-0.035-0.35-0.102-0.513c-0.068-0.163-0.167-0.31-0.292-0.434l-5.733-5.72z"></path>
</symbol>
</defs>
</svg>
