<svg aria-hidden="true" style="position: absolute; width: 0; height: 0; overflow: hidden;" version="1.1" xmlns="http://www.w3.org/2000/svg" xmlns:xlink="http://www.w3.org/1999/xlink">
<defs>
<symbol id="icon-tabl" viewBox="0 0 32 32">
  <path d="M0 0h32v9.412h-32v-9.412z"></path>
  <path d="M0 11.294h32v9.412h-32v-9.412z"></path>
  <path d="M0 22.588h32v9.412h-32v-9.412z"></path>
</symbol>
<symbol id="icon-tile" viewBox="0 0 32 32">
  <path d="M0 0h9.412v9.412h-9.412v-9.412z"></path>
  <path d="M0 11.294h9.412v9.412h-9.412v-9.412z"></path>
  <path d="M0 22.588h9.412v9.412h-9.412v-9.412z"></path>
  <path d="M11.294 0h9.412v9.412h-9.412v-9.412z"></path>
  <path d="M11.294 11.294h9.412v9.412h-9.412v-9.412z"></path>
  <path d="M11.294 22.588h9.412v9.412h-9.412v-9.412z"></path>
  <path d="M22.589 0h9.412v9.412h-9.412v-9.412z"></path>
  <path d="M22.589 11.294h9.412v9.412h-9.412v-9.412z"></path>
  <path d="M22.589 22.588h9.412v9.412h-9.412v-9.412z"></path>
</symbol>
<symbol id="icon-check" viewBox="0 0 32 32">
  <path fill="#fff" style="fill: var(--color4, #fff)" d="M28.175 6.492c0.833 0.833 0.833 2.184 0 3.017l-14.667 14.667c-0.833 0.833-2.184 0.833-3.017 0l-6.667-6.667c-0.833-0.833-0.833-2.184 0-3.017s2.184-0.833 3.017 0l5.158 5.158 13.158-13.158c0.833-0.833 2.184-0.833 3.017 0z"></path>
</symbol>
<symbol id="icon-chevron" viewBox="0 0 32 32">
  <path d="M7.057 11.057c0.521-0.521 1.365-0.521 1.886 0l7.057 7.057 7.057-7.057c0.521-0.521 1.365-0.521 1.886 0s0.521 1.365 0 1.886l-8 8c-0.521 0.521-1.365 0.521-1.886 0l-8-8c-0.521-0.521-0.521-1.365 0-1.886z"></path>
</symbol>
<symbol id="icon-like" viewBox="0 0 32 32">
  <path fill="#fff" style="fill: var(--color4, #fff)" d="M23.667 1.333c-3.549 0-6.481 3.44-7.667 5.064-1.186-1.624-4.117-5.064-7.667-5.064-4.595 0-8.333 4.408-8.333 9.826 0 2.956 1.124 5.711 3.092 7.596 0.029 0.052 0.064 0.099 0.105 0.142l12.332 12.842c0.13 0.135 0.3 0.203 0.471 0.203s0.341-0.068 0.471-0.204l12.874-13.425c0.104-0.103 0.207-0.207 0.322-0.34 0.048-0.050 0.088-0.105 0.119-0.166 1.429-1.826 2.214-4.181 2.214-6.649 0-5.418-3.738-9.826-8.333-9.826z"></path>
</symbol>
<symbol id="icon-search" viewBox="0 0 32 32">
  <path d="M13.511 1.867c-6.431 0-11.644 5.213-11.644 11.644s5.213 11.644 11.644 11.644c6.431 0 11.644-5.213 11.644-11.644s-5.213-11.644-11.644-11.644zM0.267 13.511c0-7.315 5.93-13.244 13.244-13.244s13.244 5.93 13.244 13.244c0 3.37-1.258 6.445-3.33 8.782l7.007 7.007c0.312 0.312 0.312 0.819 0 1.131s-0.819 0.312-1.131 0l-7.007-7.007c-2.337 2.072-5.413 3.331-8.782 3.331-7.315 0-13.244-5.93-13.244-13.244z"></path>
</symbol>
<symbol id="icon-lang" viewBox="0 0 32 32">
  <path d="M24.594 8.48c-0.022-0.033-0.049-0.063-0.080-0.087-1.070-1.202-2.383-2.164-3.851-2.822s-3.060-0.999-4.669-0.999c-1.61 0-3.201 0.341-4.669 0.999s-2.781 1.62-3.851 2.822c-0.030 0.024-0.056 0.052-0.077 0.084v0.009c-1.445 1.652-2.383 3.685-2.702 5.856s-0.007 4.388 0.901 6.386c0.908 1.998 2.372 3.692 4.217 4.881s3.994 1.82 6.189 1.82 4.344-0.632 6.189-1.82c1.845-1.188 3.309-2.883 4.217-4.881s1.22-4.215 0.901-6.386-1.258-4.204-2.702-5.856l-0.011-0.005zM24.237 22.834c-0.811-0.473-1.673-0.856-2.568-1.141 0.555-1.726 0.848-3.525 0.87-5.337h4.163c-0.076 2.374-0.944 4.655-2.464 6.48v-0.002zM5.29 16.356h4.162c0.021 1.813 0.314 3.613 0.87 5.339-0.895 0.285-1.756 0.667-2.568 1.141-1.521-1.825-2.388-4.106-2.464-6.48v0zM7.781 9.135c0.807 0.469 1.664 0.849 2.554 1.132-0.563 1.737-0.861 3.549-0.882 5.375h-4.162c0.078-2.386 0.955-4.678 2.491-6.506v0zM16.353 11.115c1.569-0.022 3.128-0.241 4.643-0.65 0.535 1.674 0.816 3.419 0.836 5.177h-5.479v-4.527zM16.353 10.401v-5.091c1.811 0.202 3.393 1.926 4.393 4.482-1.434 0.382-2.909 0.586-4.393 0.609v0zM15.638 10.401c-1.484-0.022-2.959-0.227-4.393-0.609 1-2.556 2.582-4.28 4.393-4.482v5.091zM15.638 11.115v4.527h-5.471c0.017-1.757 0.296-3.502 0.829-5.177 1.514 0.409 3.074 0.627 4.643 0.65v0zM10.167 16.356h5.471v4.488c-1.569 0.023-3.129 0.243-4.643 0.653-0.528-1.663-0.807-3.396-0.829-5.141v0zM15.638 21.557v5.13c-1.818-0.204-3.414-1.942-4.407-4.518 1.438-0.384 2.918-0.59 4.407-0.612v0zM16.353 21.557c1.489 0.022 2.969 0.228 4.407 0.612-0.993 2.576-2.589 4.314-4.407 4.518v-5.13zM16.353 20.843v-4.488h5.471c-0.021 1.744-0.301 3.476-0.829 5.139-1.514-0.41-3.074-0.629-4.643-0.652v0zM22.538 15.642c-0.021-1.826-0.319-3.638-0.882-5.375 0.89-0.283 1.746-0.663 2.554-1.132 1.536 1.829 2.413 4.12 2.491 6.506h-4.163zM23.726 8.594c-0.734 0.412-1.508 0.746-2.311 1-0.659-1.692-1.573-3.056-2.645-3.94 1.889 0.509 3.603 1.526 4.955 2.94v0zM13.221 5.654c-1.071 0.878-1.984 2.246-2.643 3.94-0.803-0.253-1.577-0.588-2.311-1 1.352-1.414 3.065-2.43 4.954-2.94v0zM8.24 23.378c0.737-0.416 1.515-0.755 2.321-1.010 0.661 1.71 1.579 3.092 2.657 3.975-1.9-0.512-3.623-1.538-4.979-2.965v0zM18.776 26.343c1.071-0.893 1.996-2.265 2.657-3.975 0.807 0.256 1.585 0.594 2.322 1.010-1.357 1.428-3.082 2.453-4.984 2.965h0.005z"></path>
</symbol>
<symbol id="icon-account" viewBox="0 0 32 32">
  <path d="M16.381 15.111c-3.857 0-6.984-3.127-6.984-6.984s3.127-6.984 6.984-6.984c3.857 0 6.984 3.127 6.984 6.984s-3.127 6.984-6.984 6.984zM16.381 16.254c4.488 0 8.127-3.639 8.127-8.127s-3.639-8.127-8.127-8.127c-4.488 0-8.127 3.639-8.127 8.127s3.639 8.127 8.127 8.127z"></path>
  <path d="M30.813 30.857h-29.626c0.272-3.522 1.792-6.847 4.308-9.363 2.786-2.786 6.565-4.352 10.506-4.352s7.719 1.565 10.506 4.352c2.516 2.516 4.036 5.84 4.308 9.363zM31.959 30.857c-0.274-3.826-1.915-7.441-4.645-10.171-3.001-3.001-7.070-4.686-11.314-4.686s-8.313 1.686-11.314 4.686c-2.73 2.73-4.372 6.345-4.645 10.171-0.027 0.379-0.041 0.76-0.041 1.143h32c0-0.383-0.014-0.764-0.041-1.143z"></path>
</symbol>
<symbol id="icon-bag" viewBox="0 0 32 32">
  <path d="M16.049 0.102c-2.96 0-5.397 2.19-5.629 4.969h-1.794c-1.63 0-2.828 1.222-3.076 2.879l-3.133 20.925c-0.246 1.646 1.342 3.023 3.080 3.023h21.080c1.751 0 3.323-1.377 3.077-3.023l-3.13-20.925c-0.239-1.599-1.399-2.879-3.077-2.879h-1.771c-0.232-2.779-2.668-4.969-5.628-4.969zM16.049 1.096c2.409 0 4.375 1.741 4.603 3.975h-9.202c0.227-2.234 2.191-3.975 4.6-3.975zM8.627 6.066h14.821c1.231 0 1.909 1.019 2.059 2.024l3.129 20.929c0.156 1.040-0.956 1.884-2.059 1.884h-21.080c-1.1 0-2.215-0.838-2.058-1.884l3.129-20.929c0.165-1.103 0.897-2.024 2.058-2.024zM20.675 10.037c0 2.438-2.063 4.412-4.626 4.412s-4.623-1.974-4.623-4.412c0-0.661-1.029-0.664-1.029 0 0 2.981 2.539 5.406 5.652 5.405s5.652-2.424 5.652-5.405c0-0.661-1.026-0.661-1.026 0z"></path>
  <path d="M10.324 4.969c0.283-2.787 2.744-4.969 5.726-4.969s5.441 2.182 5.725 4.969h1.674c1.745 0 2.938 1.332 3.182 2.966l3.129 20.925c0.258 1.724-1.384 3.139-3.182 3.139h-21.080c-1.784 0-3.443-1.415-3.185-3.139l3.133-20.925c0.254-1.694 1.486-2.966 3.181-2.966h1.697zM10.421 5.071c0.232-2.779 2.668-4.969 5.629-4.969s5.396 2.19 5.628 4.969h1.771c1.678 0 2.838 1.28 3.077 2.879l3.13 20.925c0.246 1.646-1.326 3.023-3.077 3.023h-21.080c-1.738 0-3.327-1.376-3.080-3.023l3.133-20.925c0.248-1.657 1.446-2.879 3.076-2.879h1.794zM20.534 4.969c-0.275-2.127-2.17-3.771-4.484-3.771s-4.207 1.644-4.481 3.771h8.966zM20.64 4.969c-0.276-2.185-2.219-3.873-4.591-3.873s-4.313 1.688-4.588 3.873c-0.004 0.034-0.008 0.068-0.012 0.102h9.202c-0.003-0.034-0.007-0.068-0.012-0.102zM23.448 6.168h-14.821c-1.088 0-1.793 0.861-1.953 1.936l-3.129 20.929c-0.072 0.481 0.147 0.92 0.524 1.243s0.906 0.524 1.43 0.524h21.080c0.525 0 1.054-0.201 1.431-0.526s0.595-0.763 0.523-1.241l-3.129-20.929c-0.147-0.983-0.8-1.936-1.954-1.936zM16.049 14.347c-2.505 0-4.517-1.929-4.517-4.31 0-0.193-0.076-0.345-0.196-0.449-0.118-0.101-0.273-0.15-0.424-0.151s-0.306 0.048-0.424 0.15c-0.12 0.103-0.196 0.256-0.196 0.45 0 3.039 2.588 5.508 5.758 5.508s5.758-2.469 5.758-5.508c0-0.193-0.076-0.345-0.196-0.448-0.118-0.101-0.272-0.15-0.423-0.15s-0.305 0.048-0.423 0.15c-0.12 0.103-0.196 0.255-0.196 0.448 0 2.381-2.015 4.31-4.52 4.31zM23.448 6.066h-14.821c-1.161 0-1.893 0.921-2.058 2.024l-3.129 20.929c-0.156 1.046 0.959 1.884 2.058 1.884h21.080c1.103 0 2.215-0.844 2.059-1.884l-3.129-20.929c-0.15-1.005-0.828-2.024-2.059-2.024zM16.049 14.449c2.563 0 4.626-1.974 4.626-4.412 0-0.661 1.026-0.661 1.026 0 0 2.981-2.539 5.405-5.652 5.405s-5.652-2.424-5.652-5.405c0-0.664 1.029-0.661 1.029 0 0 2.438 2.060 4.412 4.623 4.412z"></path>
</symbol>
<symbol id="icon-wishlist" viewBox="0 0 32 32">
  <path d="M23.221 1.839c-3.427 0-6.258 3.183-7.402 4.686-1.145-1.502-3.975-4.686-7.402-4.686-4.437 0-8.046 4.079-8.046 9.092 0 2.735 1.086 5.284 2.986 7.028 0.028 0.048 0.062 0.092 0.101 0.131l11.907 11.882c0.126 0.125 0.29 0.188 0.454 0.188s0.329-0.063 0.455-0.189l12.43-12.422c0.101-0.095 0.2-0.191 0.311-0.314 0.046-0.046 0.085-0.098 0.114-0.154 1.38-1.69 2.138-3.869 2.138-6.152 0-5.013-3.609-9.092-8.046-9.092zM28.058 16.359c-0.018 0.021-0.034 0.043-0.048 0.065-0.060 0.069-0.126 0.13-0.192 0.192l-12 11.991-11.304-11.281c-0.036-0.072-0.087-0.137-0.15-0.192-1.72-1.502-2.707-3.763-2.707-6.204 0-4.303 3.032-7.805 6.759-7.805 3.685 0 6.83 4.806 6.861 4.855 0.238 0.367 0.845 0.367 1.082 0 0.031-0.048 3.176-4.855 6.861-4.855 3.727 0 6.759 3.501 6.759 7.805 0 2.028-0.683 3.956-1.922 5.428z"></path>
</symbol>
<symbol id="icon-wish" viewBox="0 0 32 32">
  <path d="M22.571 3.429c-3.042 0-5.555 2.826-6.571 4.16-1.016-1.334-3.529-4.16-6.571-4.16-3.939 0-7.143 3.621-7.143 8.071 0 2.428 0.964 4.691 2.651 6.239 0.025 0.042 0.055 0.081 0.090 0.117l10.57 10.549c0.112 0.111 0.257 0.167 0.403 0.167s0.292-0.056 0.404-0.167l11.035-11.027c0.089-0.084 0.177-0.17 0.276-0.279 0.041-0.041 0.075-0.087 0.102-0.136 1.225-1.5 1.898-3.435 1.898-5.462 0-4.45-3.204-8.071-7.143-8.071z"></path>
</symbol>
<symbol id="icon-close" viewBox="0 0 32 32">
  <path d="M17.88 16l5.733-5.72c0.251-0.251 0.392-0.592 0.392-0.947s-0.141-0.696-0.392-0.947c-0.251-0.251-0.592-0.392-0.947-0.392s-0.696 0.141-0.947 0.392l-5.72 5.733-5.72-5.733c-0.251-0.251-0.592-0.392-0.947-0.392s-0.696 0.141-0.947 0.392c-0.251 0.251-0.392 0.592-0.392 0.947s0.141 0.696 0.392 0.947l5.733 5.72-5.733 5.72c-0.125 0.124-0.224 0.271-0.292 0.434s-0.103 0.337-0.103 0.513 0.035 0.35 0.103 0.513c0.068 0.162 0.167 0.31 0.292 0.434 0.124 0.125 0.271 0.224 0.434 0.292s0.337 0.102 0.513 0.102c0.176 0 0.35-0.035 0.513-0.102s0.31-0.167 0.434-0.292l5.72-5.733 5.72 5.733c0.124 0.125 0.271 0.224 0.434 0.292s0.337 0.102 0.513 0.102c0.176 0 0.35-0.035 0.513-0.102s0.31-0.167 0.434-0.292c0.125-0.124 0.224-0.271 0.292-0.434s0.102-0.337 0.102-0.513-0.035-0.35-0.102-0.513c-0.068-0.163-0.167-0.31-0.292-0.434l-5.733-5.72z"></path>
</symbol>
<symbol id="icon-help" viewBox="0 0 32 32">
  <path d="M16 4c-6.627 0-12 5.373-12 12s5.373 12 12 12c6.627 0 12-5.373 12-12s-5.373-12-12-12zM1.333 16c0-8.1 6.566-14.667 14.667-14.667s14.667 6.566 14.667 14.667c0 8.1-6.566 14.667-14.667 14.667s-14.667-6.566-14.667-14.667z"></path>
  <path fill="#4f4c4c" style="fill: var(--color1, #4f4c4c)" d="M16.344 10.699c-0.621-0.106-1.259 0.010-1.802 0.329s-0.955 0.82-1.164 1.414c-0.244 0.695-1.006 1.060-1.7 0.815s-1.060-1.006-0.815-1.7c0.418-1.188 1.243-2.19 2.329-2.828s2.363-0.871 3.604-0.659c1.241 0.213 2.367 0.858 3.178 1.822s1.255 2.183 1.253 3.442c-0.001 2.040-1.513 3.388-2.594 4.108-0.581 0.387-1.152 0.672-1.573 0.859-0.212 0.094-0.391 0.166-0.52 0.215-0.065 0.025-0.117 0.044-0.155 0.057l-0.046 0.016-0.023 0.008c0 0-0.001 0-0.405-1.212l0.405 1.212c-0.699 0.233-1.454-0.144-1.687-0.843s0.145-1.454 0.843-1.687l0.421 1.263c-0.421-1.263-0.421-1.263-0.421-1.263l0.020-0.007c0.021-0.007 0.054-0.020 0.099-0.037 0.090-0.034 0.224-0.088 0.386-0.16 0.329-0.146 0.758-0.362 1.177-0.641 0.919-0.613 1.406-1.265 1.406-1.891 0.001-0.63-0.221-1.242-0.627-1.723s-0.969-0.804-1.589-0.911zM15.469 16.069v0z"></path>
  <path fill="#4f4c4c" style="fill: var(--color1, #4f4c4c)" d="M14.667 22.667c0-0.736 0.597-1.333 1.333-1.333h0.013c0.736 0 1.333 0.597 1.333 1.333s-0.597 1.333-1.333 1.333h-0.013c-0.736 0-1.333-0.597-1.333-1.333z"></path>
</symbol>
<symbol id="icon-open-menu" viewBox="0 0 32 32">
  <path d="M6.4 21.333c0 0.589 0.478 1.067 1.067 1.067h17.067c0.589 0 1.067-0.478 1.067-1.067s-0.478-1.067-1.067-1.067h-17.067c-0.589 0-1.067 0.478-1.067 1.067z"></path>
  <path d="M6.4 16c0 0.589 0.478 1.067 1.067 1.067h17.067c0.589 0 1.067-0.478 1.067-1.067s-0.478-1.067-1.067-1.067h-17.067c-0.589 0-1.067 0.478-1.067 1.067z"></path>
  <path d="M7.467 9.6c-0.589 0-1.067 0.478-1.067 1.067s0.478 1.067 1.067 1.067h17.067c0.589 0 1.067-0.478 1.067-1.067s-0.478-1.067-1.067-1.067h-17.067z"></path>
</symbol>
<symbol id="icon-burger" viewBox="0 0 32 32">
  <path d="M3.5 8c0-0.276 0.224-0.5 0.5-0.5h24c0.276 0 0.5 0.224 0.5 0.5s-0.224 0.5-0.5 0.5h-24c-0.276 0-0.5-0.224-0.5-0.5z"></path>
  <path d="M3.5 16c0-0.276 0.224-0.5 0.5-0.5h16c0.276 0 0.5 0.224 0.5 0.5s-0.224 0.5-0.5 0.5h-16c-0.276 0-0.5-0.224-0.5-0.5z"></path>
  <path d="M3.5 24c0-0.276 0.224-0.5 0.5-0.5h19c0.276 0 0.5 0.224 0.5 0.5s-0.224 0.5-0.5 0.5h-19c-0.276 0-0.5-0.224-0.5-0.5z"></path>
</symbol>
<symbol id="icon-mastercard" viewBox="0 0 50 32">
  <path fill="#c56b8a" style="fill: var(--color1, #c56b8a)" d="M49.197 24.113c-0.043-0.079-0.104-0.138-0.184-0.181-0.077-0.043-0.156-0.064-0.238-0.064-0.083 0-0.162 0.022-0.239 0.064s-0.14 0.102-0.183 0.181c-0.043 0.076-0.064 0.157-0.064 0.241s0.022 0.165 0.064 0.241c0.045 0.077 0.105 0.139 0.181 0.182 0.077 0.043 0.158 0.064 0.243 0.064 0.082 0 0.163-0.022 0.24-0.064s0.136-0.105 0.18-0.182c0.042-0.076 0.064-0.158 0.064-0.241 0-0.084-0.021-0.165-0.064-0.241zM48.941 24.535h-0.106l-0.064-0.16h-0.063v0.16h-0.085v-0.407h0.17c0.021 0 0.063 0.001 0.106 0.023 0.022 0.021 0.043 0.061 0.043 0.102 0 0.045-0.021 0.087-0.063 0.106l0.063 0.177z"></path>
  <path fill="#c56b8a" style="fill: var(--color1, #c56b8a)" d="M48.815 24.211c0-0.008-0.042-0.008-0.064-0.008h-0.043v0.105h0.064c0 0 0.022 0 0.042-0.008 0.022-0.009 0.022-0.029 0.022-0.048 0-0.016 0-0.032-0.022-0.040z"></path>
  <path fill="#c56b8a" style="fill: var(--color1, #c56b8a)" d="M35.235 0.945c-3.886 0.001-7.427 1.474-10.096 3.892-2.671-2.416-6.209-3.889-10.090-3.889-0.032 0-0.064 0-0.097 0-8.263 0.054-14.953 6.776-14.953 15.050 0 8.309 6.743 15.049 15.049 15.049 3.881 0 7.419-1.472 10.089-3.889-0.558-0.504-1.062-1.061-1.539-1.645h3.109c-0.469 0.575-0.981 1.113-1.528 1.612h-0.003c0.001 0.002 0.001 0.002 0.001 0.002-0.012 0.011-0.026 0.020-0.038 0.032 2.669 2.42 6.214 3.894 10.102 3.893 8.313-0.002 15.046-6.743 15.044-15.053 0-0.003 0-0.005 0-0.007-0.002-8.311-6.742-15.047-15.050-15.047zM23.771 6.392h2.86c0.424 0.51 0.815 1.049 1.168 1.611h-5.101c0.326-0.539 0.687-1.090 1.074-1.611zM21.807 9.585h6.858c0.246 0.522 0.462 1.060 0.649 1.613h-8.32c0.082-0.156 0.373-0.783 0.813-1.613zM14.223 19.608h-1.786l1.063-5.576-2.445 5.576h-1.616l-0.298-5.538-1.063 5.538h-1.617l1.383-7.25h2.786l0.128 4.49 1.978-4.49h2.893l-1.406 7.249zM20.54 16.475l-0.383 2.094-0.063 0.375-0.043 0.299-0.022 0.201-0.021 0.16h-1.488l0.043-0.61c-0.445 0.486-1.063 0.711-1.871 0.711-0.957 0-1.617-0.657-1.617-1.608 0-1.435 1.148-2.274 3.125-2.274 0.191 0 0.447 0.018 0.723 0.046 0.043-0.194 0.064-0.275 0.064-0.383 0-0.389-0.32-0.535-1.148-0.535-0.511 0-1.085 0.061-1.467 0.163l-0.255 0.064-0.149 0.038 0.234-1.328c0.893-0.226 1.467-0.31 2.126-0.31 1.53 0 2.339 0.599 2.339 1.729 0 0.293-0.021 0.512-0.128 1.167zM24.093 13.566c1.466 0 2.403 0.834 2.403 2.141 0 0.437-0.064 0.86-0.215 1.458h-3.528c-0.022 0.090-0.022 0.131-0.022 0.187 0 0.682 0.532 1.030 1.552 1.030 0.639 0 1.213-0.114 1.85-0.374l-0.297 1.476c-0.596 0.16-1.191 0.238-1.808 0.238-1.999 0-3.041-0.907-3.041-2.644 0-2.022 1.319-3.511 3.106-3.513zM27.818 23.967h-5.34c-0.324-0.519-0.628-1.052-0.889-1.611h7.105c-0.261 0.558-0.552 1.093-0.876 1.611zM31.089 15.065c-0.468-0.054-0.935-0.086-1.298-0.086-0.575 0-0.872 0.162-0.872 0.479 0 0.276 0.085 0.343 0.83 0.642 0.913 0.358 1.276 0.833 1.276 1.642 0 1.346-0.872 1.968-2.787 1.968-0.233 0-0.551-0.018-0.977-0.049-0.213-0.016-0.382-0.032-0.49-0.054l-0.319-0.058-0.085-0.017 0.255-1.36c0.574 0.162 1.065 0.233 1.617 0.233 0.702 0 1.021-0.164 1.021-0.532 0-0.27-0.107-0.357-0.83-0.651-0.956-0.385-1.382-0.9-1.382-1.644 0-1.089 0.702-1.996 2.702-1.996 0.426 0 1.128 0.052 1.594 0.116l-0.254 1.367zM33.877 18.288c0.19 0 0.339-0.019 0.466-0.057l-0.234 1.308c-0.489 0.134-0.871 0.193-1.276 0.193-0.915 0-1.404-0.46-1.404-1.296 0-0.166 0.021-0.343 0.043-0.529l0.107-0.58 0.084-0.466 0.83-4.502h1.764l-0.254 1.354h0.914l-0.255 1.435h-0.915l-0.467 2.46c-0.022 0.107-0.022 0.188-0.022 0.243 0 0.306 0.192 0.436 0.62 0.438zM38.227 15.372c-0.85 0-1.126 0.633-1.764 4.24h-1.787l1.085-5.898h1.617l-0.17 0.895c0.553-0.697 0.977-0.958 1.552-0.958 0.064 0 0.129 0.006 0.192 0.014 0 0.003 0.065 0.014 0.152 0.035 0.021 0.006 0.041 0.006 0.191 0.064l-0.635 1.666-0.213-0.044c-0.085-0.010-0.149-0.016-0.219-0.016zM41.382 19.766c-2.025 0-2.831-1.223-2.831-2.719 0-2.088 1.382-3.505 3.508-3.505 1.852 0 2.831 1.165 2.831 2.66 0 0.367 0 0.392-0.043 0.734-0.277 1.961-1.638 2.832-3.466 2.83zM45.039 19.608c-0.255 0-0.468-0.207-0.468-0.462 0-0.251 0.213-0.458 0.468-0.458s0.468 0.207 0.468 0.458c0 0.256-0.213 0.462-0.468 0.462z"></path>
  <path fill="#c56b8a" style="fill: var(--color1, #c56b8a)" d="M45.039 18.797c-0.191 0-0.361 0.157-0.361 0.349 0 0.197 0.17 0.353 0.361 0.353 0.192 0 0.341-0.158 0.341-0.353 0-0.191-0.148-0.349-0.341-0.349zM45.208 19.351h-0.107l-0.064-0.159h-0.064v0.159h-0.085v-0.408h0.17c0.023 0 0.065 0.002 0.108 0.024 0.021 0.020 0.042 0.060 0.042 0.102 0 0.044-0.022 0.087-0.064 0.106l0.064 0.176z"></path>
  <path fill="#c56b8a" style="fill: var(--color1, #c56b8a)" d="M45.081 19.027c0.001-0.009-0.041-0.009-0.062-0.009h-0.045v0.105h0.064c0 0 0.022 0 0.042-0.008 0.022-0.009 0.022-0.029 0.022-0.047 0-0.016 0-0.032-0.022-0.040z"></path>
  <path fill="#c56b8a" style="fill: var(--color1, #c56b8a)" d="M24.071 14.917c-0.574 0-0.978 0.375-1.148 1.058l1.978 0.004c0-0.129 0-0.228 0-0.305 0-0.479-0.298-0.757-0.83-0.757z"></path>
  <path fill="#c56b8a" style="fill: var(--color1, #c56b8a)" d="M18.307 16.959c-0.998-0.001-1.509 0.301-1.509 0.897 0 0.366 0.235 0.601 0.638 0.601 0.724 0 1.233-0.604 1.276-1.477-0.192-0.020-0.277-0.022-0.405-0.022z"></path>
  <path fill="#c56b8a" style="fill: var(--color1, #c56b8a)" d="M42.019 14.984c-0.915 0-1.467 1.075-1.467 2.022 0 0.802 0.382 1.339 1.021 1.327 0.384 0 1.212-0.528 1.361-1.445 0.041-0.215 0.063-0.451 0.063-0.707 0-0.615-0.254-1.198-0.978-1.196z"></path>
</symbol>
<symbol id="icon-paypal" viewBox="0 0 120 32">
  <path fill="#c56b8a" style="fill: var(--color1, #c56b8a)" d="M23.214 5.292c-0.384-0.77-0.992-1.406-1.746-1.883-0.787-0.482-1.715-0.819-2.777-1.019-1.080-0.196-2.328-0.284-3.773-0.298l-6.673 0.005c-0.694 0.009-1.373 0.549-1.536 1.22l-4.49 19.557c-0.163 0.661 0.272 1.215 0.966 1.215h3.196c0.694 0 1.38-0.538 1.534-1.215l1.096-4.748c0.147-0.661 0.831-1.213 1.532-1.213h0.915c3.908-0.005 6.934-0.803 9.108-2.402 2.186-1.601 3.263-3.717 3.263-6.338-0.002-1.148-0.191-2.111-0.614-2.879zM16.322 11.681c-0.966 0.708-2.309 1.061-4.041 1.061h-0.782c-0.696 0-1.122-0.549-0.971-1.22l0.961-4.152c0.135-0.666 0.836-1.217 1.522-1.213l1.047-0.007c1.222 0 2.155 0.212 2.779 0.621 0.617 0.405 0.926 1.050 0.922 1.904 0.019 1.299-0.477 2.297-1.438 3.005z"></path>
  <path fill="#c56b8a" style="fill: var(--color1, #c56b8a)" d="M114.317 3.623l-0.2 0.061-0.268 0.037-0.328-0.051-0.168-0.163-0.077-0.256-0.005-0.384v-1.422h1.068v-0.44h-1.068v-0.887h-0.529v0.887h-0.358v0.44h0.358v1.655l0.247 0.819 0.726 0.261 0.305-0.026 0.324-0.063v-0.468h-0.028z"></path>
  <path fill="#c56b8a" style="fill: var(--color1, #c56b8a)" d="M119.273 1.23l-0.763-0.314-0.563 0.114-0.573 0.386-0.333-0.37-0.54-0.128-0.519 0.114-0.491 0.317v-0.345h-0.519v3.107h0.517v-2.321l0.435-0.27 0.433-0.107 0.354 0.063 0.175 0.179 0.077 0.298 0.026 0.384v1.776h0.519v-1.988l-0.009-0.165-0.009-0.151 0.442-0.282 0.438-0.109 0.342 0.063 0.186 0.179 0.065 0.3 0.035 0.379v1.776h0.521v-2.018l-0.245-0.868z"></path>
  <path fill="#c56b8a" style="fill: var(--color1, #c56b8a)" d="M38.625 8.087c-1.206-0.68-3.11-1.019-5.712-1.019-1.287 0-2.57 0.1-3.866 0.3-0.957 0.147-1.050 0.175-1.639 0.303-1.215 0.265-1.406 1.478-1.406 1.478l-0.391 1.608c-0.221 1.026 0.37 0.987 0.617 0.901 0.531-0.158 0.826-0.321 1.911-0.563 1.036-0.235 2.127-0.412 2.993-0.4 1.278 0 2.255 0.135 2.907 0.41 0.642 0.279 0.963 0.759 0.963 1.452l-0.056 0.452-0.461 0.284c-1.813 0.114-3.124 0.282-4.714 0.512-1.555 0.216-2.919 0.596-4.052 1.115-1.217 0.535-2.12 1.255-2.751 2.169-0.61 0.919-0.915 2.034-0.915 3.342 0 1.231 0.442 2.248 1.301 3.035 0.864 0.773 2.004 1.15 3.368 1.15 0.863-0.005 1.531-0.072 2.006-0.186l1.548-0.533 1.31-0.726 1.206-0.796 0.016 0.023-0.121 0.512-0.007 0.021v0.005c-0.13 0.624 0.247 1.136 0.854 1.196l0.012 0.014h2.968l0.042-0.019c0.638-0.074 1.236-0.587 1.376-1.196l2.33-10.086 0.121-0.822 0.056-0.77c0.009-1.429-0.607-2.488-1.815-3.166zM33.472 19.427l-0.498 0.656-1.257 0.649c-0.591 0.24-1.152 0.361-1.671 0.361-0.787 0-1.403-0.114-1.82-0.347l-0.617-1.199c0-0.649 0.149-1.164 0.468-1.56l1.355-0.922c0.579-0.196 1.287-0.361 2.106-0.475 0.731-0.091 2.174-0.256 2.363-0.261l0.221 0.389c-0.044 0.221-0.454 1.934-0.649 2.707z"></path>
  <path fill="#c56b8a" style="fill: var(--color1, #c56b8a)" d="M96.672 8.101c-1.213-0.68-3.114-1.022-5.71-1.022-1.287 0-2.572 0.1-3.864 0.307-0.959 0.14-1.054 0.17-1.646 0.296-1.213 0.263-1.401 1.48-1.401 1.48l-0.391 1.606c-0.219 1.026 0.358 0.98 0.629 0.901 0.533-0.158 0.819-0.314 1.895-0.566 1.031-0.233 2.132-0.405 3-0.4 1.273 0 2.251 0.137 2.9 0.412 0.647 0.279 0.963 0.763 0.963 1.45l-0.049 0.449-0.456 0.291c-1.832 0.109-3.145 0.277-4.718 0.507-1.55 0.216-2.919 0.594-4.055 1.115-1.213 0.538-2.127 1.257-2.751 2.174-0.617 0.919-0.917 2.032-0.917 3.328 0 1.241 0.438 2.258 1.308 3.040 0.868 0.77 1.997 1.157 3.361 1.157 0.859-0.009 1.527-0.065 2.004-0.189l1.543-0.526 1.322-0.726 1.196-0.805 0.021 0.026-0.11 0.517-0.011 0.009 0.005 0.009c-0.144 0.624 0.235 1.141 0.85 1.196l0.005 0.012h0.056c0.403 0 1.795 0 2.458 0h0.451l0.049-0.016c0.631-0.077 1.227-0.589 1.359-1.206l2.337-10.072 0.123-0.826 0.067-0.773c0.002-1.425-0.607-2.479-1.825-3.156zM91.53 19.441l-0.519 0.663-1.245 0.645c-0.591 0.237-1.154 0.361-1.664 0.361-0.812 0-1.413-0.116-1.818-0.349l-0.624-1.194c0-0.652 0.151-1.161 0.456-1.564 0.309-0.379 0.782-0.691 1.369-0.919 0.573-0.196 1.28-0.354 2.104-0.473 0.726-0.091 2.165-0.261 2.351-0.263l0.226 0.389c-0.033 0.221-0.445 1.927-0.635 2.705z"></path>
  <path fill="#c56b8a" style="fill: var(--color1, #c56b8a)" d="M81.251 5.363c-0.4-0.775-1.001-1.401-1.76-1.89-0.777-0.484-1.699-0.824-2.777-1.019-1.059-0.189-2.323-0.291-3.759-0.293l-6.683 0.005c-0.696 0.012-1.364 0.552-1.525 1.215l-4.495 19.566c-0.163 0.663 0.284 1.213 0.964 1.213l3.201-0.005c0.679 0.005 1.375-0.54 1.536-1.21l1.082-4.751c0.158-0.661 0.845-1.217 1.536-1.213h0.915c3.913 0 6.946-0.805 9.129-2.4 2.158-1.613 3.249-3.724 3.249-6.347-0.011-1.143-0.209-2.109-0.614-2.87zM74.359 11.762c-0.964 0.694-2.309 1.047-4.031 1.047h-0.796c-0.687 0.007-1.131-0.552-0.978-1.217l0.969-4.146c0.142-0.663 0.835-1.22 1.527-1.213l1.036-0.007c1.229 0.007 2.151 0.21 2.779 0.619 0.626 0.41 0.922 1.052 0.929 1.904 0.007 1.299-0.475 2.3-1.434 3.012z"></path>
  <path fill="#c56b8a" style="fill: var(--color1, #c56b8a)" d="M108.654 3.536c0.147-0.668-0.272-1.21-0.959-1.201h-2.863c-0.587 0-1.115 0.435-1.373 0.971l-0.158 0.247-0.144 0.633-4.001 18.188-0.13 0.559 0.005 0.014c-0.133 0.598 0.235 1.050 0.803 1.136l0.049 0.068h2.973c0.582 0 1.129-0.442 1.378-0.987l0.154-0.233 4.278-19.391-0.009-0.002z"></path>
  <path fill="#c56b8a" style="fill: var(--color1, #c56b8a)" d="M60.342 7.311c-0.757 0.009-3.831 0-3.831 0-0.689 0-1.574 0.556-2.011 1.22 0 0-4.576 7.853-5.021 8.642l-0.531-0.007-1.424-8.582c-0.158-0.675-0.864-1.252-1.741-1.252l-2.863 0.005c-0.689 0-1.113 0.549-0.957 1.22 0 0 2.174 12.371 2.609 15.283 0.202 1.606-0.026 1.892-0.026 1.892l-2.83 4.93c-0.419 0.67-0.193 1.218 0.493 1.218l3.31-0.005c0.689 0 1.594-0.542 2.004-1.215l12.732-21.535c0 0.002 1.224-1.839 0.086-1.813z"></path>
</symbol>
<symbol id="icon-visa" viewBox="0 0 90 32">
  <path fill="#c56b8a" style="fill: var(--color1, #c56b8a)" d="M83.3 29.817l-0.825-4.125h-9.218l-1.467 4.096-7.388 0.015c3.517-8.458 7.042-16.914 10.575-25.366 0.601-1.434 1.668-2.163 3.241-2.156 1.203 0.011 3.164 0.011 5.889 0.004l5.713 27.522-6.519 0.011zM75.332 20.042h5.94l-2.218-10.34-3.722 10.34zM27.706 2.277l7.429 0.007-11.484 27.537-7.52-0.007c-1.891-7.273-3.759-14.553-5.603-21.839-0.367-1.452-1.093-2.468-2.49-2.948-2.063-0.691-4.137-1.354-6.219-1.987v-0.752h11.869c2.053 0 3.252 0.994 3.637 3.032 0.389 2.042 1.364 7.242 2.933 15.598l7.447-18.641zM45.343 2.284l-5.874 27.529-7.069-0.007 5.867-27.529 7.077 0.007zM59.679 1.774c2.116 0 4.781 0.66 6.314 1.265l-1.239 5.709c-1.386-0.557-3.667-1.309-5.584-1.283-2.787 0.048-4.51 1.217-4.51 2.339 0 1.826 2.992 2.746 6.072 4.741 3.516 2.273 3.978 4.316 3.934 6.534-0.048 4.605-3.934 9.148-12.133 9.148-3.74-0.055-5.089-0.37-8.14-1.452l1.291-5.958c3.106 1.302 4.422 1.716 7.077 1.716 2.431 0 4.517-0.983 4.536-2.695 0.015-1.217-0.733-1.822-3.461-3.326-2.728-1.507-6.556-3.593-6.505-7.781 0.062-5.361 5.141-8.958 12.353-8.958h-0.004z"></path>
</symbol>
</defs>
</svg>
