<svg width="28" height="28" viewBox="0 0 28 28" fill="none" xmlns="http://www.w3.org/2000/svg">
<path fill-rule="evenodd" clip-rule="evenodd" d="M14.3333 13.2222C17.7084 13.2222 20.4444 10.4862 20.4444 7.11111C20.4444 3.73604 17.7084 1 14.3333 1C10.9582 1 8.22217 3.73604 8.22217 7.11111C8.22217 10.4862 10.9582 13.2222 14.3333 13.2222ZM14.3333 14.2222C18.2606 14.2222 21.4444 11.0385 21.4444 7.11111C21.4444 3.18375 18.2606 0 14.3333 0C10.4059 0 7.22217 3.18375 7.22217 7.11111C7.22217 11.0385 10.4059 14.2222 14.3333 14.2222Z" fill="#4F4C4C"/>
<path fill-rule="evenodd" clip-rule="evenodd" d="M26.9615 27C26.7239 23.918 25.3936 21.0088 23.1924 18.8076C20.7544 16.3696 17.4478 15 14 15C10.5522 15 7.24559 16.3696 4.80761 18.8076C2.60644 21.0088 1.27615 23.918 1.03849 27L26.9615 27ZM27.9643 27C27.7247 23.6525 26.2883 20.4893 23.8995 18.1005C21.274 15.475 17.713 14 14 14C10.287 14 6.72602 15.475 4.10051 18.1005C1.71171 20.4893 0.275319 23.6525 0.0357309 27C0.0119896 27.3317 0 27.6652 0 28L28 28C28 27.6652 27.988 27.3317 27.9643 27Z" fill="#4F4C4C"/>
</svg>
