<svg width="28" height="28" viewBox="0 0 28 28" fill="none" xmlns="http://www.w3.org/2000/svg">
<g clip-path="url(#clip0_1522_7679)">
<path d="M14.0431 0.0894224C11.4529 0.0894224 9.32106 2.00582 9.11797 4.43719H7.54836C6.12169 4.43719 5.07383 5.5064 4.85673 6.9562L2.11498 25.2659C1.89932 26.7062 3.2893 27.9106 4.81013 27.9106H23.255C24.7875 27.9106 26.1628 26.7059 25.9475 25.2659L23.2092 6.9562C23 5.55733 21.9852 4.43719 20.5167 4.43719H18.9673C18.7642 2.00584 16.6332 0.0894224 14.0431 0.0894224ZM14.0431 0.958813C16.151 0.958813 17.8715 2.4822 18.0704 4.43719H10.0184C10.2169 2.4822 11.9352 0.958796 14.0431 0.958813ZM7.54836 5.30742H20.5167C21.5938 5.30742 22.1869 6.19863 22.3185 7.07845L25.0567 25.3916C25.1928 26.3018 24.2199 27.0403 23.255 27.0403H4.81013C3.84804 27.0403 2.87245 26.3066 3.00926 25.3916L5.7475 7.07845C5.89184 6.11302 6.53231 5.30742 7.54836 5.30742ZM18.0907 8.78242C18.0907 10.9159 16.2854 12.6429 14.0431 12.6429C11.8008 12.6429 9.99817 10.916 9.99818 8.78242C9.99818 8.20419 9.09774 8.20107 9.09774 8.78242C9.09774 11.391 11.3195 13.5123 14.0431 13.5122C16.7667 13.5122 18.9884 11.391 18.9884 8.78242C18.9884 8.20419 18.0907 8.20419 18.0907 8.78242Z" fill="#4F4C4C"/>
<path fill-rule="evenodd" clip-rule="evenodd" d="M9.03326 4.34777C9.28088 1.90886 11.4342 0 14.0431 0C16.652 0 18.8044 1.90889 19.0521 4.34777H20.5167C22.0437 4.34777 23.0871 5.5136 23.3009 6.94342L26.0391 25.2531C26.2647 26.7612 24.8279 28 23.255 28H4.81013C3.24928 28 1.7974 26.7619 2.02332 25.2531L4.76507 6.94341C4.98709 5.46075 6.06489 4.34777 7.54836 4.34777H9.03326ZM9.11797 4.43719C9.32106 2.00582 11.4529 0.0894224 14.0431 0.0894224C16.6332 0.0894224 18.7642 2.00584 18.9673 4.43719H20.5167C21.9852 4.43719 23 5.55733 23.2092 6.9562L25.9475 25.2659C26.1628 26.7059 24.7875 27.9106 23.255 27.9106H4.81013C3.2893 27.9106 1.89932 26.7062 2.11498 25.2659L4.85673 6.9562C5.07383 5.5064 6.12169 4.43719 7.54836 4.43719H9.11797ZM17.9669 4.34777C17.7261 2.48639 16.0683 1.04824 14.0431 1.04824C12.0179 1.04822 10.3623 2.48634 10.1219 4.34777H17.9669ZM18.0602 4.34777C17.8188 2.43595 16.1187 0.958813 14.0431 0.958813C11.9675 0.958796 10.2696 2.43595 10.0286 4.34777C10.0248 4.37748 10.0214 4.40728 10.0184 4.43719H18.0704C18.0674 4.40728 18.064 4.37748 18.0602 4.34777ZM20.5167 5.39684H7.54836C6.59601 5.39684 5.97982 6.15049 5.83916 7.09123L3.10093 25.4043C3.03797 25.8254 3.22953 26.2094 3.55913 26.4922C3.88949 26.7757 4.35211 26.9509 4.81013 26.9509H23.255C23.7143 26.9509 24.1769 26.7746 24.5071 26.4905C24.8366 26.207 25.0276 25.823 24.965 25.4043L22.2268 7.09123C22.0983 6.23151 21.5265 5.39684 20.5167 5.39684ZM14.0431 12.5534C16.2352 12.5534 17.998 10.8656 17.998 8.78242C17.998 8.61361 18.0645 8.48043 18.1694 8.39035C18.2726 8.30172 18.4076 8.25932 18.5396 8.25932C18.6715 8.25932 18.8065 8.30172 18.9097 8.39035C19.0146 8.48043 19.0811 8.61361 19.0811 8.78242C19.0811 11.4412 16.8169 13.6017 14.0431 13.6017C11.2692 13.6017 9.00512 11.4412 9.00513 8.78242C9.00513 8.6129 9.07169 8.47928 9.17692 8.389C9.28044 8.30019 9.41583 8.25793 9.54813 8.25815C9.68042 8.25838 9.81567 8.30111 9.91905 8.38992C10.0241 8.48019 10.0908 8.61353 10.0908 8.78242C10.0908 10.8657 11.8511 12.5534 14.0431 12.5534ZM20.5167 5.30742H7.54836C6.53231 5.30742 5.89184 6.11302 5.7475 7.07845L3.00926 25.3916C2.87245 26.3066 3.84804 27.0403 4.81013 27.0403H23.255C24.2199 27.0403 25.1928 26.3018 25.0567 25.3916L22.3185 7.07845C22.1869 6.19863 21.5938 5.30742 20.5167 5.30742ZM14.0431 12.6429C16.2854 12.6429 18.0907 10.9159 18.0907 8.78242C18.0907 8.20419 18.9884 8.20419 18.9884 8.78242C18.9884 11.391 16.7667 13.5122 14.0431 13.5122C11.3195 13.5123 9.09774 11.391 9.09774 8.78242C9.09774 8.20107 9.99818 8.20419 9.99818 8.78242C9.99817 10.916 11.8008 12.6429 14.0431 12.6429Z" fill="#4F4C4C"/>
</g>
<defs>
<clipPath id="clip0_1522_7679">
<rect width="28" height="28" fill="white"/>
</clipPath>
</defs>
</svg>
