<svg width="32" height="32" viewBox="0 0 32 32" fill="none" xmlns="http://www.w3.org/2000/svg">
<path fill-rule="evenodd" clip-rule="evenodd" d="M3.5 8C3.5 7.72386 3.72386 7.5 4 7.5H28C28.2761 7.5 28.5 7.72386 28.5 8C28.5 8.27614 28.2761 8.5 28 8.5H4C3.72386 8.5 3.5 8.27614 3.5 8Z" fill="#4F4C4C"/>
<path fill-rule="evenodd" clip-rule="evenodd" d="M3.5 16C3.5 15.7239 3.72386 15.5 4 15.5H20C20.2761 15.5 20.5 15.7239 20.5 16C20.5 16.2761 20.2761 16.5 20 16.5H4C3.72386 16.5 3.5 16.2761 3.5 16Z" fill="#4F4C4C"/>
<path fill-rule="evenodd" clip-rule="evenodd" d="M3.5 24C3.5 23.7239 3.72386 23.5 4 23.5H23C23.2761 23.5 23.5 23.7239 23.5 24C23.5 24.2761 23.2761 24.5 23 24.5H4C3.72386 24.5 3.5 24.2761 3.5 24Z" fill="#4F4C4C"/>
</svg>
