<svg width="28" height="28" viewBox="0 0 28 28" fill="none" xmlns="http://www.w3.org/2000/svg">
<path d="M27.7588 0.241206C28.0804 0.562814 28.0804 1.08424 27.7588 1.40585L1.40585 27.7588C1.08424 28.0804 0.562814 28.0804 0.241206 27.7588C-0.0804021 27.4372 -0.0804021 26.9158 0.241206 26.5941L26.5941 0.241206C26.9158 -0.0804021 27.4372 -0.0804021 27.7588 0.241206Z"/>
<path d="M0.241206 0.241206C0.562814 -0.0804021 1.08424 -0.0804021 1.40585 0.241206L27.7588 26.5941C28.0804 26.9158 28.0804 27.4372 27.7588 27.7588C27.4372 28.0804 26.9158 28.0804 26.5941 27.7588L0.241206 1.40585C-0.0804021 1.08424 -0.0804021 0.562814 0.241206 0.241206Z"/>
</svg>
