<svg width="23" height="23" viewBox="0 0 23 23" fill="none" xmlns="http://www.w3.org/2000/svg">
<g clip-path="url(#clip0_2457_9524)">
<path d="M1.04134 3.99588H11.8259C12.151 5.47537 13.4722 6.58608 15.0479 6.58608C16.6236 6.58608 17.9448 5.47541 18.2698 3.99588H22.2913C22.6825 3.99588 22.9997 3.67872 22.9997 3.28755C22.9997 2.89637 22.6825 2.57921 22.2913 2.57921H18.2695C17.9438 1.10048 16.6208 -0.0109406 15.0479 -0.0109406C13.4741 -0.0109406 12.1517 1.1003 11.8262 2.57921H1.04134C0.650164 2.57921 0.333008 2.89637 0.333008 3.28755C0.333008 3.67872 0.650164 3.99588 1.04134 3.99588ZM13.1661 3.28941C13.1661 3.28688 13.1661 3.28431 13.1661 3.28179C13.1692 2.24731 14.0134 1.40577 15.0479 1.40577C16.0809 1.40577 16.9251 2.24616 16.9296 3.28015L16.9297 3.29056C16.9281 4.3268 16.0845 5.16946 15.0479 5.16946C14.0117 5.16946 13.1684 4.32765 13.1661 3.29202L13.1661 3.28941ZM22.2913 18.6708H18.2695C17.9438 17.1921 16.6208 16.0807 15.0479 16.0807C13.4741 16.0807 12.1517 17.192 11.8262 18.6708H1.04134C0.650164 18.6708 0.333008 18.9879 0.333008 19.3792C0.333008 19.7704 0.650164 20.0875 1.04134 20.0875H11.8259C12.151 21.567 13.4722 22.6777 15.0479 22.6777C16.6236 22.6777 17.9448 21.567 18.2698 20.0875H22.2913C22.6825 20.0875 22.9997 19.7704 22.9997 19.3792C22.9997 18.9879 22.6825 18.6708 22.2913 18.6708ZM15.0479 21.261C14.0117 21.261 13.1684 20.4192 13.1661 19.3836L13.1661 19.381C13.1661 19.3784 13.1661 19.3759 13.1661 19.3734C13.1692 18.3389 14.0134 17.4973 15.0479 17.4973C16.0809 17.4973 16.9251 18.3377 16.9296 19.3717L16.9297 19.3821C16.9282 20.4185 16.0846 21.261 15.0479 21.261ZM22.2913 10.625H11.5067C11.1817 9.14555 9.86049 8.03489 8.2848 8.03489C6.70911 8.03489 5.3879 9.14555 5.06286 10.625H1.04134C0.650164 10.625 0.333008 10.9422 0.333008 11.3334C0.333008 11.7246 0.650164 12.0417 1.04134 12.0417H5.06321C5.38891 13.5204 6.7119 14.6319 8.2848 14.6319C9.85854 14.6319 11.181 13.5206 11.5065 12.0417H22.2913C22.6825 12.0417 22.9997 11.7246 22.9997 11.3334C22.9997 10.9422 22.6825 10.625 22.2913 10.625ZM10.1666 11.3315C10.1666 11.3341 10.1665 11.3366 10.1665 11.3391C10.1634 12.3736 9.31932 13.2151 8.2848 13.2151C7.25174 13.2151 6.40759 12.3748 6.40311 11.3408L6.40298 11.3305C6.40453 10.2941 7.24811 9.45155 8.2848 9.45155C9.32101 9.45155 10.1643 10.2933 10.1666 11.329L10.1666 11.3315Z" fill="#4F4C4C"/>
</g>
<defs>
<clipPath id="clip0_2457_9524">
<rect width="22.6667" height="22.6667" fill="white" transform="translate(0.333008)"/>
</clipPath>
</defs>
</svg>
