<svg width="29" height="26" viewBox="0 0 29 26" fill="none" xmlns="http://www.w3.org/2000/svg">
<path d="M21.0444 0.166656C17.9386 0.166656 15.3734 3.05142 14.3361 4.41292C13.2987 3.05142 10.7335 0.166656 7.62771 0.166656C3.60708 0.166656 0.33606 3.8632 0.33606 8.40626C0.33606 10.8849 1.31989 13.1948 3.04194 14.7757C3.06699 14.819 3.09778 14.8588 3.13365 14.8947L13.9242 25.663C14.0381 25.7764 14.1868 25.8334 14.3361 25.8334C14.4853 25.8334 14.6345 25.7764 14.7485 25.6625L25.8979 14.517L26.013 14.4054C26.1042 14.3193 26.1942 14.2322 26.295 14.1206C26.3371 14.079 26.3718 14.0322 26.3986 13.9815C27.6491 12.4503 28.3361 10.4752 28.3361 8.40626C28.3361 3.8632 25.0651 0.166656 21.0444 0.166656ZM25.4279 13.3253C25.412 13.3441 25.3972 13.364 25.3841 13.3845C25.3294 13.4472 25.2696 13.5024 25.2103 13.5589L14.3355 24.4257L4.09129 14.202C4.05825 14.137 4.0121 14.0778 3.95572 14.0282C2.39652 12.6667 1.50271 10.6177 1.50271 8.40626C1.50271 4.50633 4.25021 1.33336 7.62771 1.33336C10.9671 1.33336 13.8171 5.689 13.8456 5.73286C14.0609 6.06552 14.6112 6.06552 14.8266 5.73286C14.855 5.689 17.705 1.33336 21.0444 1.33336C24.4219 1.33336 27.1694 4.50638 27.1694 8.40626C27.1694 10.244 26.5507 11.9911 25.4279 13.3253Z" fill="#4F4C4C"/>
</svg>
