<svg width="24" height="24" viewBox="0 0 24 24" fill="none" xmlns="http://www.w3.org/2000/svg">
<path d="M17.75 1C15.0879 1 12.8892 3.47266 12 4.63966C11.1108 3.47266 8.91211 1 6.24998 1C2.80373 1 0 4.16847 0 8.06252C0 10.187 0.843281 12.167 2.31933 13.522C2.3408 13.5591 2.36719 13.5933 2.39794 13.624L11.647 22.854C11.7446 22.9512 11.8721 23 12 23C12.1279 23 12.2558 22.9512 12.3535 22.8535L21.9102 13.3003L22.0088 13.2046C22.0869 13.1309 22.1641 13.0562 22.2505 12.9605C22.2866 12.9249 22.3164 12.8848 22.3394 12.8413C23.4112 11.5288 24 9.83594 24 8.06252C24 4.16847 21.1963 1 17.75 1Z"/>
</svg>
