<svg width="24" height="25" viewBox="0 0 24 25" fill="none" xmlns="http://www.w3.org/2000/svg">
<path d="M17.75 1.5C15.0879 1.5 12.8892 3.97266 12 5.13966C11.1108 3.97266 8.91211 1.5 6.24998 1.5C2.80373 1.5 0 4.66847 0 8.56252C0 10.687 0.843281 12.667 2.31933 14.022C2.3408 14.0591 2.36719 14.0933 2.39794 14.124L11.647 23.354C11.7446 23.4512 11.8721 23.5 12 23.5C12.1279 23.5 12.2558 23.4512 12.3535 23.3535L21.9102 13.8003L22.0088 13.7046C22.0869 13.6309 22.1641 13.5562 22.2505 13.4605C22.2866 13.4249 22.3164 13.3848 22.3394 13.3413C23.4112 12.0288 24 10.3359 24 8.56252C24 4.66847 21.1963 1.5 17.75 1.5Z" fill="white"/>
</svg>
