<svg width="12" height="12" viewBox="0 0 12 12" fill="none" xmlns="http://www.w3.org/2000/svg">
<g clip-path="url(#clip0_2014_9342)">
<path fill-rule="evenodd" clip-rule="evenodd" d="M6 1.5C3.51472 1.5 1.5 3.51472 1.5 6C1.5 8.48528 3.51472 10.5 6 10.5C8.48528 10.5 10.5 8.48528 10.5 6C10.5 3.51472 8.48528 1.5 6 1.5ZM0.5 6C0.5 2.96243 2.96243 0.5 6 0.5C9.03757 0.5 11.5 2.96243 11.5 6C11.5 9.03757 9.03757 11.5 6 11.5C2.96243 11.5 0.5 9.03757 0.5 6Z" fill="#4F4C4C"/>
<path fill-rule="evenodd" clip-rule="evenodd" d="M6.12914 4.01216C5.89638 3.97224 5.657 4.01598 5.4534 4.13564C5.2498 4.2553 5.09511 4.44315 5.01675 4.66593C4.92511 4.92642 4.63965 5.06331 4.37916 4.97167C4.11866 4.88004 3.98177 4.59458 4.07341 4.33408C4.23015 3.88853 4.53951 3.51282 4.94671 3.27351C5.35392 3.03419 5.83267 2.94671 6.29819 3.02656C6.76372 3.10641 7.18596 3.34843 7.49013 3.70977C7.79424 4.07103 7.96071 4.52825 7.96008 5.00046C7.95985 5.76564 7.39255 6.27095 6.98743 6.54103C6.76961 6.68624 6.55535 6.79301 6.39752 6.86316C6.3179 6.89855 6.25084 6.92541 6.20253 6.94381C6.17833 6.95303 6.15871 6.96018 6.14443 6.96525L6.12706 6.97134L6.12153 6.97322L6.11958 6.97388L6.11849 6.97425C6.11849 6.97425 6.1182 6.97435 5.96666 6.51975L6.11849 6.97425C5.85652 7.06157 5.57306 6.92009 5.48574 6.65812C5.39841 6.39615 5.53999 6.11299 5.80196 6.02566L5.95987 6.49937C5.80196 6.02566 5.80196 6.02566 5.80196 6.02566L5.80942 6.02304C5.81711 6.0203 5.82972 6.01573 5.84653 6.00932C5.88025 5.99648 5.93039 5.97646 5.99138 5.94935C6.1148 5.8945 6.27554 5.81377 6.43273 5.70898C6.77753 5.47911 6.96008 5.23457 6.96008 5.00001C6.96043 4.76385 6.87719 4.53444 6.7251 4.35377C6.57302 4.1731 6.3619 4.05209 6.12914 4.01216ZM5.80081 6.02605V6.02605Z" fill="#4F4C4C"/>
<path fill-rule="evenodd" clip-rule="evenodd" d="M5.5 8.5C5.5 8.22386 5.72386 8 6 8H6.005C6.28114 8 6.505 8.22386 6.505 8.5C6.505 8.77614 6.28114 9 6.005 9H6C5.72386 9 5.5 8.77614 5.5 8.5Z" fill="#4F4C4C"/>
</g>
<defs>
<clipPath id="clip0_2014_9342">
<rect width="12" height="12" fill="white"/>
</clipPath>
</defs>
</svg>
