<svg width="12" height="12" viewBox="0 0 12 12" fill="none" xmlns="http://www.w3.org/2000/svg">
<g clip-path="url(#clip0_40_332)">
<path d="M6 11C8.76142 11 11 8.76142 11 6C11 3.23858 8.76142 1 6 1C3.23858 1 1 3.23858 1 6C1 8.76142 3.23858 11 6 11Z" stroke="#4F4C4C" stroke-linecap="round" stroke-linejoin="round"/>
<path d="M4.54492 4.49998C4.66247 4.16581 4.8945 3.88403 5.1999 3.70455C5.5053 3.52506 5.86437 3.45945 6.21351 3.51934C6.56265 3.57922 6.87933 3.76074 7.10746 4.03174C7.33559 4.30275 7.46045 4.64574 7.45992 4.99998C7.45992 5.99998 5.95992 6.49998 5.95992 6.49998" stroke="#4F4C4C" stroke-linecap="round" stroke-linejoin="round"/>
<path d="M6 8.5H6.005" stroke="#4F4C4C" stroke-linecap="round" stroke-linejoin="round"/>
</g>
<defs>
<clipPath id="clip0_40_332">
<rect width="12" height="12" fill="white"/>
</clipPath>
</defs>
</svg>
