<svg width="28" height="28" viewBox="0 0 28 28" fill="none" xmlns="http://www.w3.org/2000/svg">
<path d="M21.5195 7.42015C21.5005 7.39089 21.4768 7.36502 21.4492 7.34362C20.5128 6.29205 19.3644 5.45048 18.0795 4.8742C16.7945 4.29793 15.4021 4 13.9938 4C12.5854 4 11.193 4.29793 9.90804 4.8742C8.62308 5.45048 7.47467 6.29205 6.53829 7.34362C6.51211 7.36434 6.48943 7.38912 6.4711 7.41703V7.42483C5.20697 8.8704 4.38605 10.6493 4.10649 12.5489C3.82693 14.4485 4.10056 16.3883 4.89466 18.1366C5.68876 19.8848 6.96974 21.3674 8.58444 22.4072C10.1991 23.447 12.0793 24 14 24C15.9207 24 17.8009 23.447 19.4156 22.4072C21.0303 21.3674 22.3112 19.8848 23.1053 18.1366C23.8994 16.3883 24.1731 14.4485 23.8935 12.5489C23.6139 10.6493 22.793 8.8704 21.5289 7.42483L21.5195 7.42015ZM21.207 19.9794C20.4971 19.5652 19.7435 19.2305 18.9602 18.9814C19.446 17.4715 19.7025 15.8973 19.7211 14.3113H23.3633C23.2966 16.3886 22.5377 18.3841 21.207 19.981V19.9794ZM4.62891 14.3113H8.2711C8.28957 15.8978 8.54607 17.4725 9.03203 18.9829C8.24865 19.232 7.49513 19.5668 6.78516 19.981C5.4545 18.3841 4.69559 16.3886 4.62891 14.3113V14.3113ZM6.8086 7.99337C7.51507 8.40385 8.26431 8.73591 9.04297 8.98362C8.54992 10.5034 8.28969 12.0889 8.2711 13.6865H4.62891C4.69701 11.5983 5.46459 9.59345 6.8086 7.99337V7.99337ZM14.3086 9.72552C15.6812 9.70608 17.0459 9.51509 18.3711 9.15699C18.8388 10.6221 19.0853 12.1487 19.1023 13.6865H14.3086V9.72552ZM14.3086 9.10076V4.6462C15.893 4.8227 17.2773 6.3315 18.1523 8.56815C16.8977 8.90236 15.6068 9.08124 14.3086 9.10076V9.10076ZM13.6836 9.10076C12.3854 9.08125 11.0944 8.90238 9.83985 8.56815C10.7148 6.3315 12.0992 4.8227 13.6836 4.6462V9.10076ZM13.6836 9.72552V13.6865H8.8961C8.91114 12.149 9.15549 10.6224 9.6211 9.15699C10.9463 9.51507 12.311 9.70606 13.6836 9.72552V9.72552ZM8.8961 14.3113H13.6836V18.2379C12.3109 18.2583 10.9461 18.4504 9.6211 18.8096C9.15891 17.3541 8.9146 15.8382 8.8961 14.3113V14.3113ZM13.6836 18.8627V23.3516C12.093 23.1735 10.6961 21.6522 9.82735 19.3984C11.0858 19.0621 12.381 18.8821 13.6836 18.8627V18.8627ZM14.3086 18.8627C15.6112 18.8821 16.9063 19.0621 18.1648 19.3984C17.2961 21.6522 15.8992 23.1735 14.3086 23.3516V18.8627ZM14.3086 18.2379V14.3113H19.0961C19.0774 15.8377 18.8331 17.353 18.3711 18.808C17.046 18.4493 15.6812 18.2578 14.3086 18.2379V18.2379ZM19.7211 13.6865C19.7025 12.0889 19.4423 10.5034 18.9492 8.98362C19.7279 8.73591 20.4771 8.40385 21.1836 7.99337C22.5276 9.59345 23.2952 11.5983 23.3633 13.6865H19.7211ZM20.7602 7.52011C20.118 7.8802 19.4405 8.1733 18.7383 8.39478C18.1617 6.91409 17.3617 5.72079 16.4242 4.94765C18.0774 5.39324 19.577 6.28291 20.7602 7.52011V7.52011ZM11.568 4.94765C10.6305 5.71611 9.83203 6.91253 9.25547 8.39478C8.55329 8.1733 7.87577 7.8802 7.2336 7.52011C8.41635 6.28315 9.91533 5.3935 11.568 4.94765V4.94765ZM7.21016 20.4558C7.8548 20.0917 8.53554 19.7954 9.24141 19.5718C9.81953 21.0681 10.6227 22.277 11.5664 23.0502C9.90349 22.6018 8.39627 21.7042 7.21016 20.4558V20.4558ZM16.4289 23.0502C17.3664 22.2692 18.1758 21.0681 18.7539 19.5718C19.4598 19.7954 20.1405 20.0917 20.7852 20.4558C19.5977 21.7049 18.0888 22.6026 16.4242 23.0502H16.4289Z" fill="#4F4C4C"/>
</svg>
