<svg width="24" height="24" viewBox="0 0 24 24" fill="none" xmlns="http://www.w3.org/2000/svg">
<path d="M17.75 1C15.0879 1 12.8892 3.58016 12 4.7979C11.1108 3.58016 8.91211 1 6.24998 1C2.80373 1 0 4.30623 0 8.36958C0 10.5865 0.843281 12.6525 2.31933 14.0664C2.3408 14.1052 2.36719 14.1408 2.39794 14.1729L11.647 23.8042C11.7446 23.9056 11.8721 23.9566 12 23.9566C12.1279 23.9566 12.2558 23.9056 12.3535 23.8037L21.9102 13.8351L22.0088 13.7352C22.0869 13.6583 22.1641 13.5803 22.2505 13.4805C22.2866 13.4433 22.3164 13.4015 22.3394 13.3562C23.4112 11.9866 24 10.2201 24 8.36958C24 4.30623 21.1963 1 17.75 1Z" fill="white"/>
</svg>
