<svg width="44" height="28" viewBox="0 0 44 28" fill="none" xmlns="http://www.w3.org/2000/svg">
<g clip-path="url(#clip0_2115_10516)">
<path d="M43.047 21.0992C43.0097 21.0301 42.9561 20.9783 42.8862 20.9411C42.8189 20.9038 42.7499 20.8848 42.6781 20.8848C42.6054 20.8848 42.5364 20.9038 42.4692 20.9411C42.4019 20.9783 42.3465 21.0301 42.3093 21.0992C42.272 21.1655 42.2529 21.2364 42.2529 21.31C42.2529 21.3836 42.272 21.4544 42.3093 21.5208C42.3483 21.588 42.401 21.6425 42.4673 21.6797C42.5346 21.717 42.6054 21.7361 42.6799 21.7361C42.7517 21.7361 42.8226 21.717 42.8898 21.6797C42.9561 21.6425 43.0088 21.588 43.047 21.5208C43.0842 21.4544 43.1033 21.3827 43.1033 21.31C43.1033 21.2364 43.0852 21.1655 43.047 21.0992ZM42.8235 21.4681H42.7308L42.6745 21.3281H42.6191V21.4681H42.5446V21.1119H42.6936C42.7117 21.1119 42.749 21.1128 42.7862 21.1319C42.8053 21.1501 42.8235 21.1855 42.8235 21.2209C42.8235 21.26 42.8053 21.2972 42.7681 21.3136L42.8235 21.4681Z" fill="#C56B8A"/>
<path d="M42.7127 21.1845C42.7127 21.1772 42.6755 21.1772 42.6564 21.1772H42.6191V21.269H42.6755C42.6755 21.269 42.6945 21.269 42.7127 21.2617C42.7318 21.2536 42.7318 21.2363 42.7318 21.2199C42.7318 21.2063 42.7318 21.1918 42.7127 21.1845Z" fill="#C56B8A"/>
<path d="M30.8309 0.827148C27.4303 0.828057 24.3322 2.11726 21.9973 4.23231C19.6605 2.11817 16.5643 0.829874 13.1682 0.829874C13.14 0.829874 13.1119 0.829874 13.0837 0.829874C5.85364 0.877118 0 6.75893 0 13.999C0 21.269 5.89998 27.1672 13.1682 27.1672C16.5643 27.1672 19.6596 25.8789 21.9964 23.7647C21.5085 23.3241 21.0669 22.8362 20.6499 22.3256H23.3701C22.9594 22.829 22.5115 23.2996 22.0327 23.7357H22.03C22.0309 23.7375 22.0309 23.7375 22.0309 23.7375C22.02 23.7475 22.0082 23.7548 21.9973 23.7657C24.3331 25.8834 27.4348 27.1726 30.8363 27.1717C38.11 27.1699 44.0018 21.2717 44 13.9999C44 13.9972 44 13.9953 44 13.9935C43.9982 6.72168 38.1009 0.827148 30.8309 0.827148ZM20.7998 5.59329H23.3019C23.6726 6.03937 24.0151 6.5109 24.324 7.00332H19.8604C20.1457 6.53179 20.4619 6.04937 20.7998 5.59329ZM19.0809 8.38701H25.0817C25.297 8.844 25.486 9.31462 25.6496 9.79795H18.3695C18.4413 9.66167 18.6957 9.11292 19.0809 8.38701ZM12.445 17.157H10.8823L11.8127 12.2782L9.6731 17.157H8.25943L7.99868 12.3109L7.06835 17.157H5.65377L6.86393 10.8137H9.30151L9.41326 14.7422L11.144 10.8137H13.6752L12.445 17.157ZM17.9725 14.416L17.6373 16.2485L17.5818 16.5765L17.5446 16.8381L17.5255 17.0144L17.5073 17.1543H16.2054L16.2427 16.621C15.8529 17.0462 15.3123 17.2433 14.6055 17.2433C13.7678 17.2433 13.1909 16.6682 13.1909 15.836C13.1909 14.5804 14.1957 13.8464 15.9256 13.8464C16.0928 13.8464 16.3163 13.8618 16.5579 13.8863C16.5952 13.7164 16.6142 13.6456 16.6142 13.5511C16.6142 13.2104 16.3344 13.0832 15.6094 13.0832C15.1624 13.0832 14.66 13.1368 14.3257 13.2258L14.1022 13.2822L13.9722 13.3158L14.1767 12.1538C14.958 11.9557 15.4604 11.8821 16.0373 11.8821C17.3765 11.8821 18.0842 12.4063 18.0842 13.3948C18.0842 13.651 18.0661 13.8427 17.9725 14.416ZM21.0815 11.8703C22.3643 11.8703 23.1838 12.5999 23.1838 13.7437C23.1838 14.1262 23.1275 14.4959 22.9957 15.0193H19.9086C19.8895 15.0983 19.8895 15.1337 19.8895 15.1828C19.8895 15.7797 20.3547 16.0841 21.2477 16.0841C21.8065 16.0841 22.3089 15.9841 22.8667 15.757L22.6069 17.0489C22.0854 17.1888 21.5648 17.257 21.0252 17.257C19.2762 17.257 18.3641 16.4638 18.3641 14.9439C18.3641 13.1749 19.5179 11.8721 21.0815 11.8703ZM24.3404 20.971H19.6678C19.3843 20.5168 19.1182 20.0507 18.8901 19.561H25.1072C24.8791 20.0489 24.6238 20.5177 24.3404 20.971ZM27.2031 13.1822C26.7934 13.135 26.3846 13.1068 26.0675 13.1068C25.5642 13.1068 25.3043 13.2485 25.3043 13.5256C25.3043 13.7673 25.3788 13.8255 26.0302 14.0871C26.8288 14.4006 27.1468 14.8158 27.1468 15.5235C27.1468 16.7009 26.3836 17.2452 24.7083 17.2452C24.5048 17.2452 24.2259 17.2297 23.8534 17.2025C23.6671 17.1888 23.5191 17.1743 23.4246 17.1552L23.1457 17.1043L23.0712 17.0898L23.2947 15.8996C23.7971 16.0414 24.2268 16.1031 24.7092 16.1031C25.3234 16.1031 25.6023 15.9596 25.6023 15.638C25.6023 15.4018 25.5087 15.3254 24.8764 15.0683C24.0396 14.7313 23.6671 14.2806 23.6671 13.6301C23.6671 12.6771 24.2813 11.8839 26.0311 11.8839C26.4036 11.8839 27.0178 11.9294 27.4257 11.9857L27.2031 13.1822ZM29.6425 16.0023C29.8088 16.0023 29.9387 15.9859 30.0505 15.9523L29.846 17.0971C29.4181 17.2143 29.0838 17.266 28.7295 17.266C27.9291 17.266 27.5011 16.8636 27.5011 16.1322C27.5011 15.9868 27.5193 15.8324 27.5384 15.6689L27.632 15.161L27.7056 14.7531L28.4315 10.8137H29.9751L29.7525 11.9984H30.552L30.3285 13.254H29.5281L29.1192 15.4063C29.1001 15.4999 29.1001 15.5707 29.1001 15.6189C29.1001 15.8869 29.2682 16.0005 29.6425 16.0023ZM33.4484 13.4502C32.7043 13.4502 32.4635 14.0044 31.9048 17.1598H30.3412L31.2906 11.9993H32.7052L32.5562 12.7825C33.0404 12.1728 33.4111 11.9439 33.9144 11.9439C33.9708 11.9439 34.0271 11.9493 34.0825 11.9566C34.0825 11.9593 34.1397 11.9693 34.2152 11.9875C34.2333 11.993 34.2515 11.993 34.3823 12.0438L33.8263 13.502L33.6401 13.4639C33.5656 13.4548 33.5101 13.4502 33.4484 13.4502ZM36.2094 17.2951C34.4377 17.2951 33.7327 16.2249 33.7327 14.9157C33.7327 13.0886 34.942 11.8485 36.8026 11.8485C38.4235 11.8485 39.2793 12.8679 39.2793 14.1761C39.2793 14.4969 39.2793 14.5187 39.242 14.8185C38.9995 16.5347 37.8084 17.2969 36.2094 17.2951ZM39.4092 17.157C39.1857 17.157 38.9995 16.9762 38.9995 16.7527C38.9995 16.5329 39.1857 16.3521 39.4092 16.3521C39.6327 16.3521 39.819 16.5329 39.819 16.7527C39.819 16.9771 39.6327 17.157 39.4092 17.157Z" fill="#C56B8A"/>
<path d="M39.4089 16.4473C39.2418 16.4473 39.0928 16.5845 39.0928 16.7525C39.0928 16.9251 39.2418 17.0614 39.4089 17.0614C39.577 17.0614 39.7069 16.9233 39.7069 16.7525C39.7069 16.5854 39.577 16.4473 39.4089 16.4473ZM39.557 16.9324H39.4635L39.4071 16.7934H39.3508V16.9324H39.2763V16.5754H39.4253C39.4453 16.5754 39.4825 16.5772 39.5198 16.5963C39.538 16.6135 39.557 16.649 39.557 16.6853C39.557 16.7235 39.538 16.7616 39.5007 16.778L39.557 16.9324Z" fill="#C56B8A"/>
<path d="M39.4456 16.6483C39.4465 16.6401 39.4093 16.6401 39.3911 16.6401H39.3521V16.7319H39.4084C39.4084 16.7319 39.4274 16.7319 39.4456 16.7246C39.4647 16.7164 39.4647 16.6992 39.4647 16.6837C39.4647 16.6701 39.4647 16.6556 39.4456 16.6483Z" fill="#C56B8A"/>
<path d="M21.0625 13.0522C20.56 13.0522 20.2066 13.3802 20.0576 13.978L21.7884 13.9817C21.7884 13.869 21.7884 13.7818 21.7884 13.7146C21.7884 13.2957 21.5276 13.0522 21.0625 13.0522Z" fill="#C56B8A"/>
<path d="M16.0183 14.8394C15.1452 14.8384 14.6982 15.1028 14.6982 15.6243C14.6982 15.945 14.9036 16.1504 15.2561 16.1504C15.8893 16.1504 16.3354 15.6216 16.3727 14.8584C16.2046 14.8412 16.1301 14.8394 16.0183 14.8394Z" fill="#C56B8A"/>
<path d="M36.7662 13.1113C35.9658 13.1113 35.4824 14.0517 35.4824 14.8802C35.4824 15.5816 35.8168 16.0522 36.3755 16.0413C36.7116 16.0413 37.4357 15.5789 37.5666 14.7767C37.6029 14.5886 37.622 14.3824 37.622 14.158C37.622 13.6201 37.3994 13.1095 36.7662 13.1113Z" fill="#C56B8A"/>
</g>
<defs>
<clipPath id="clip0_2115_10516">
<rect width="44" height="28" fill="white"/>
</clipPath>
</defs>
</svg>
