<svg width="44" height="44" viewBox="0 0 44 44" fill="none" xmlns="http://www.w3.org/2000/svg">
<g clip-path="url(#clip0_1516_8238)">
<path d="M43.0469 29.0992C43.0097 29.0301 42.9561 28.9783 42.8861 28.9411C42.8189 28.9038 42.7498 28.8848 42.6781 28.8848C42.6054 28.8848 42.5363 28.9038 42.4691 28.9411C42.4019 28.9783 42.3464 29.0301 42.3092 29.0992C42.2719 29.1655 42.2529 29.2364 42.2529 29.31C42.2529 29.3836 42.2719 29.4544 42.3092 29.5208C42.3483 29.588 42.401 29.6425 42.4673 29.6797C42.5345 29.717 42.6054 29.7361 42.6799 29.7361C42.7517 29.7361 42.8225 29.717 42.8898 29.6797C42.9561 29.6425 43.0088 29.588 43.0469 29.5208C43.0842 29.4544 43.1033 29.3827 43.1033 29.31C43.1033 29.2364 43.0851 29.1655 43.0469 29.0992ZM42.8234 29.4681H42.7308L42.6744 29.3281H42.619V29.4681H42.5445V29.1119H42.6935C42.7117 29.1119 42.7489 29.1128 42.7862 29.1319C42.8053 29.1501 42.8234 29.1855 42.8234 29.2209C42.8234 29.26 42.8053 29.2972 42.768 29.3136L42.8234 29.4681Z" fill="#C56B8A"/>
<path d="M42.7126 29.1845C42.7126 29.1772 42.6753 29.1772 42.6562 29.1772H42.619V29.269H42.6753C42.6753 29.269 42.6944 29.269 42.7126 29.2617C42.7316 29.2536 42.7316 29.2363 42.7316 29.2199C42.7316 29.2063 42.7316 29.1918 42.7126 29.1845Z" fill="#C56B8A"/>
<path d="M30.8309 8.82715C27.4303 8.82806 24.3322 10.1173 21.9973 12.2323C19.6605 10.1182 16.5643 8.82987 13.1682 8.82987C13.14 8.82987 13.1119 8.82987 13.0837 8.82987C5.85364 8.87712 0 14.7589 0 21.999C0 29.269 5.89998 35.1672 13.1682 35.1672C16.5643 35.1672 19.6596 33.8789 21.9964 31.7647C21.5085 31.3241 21.0669 30.8362 20.6499 30.3256H23.3701C22.9594 30.829 22.5115 31.2996 22.0327 31.7357H22.03C22.0309 31.7375 22.0309 31.7375 22.0309 31.7375C22.02 31.7475 22.0082 31.7548 21.9973 31.7657C24.3331 33.8834 27.4348 35.1726 30.8363 35.1717C38.11 35.1699 44.0018 29.2717 44 21.9999C44 21.9972 44 21.9953 44 21.9935C43.9982 14.7217 38.1009 8.82715 30.8309 8.82715ZM20.7998 13.5933H23.3019C23.6726 14.0394 24.0151 14.5109 24.324 15.0033H19.8604C20.1457 14.5318 20.4619 14.0494 20.7998 13.5933ZM19.0809 16.387H25.0817C25.297 16.844 25.486 17.3146 25.6496 17.798H18.3695C18.4413 17.6617 18.6957 17.1129 19.0809 16.387ZM12.445 25.157H10.8823L11.8127 20.2782L9.6731 25.157H8.25943L7.99868 20.3109L7.06835 25.157H5.65377L6.86393 18.8137H9.30151L9.41326 22.7422L11.144 18.8137H13.6752L12.445 25.157ZM17.9725 22.416L17.6373 24.2485L17.5818 24.5765L17.5446 24.8381L17.5255 25.0144L17.5073 25.1543H16.2054L16.2427 24.621C15.8529 25.0462 15.3123 25.2433 14.6055 25.2433C13.7678 25.2433 13.1909 24.6682 13.1909 23.836C13.1909 22.5804 14.1957 21.8464 15.9256 21.8464C16.0928 21.8464 16.3163 21.8618 16.5579 21.8863C16.5952 21.7164 16.6142 21.6456 16.6142 21.5511C16.6142 21.2104 16.3344 21.0832 15.6094 21.0832C15.1624 21.0832 14.66 21.1368 14.3257 21.2258L14.1022 21.2822L13.9722 21.3158L14.1767 20.1538C14.958 19.9557 15.4604 19.8821 16.0373 19.8821C17.3765 19.8821 18.0842 20.4063 18.0842 21.3948C18.0842 21.651 18.0661 21.8427 17.9725 22.416ZM21.0815 19.8703C22.3643 19.8703 23.1838 20.5999 23.1838 21.7437C23.1838 22.1262 23.1275 22.4959 22.9957 23.0193H19.9086C19.8895 23.0983 19.8895 23.1337 19.8895 23.1828C19.8895 23.7797 20.3547 24.0841 21.2477 24.0841C21.8065 24.0841 22.3089 23.9841 22.8667 23.757L22.6069 25.0489C22.0854 25.1888 21.5648 25.257 21.0252 25.257C19.2762 25.257 18.3641 24.4638 18.3641 22.9439C18.3641 21.1749 19.5179 19.8721 21.0815 19.8703ZM24.3404 28.971H19.6678C19.3843 28.5168 19.1182 28.0507 18.8901 27.561H25.1072C24.8791 28.0489 24.6238 28.5177 24.3404 28.971ZM27.2031 21.1822C26.7934 21.135 26.3846 21.1068 26.0675 21.1068C25.5642 21.1068 25.3043 21.2485 25.3043 21.5256C25.3043 21.7673 25.3788 21.8255 26.0302 22.0871C26.8288 22.4006 27.1468 22.8158 27.1468 23.5235C27.1468 24.7009 26.3836 25.2452 24.7083 25.2452C24.5048 25.2452 24.2259 25.2297 23.8534 25.2025C23.6671 25.1888 23.5191 25.1743 23.4246 25.1552L23.1457 25.1043L23.0712 25.0898L23.2947 23.8996C23.7971 24.0414 24.2268 24.1031 24.7092 24.1031C25.3234 24.1031 25.6023 23.9596 25.6023 23.638C25.6023 23.4018 25.5087 23.3254 24.8764 23.0683C24.0396 22.7313 23.6671 22.2806 23.6671 21.6301C23.6671 20.6771 24.2813 19.8839 26.0311 19.8839C26.4036 19.8839 27.0178 19.9294 27.4257 19.9857L27.2031 21.1822ZM29.6425 24.0023C29.8088 24.0023 29.9387 23.9859 30.0505 23.9523L29.846 25.0971C29.4181 25.2143 29.0838 25.266 28.7295 25.266C27.9291 25.266 27.5011 24.8636 27.5011 24.1322C27.5011 23.9868 27.5193 23.8324 27.5384 23.6689L27.632 23.161L27.7056 22.7531L28.4315 18.8137H29.9751L29.7525 19.9984H30.552L30.3285 21.254H29.5281L29.1192 23.4063C29.1001 23.4999 29.1001 23.5707 29.1001 23.6189C29.1001 23.8869 29.2682 24.0005 29.6425 24.0023ZM33.4484 21.4502C32.7043 21.4502 32.4635 22.0044 31.9048 25.1598H30.3412L31.2906 19.9993H32.7052L32.5562 20.7825C33.0404 20.1728 33.4111 19.9439 33.9144 19.9439C33.9708 19.9439 34.0271 19.9493 34.0825 19.9566C34.0825 19.9593 34.1397 19.9693 34.2152 19.9875C34.2333 19.993 34.2515 19.993 34.3823 20.0438L33.8263 21.502L33.6401 21.4639C33.5656 21.4548 33.5101 21.4502 33.4484 21.4502ZM36.2094 25.2951C34.4377 25.2951 33.7327 24.2249 33.7327 22.9157C33.7327 21.0886 34.942 19.8485 36.8026 19.8485C38.4235 19.8485 39.2793 20.8679 39.2793 22.1761C39.2793 22.4969 39.2793 22.5187 39.242 22.8185C38.9995 24.5347 37.8084 25.2969 36.2094 25.2951ZM39.4092 25.157C39.1857 25.157 38.9995 24.9762 38.9995 24.7527C38.9995 24.5329 39.1857 24.3521 39.4092 24.3521C39.6327 24.3521 39.819 24.5329 39.819 24.7527C39.819 24.9771 39.6327 25.157 39.4092 25.157Z" fill="#C56B8A"/>
<path d="M39.4092 24.4473C39.242 24.4473 39.093 24.5845 39.093 24.7525C39.093 24.9251 39.242 25.0614 39.4092 25.0614C39.5773 25.0614 39.7072 24.9233 39.7072 24.7525C39.7072 24.5854 39.5773 24.4473 39.4092 24.4473ZM39.5573 24.9324H39.4637L39.4074 24.7934H39.351V24.9324H39.2765V24.5754H39.4255C39.4455 24.5754 39.4828 24.5772 39.52 24.5963C39.5382 24.6135 39.5573 24.649 39.5573 24.6853C39.5573 24.7235 39.5382 24.7616 39.501 24.778L39.5573 24.9324Z" fill="#C56B8A"/>
<path d="M39.4456 24.6483C39.4465 24.6401 39.4092 24.6401 39.3911 24.6401H39.352V24.7319H39.4083C39.4083 24.7319 39.4274 24.7319 39.4456 24.7246C39.4647 24.7164 39.4647 24.6992 39.4647 24.6837C39.4647 24.6701 39.4647 24.6556 39.4456 24.6483Z" fill="#C56B8A"/>
<path d="M21.0625 21.0522C20.56 21.0522 20.2066 21.3802 20.0576 21.978L21.7884 21.9817C21.7884 21.869 21.7884 21.7818 21.7884 21.7146C21.7884 21.2957 21.5276 21.0522 21.0625 21.0522Z" fill="#C56B8A"/>
<path d="M16.0182 22.8394C15.1451 22.8384 14.6981 23.1028 14.6981 23.6243C14.6981 23.945 14.9034 24.1504 15.2559 24.1504C15.8892 24.1504 16.3352 23.6216 16.3725 22.8584C16.2044 22.8412 16.1299 22.8394 16.0182 22.8394Z" fill="#C56B8A"/>
<path d="M36.7662 21.1113C35.9658 21.1113 35.4825 22.0517 35.4825 22.8802C35.4825 23.5816 35.8168 24.0522 36.3756 24.0413C36.7117 24.0413 37.4358 23.5789 37.5666 22.7767C37.603 22.5886 37.622 22.3824 37.622 22.158C37.622 21.6201 37.3995 21.1095 36.7662 21.1113Z" fill="#C56B8A"/>
</g>
<defs>
<clipPath id="clip0_1516_8238">
<rect width="44" height="44" fill="white"/>
</clipPath>
</defs>
</svg>
