<svg width="45" height="12" viewBox="0 0 45 12" fill="none" xmlns="http://www.w3.org/2000/svg">
<g clip-path="url(#clip0_2115_10544)">
<path d="M8.70536 1.98436C8.56134 1.69544 8.33352 1.45715 8.05071 1.27822C7.75569 1.09754 7.40741 0.970972 7.00939 0.895906C6.60438 0.822586 6.13653 0.789417 5.59448 0.78418L3.09199 0.785926C2.83188 0.789418 2.57701 0.991919 2.51591 1.2433L0.83216 8.57706C0.771059 8.82496 0.934284 9.0327 1.1944 9.0327H2.39283C2.65295 9.0327 2.91044 8.83107 2.96805 8.57706L3.37917 6.79643C3.43416 6.54854 3.69078 6.34167 3.95351 6.34167H4.29654C5.76207 6.33993 6.89679 6.04054 7.71204 5.44088C8.53166 4.84035 8.93579 4.04693 8.93579 3.06409C8.93492 2.63377 8.86422 2.2724 8.70536 1.98436ZM6.12082 4.38036C5.75858 4.64571 5.25494 4.77838 4.60553 4.77838H4.31225C4.05127 4.77838 3.89153 4.57239 3.94827 4.321L4.30876 2.76382C4.35939 2.51419 4.62212 2.30732 4.87961 2.30906L5.2724 2.30645C5.73065 2.30645 6.08067 2.38588 6.31459 2.5395C6.5459 2.69138 6.66199 2.93316 6.66025 3.2535C6.66723 3.74055 6.48131 4.11501 6.12082 4.38036Z" fill="#C56B8A"/>
<path d="M42.869 1.35846L42.7939 1.38116L42.6935 1.39512L42.5705 1.37592L42.5076 1.31482L42.4788 1.21881L42.4771 1.07479V0.541472H42.8777V0.376502H42.4771V0.0439453H42.2789V0.376502H42.1445V0.541472H42.2789V1.16207L42.3715 1.46932L42.6438 1.56708L42.7581 1.55747L42.8795 1.53391V1.35846H42.869Z" fill="#C56B8A"/>
<path d="M44.7273 0.461096L44.441 0.343262L44.2298 0.386032L44.0151 0.530925L43.8902 0.392142L43.6877 0.344134L43.4931 0.386904L43.3089 0.505613V0.376429H43.1143V1.5417H43.308V0.671456L43.4713 0.570204L43.6336 0.530053L43.7663 0.55362L43.8318 0.62083L43.8606 0.732556L43.8702 0.876577V1.54257H44.0648V0.797147L44.0613 0.735175L44.0578 0.678439L44.2237 0.572823L44.3878 0.531799L44.5161 0.555365L44.5859 0.622577L44.6104 0.735175L44.6235 0.877451V1.54344H44.819V0.786674L44.7273 0.461096Z" fill="#C56B8A"/>
<path d="M14.4844 3.0327C14.0323 2.77783 13.3183 2.65039 12.3424 2.65039C11.8597 2.65039 11.3788 2.68792 10.8926 2.76299C10.5338 2.81798 10.4989 2.82845 10.2781 2.87646C9.82245 2.97597 9.75088 3.43073 9.75088 3.43073L9.60424 4.03387C9.52132 4.4188 9.74302 4.40396 9.83555 4.37167C10.0346 4.31231 10.1454 4.25121 10.5522 4.16044C10.9406 4.07228 11.35 4.00594 11.6747 4.0103C12.1539 4.0103 12.5205 4.06093 12.7649 4.16393C13.0058 4.26867 13.1262 4.44848 13.1262 4.70859L13.1053 4.87793L12.9325 4.98441C12.2525 5.02718 11.7611 5.09003 11.1649 5.17644C10.5818 5.25762 10.0703 5.39989 9.64526 5.59454C9.18876 5.7953 8.85009 6.06501 8.61354 6.40805C8.38485 6.75283 8.27051 7.17092 8.27051 7.66147C8.27051 8.12321 8.43635 8.50465 8.75844 8.79968C9.08227 9.08947 9.50997 9.23087 10.0215 9.23087C10.3453 9.22913 10.5958 9.20381 10.7739 9.16104L11.3543 8.96116L11.8457 8.68883L12.2979 8.39031L12.304 8.39904L12.2586 8.59107L12.256 8.59892V8.60067C12.2071 8.83459 12.3485 9.02662 12.5763 9.04932L12.5807 9.05455H12.6016H13.5208H13.6936L13.7093 9.04757C13.9485 9.01964 14.1728 8.82761 14.2252 8.59892L15.0989 4.81683L15.1443 4.50871L15.1652 4.21979C15.1687 3.68386 14.9374 3.2867 14.4844 3.0327ZM12.5519 7.28527L12.3651 7.53142L11.8937 7.77494C11.672 7.86485 11.4617 7.91024 11.267 7.91024C10.972 7.91024 10.7407 7.86747 10.5845 7.78018L10.3532 7.33066C10.3532 7.08713 10.409 6.89423 10.5286 6.74584L11.0366 6.40019C11.2539 6.32687 11.5193 6.2649 11.8265 6.22213C12.1006 6.18809 12.6418 6.12611 12.7125 6.12437L12.7954 6.27013C12.7788 6.35306 12.6252 6.99548 12.5519 7.28527Z" fill="#C56B8A"/>
<path d="M36.252 3.03797C35.7972 2.7831 35.0841 2.65479 34.1109 2.65479C33.6282 2.65479 33.1463 2.69232 32.6619 2.77C32.3023 2.82237 32.2665 2.83372 32.0448 2.88086C31.59 2.97949 31.5193 3.43599 31.5193 3.43599L31.3727 4.03827C31.2906 4.4232 31.5071 4.40574 31.6084 4.37606C31.8082 4.31671 31.9156 4.25823 32.3189 4.16396C32.7055 4.07667 33.1184 4.01208 33.444 4.01383C33.9214 4.01383 34.288 4.06533 34.5316 4.16832C34.7742 4.27307 34.8929 4.45462 34.8929 4.71211L34.8746 4.88058L34.7035 4.98968C34.0166 5.03071 33.5243 5.09355 32.9342 5.17997C32.3529 5.26114 31.8397 5.40254 31.4137 5.59806C30.959 5.7997 30.6159 6.06941 30.382 6.41332C30.1507 6.75809 30.0381 7.17532 30.0381 7.6615C30.0381 8.12674 30.2022 8.50818 30.5286 8.80146C30.8542 9.09037 31.2775 9.23527 31.789 9.23527C32.1111 9.23178 32.3616 9.21083 32.5406 9.16457L33.1193 8.9673L33.6151 8.69497L34.0637 8.39296L34.0716 8.40256L34.0305 8.59634L34.0262 8.59983L34.0279 8.60332C33.9738 8.83724 34.1161 9.03102 34.3465 9.05197L34.3483 9.05633H34.3692C34.5202 9.05633 35.0422 9.05633 35.291 9.05633H35.4603L35.4786 9.05022C35.7152 9.02142 35.9386 8.82939 35.9884 8.59808L36.8647 4.82122L36.911 4.51136L36.9363 4.22157C36.9372 3.68738 36.7085 3.29197 36.252 3.03797ZM34.3238 7.29054L34.1292 7.5393L33.6622 7.78109C33.4405 7.87012 33.2293 7.91638 33.0381 7.91638C32.7335 7.91638 32.5083 7.87274 32.3564 7.78545L32.1225 7.33767C32.1225 7.09327 32.1792 6.90212 32.2936 6.75111C32.4096 6.60884 32.5868 6.49187 32.8068 6.40633C33.0215 6.33301 33.2869 6.27366 33.5959 6.22914C33.8682 6.1951 34.4076 6.13138 34.4775 6.13051L34.5621 6.27628C34.5499 6.3592 34.3954 6.999 34.3238 7.29054Z" fill="#C56B8A"/>
<path d="M30.4692 2.01111C30.3191 1.72045 30.0939 1.48565 29.8093 1.30235C29.5178 1.1208 29.1721 0.993359 28.768 0.920038C28.3708 0.849337 27.8969 0.810931 27.3583 0.810059L24.8523 0.811803C24.5914 0.816168 24.3408 1.01867 24.2806 1.26744L22.5951 8.60469C22.534 8.85345 22.7016 9.05945 22.9565 9.05945L24.1567 9.0577C24.4115 9.05945 24.6725 8.8552 24.7328 8.60382L25.1386 6.82231C25.198 6.57442 25.4555 6.36581 25.7147 6.36755H26.0578C27.525 6.36755 28.6624 6.06554 29.4811 5.46763C30.2903 4.86274 30.6996 4.07106 30.6996 3.08735C30.6953 2.65877 30.6211 2.29654 30.4692 2.01111ZM27.8847 4.4106C27.5233 4.67071 27.0188 4.80339 26.3729 4.80339H26.0743C25.8168 4.80601 25.6501 4.59652 25.7077 4.34688L26.0709 2.79232C26.1241 2.54356 26.3842 2.33494 26.6434 2.33756L27.0319 2.33494C27.4927 2.33756 27.8384 2.4135 28.0741 2.56712C28.3089 2.72075 28.4197 2.96166 28.4223 3.28112C28.425 3.76818 28.2443 4.14351 27.8847 4.4106Z" fill="#C56B8A"/>
<path d="M40.7454 1.32593C40.8004 1.07542 40.6433 0.872041 40.3858 0.875533H39.3122C39.0922 0.875533 38.8941 1.03876 38.7972 1.23952L38.7378 1.33204L38.6837 1.56946L37.1833 8.38999L37.1344 8.59947L37.1361 8.60471C37.0864 8.82903 37.2243 8.99837 37.4373 9.03066L37.4556 9.05598H38.5703C38.7885 9.05598 38.9936 8.89013 39.087 8.68588L39.1446 8.5986L40.7489 1.3268L40.7454 1.32593Z" fill="#C56B8A"/>
<path d="M22.6282 2.7418C22.3445 2.74529 21.1915 2.7418 21.1915 2.7418C20.9331 2.7418 20.6014 2.95041 20.4373 3.19918C20.4373 3.19918 18.7213 6.14421 18.5546 6.44011L18.3555 6.4375L17.8214 3.21925C17.762 2.96612 17.4975 2.74965 17.1685 2.74965L16.0948 2.7514C15.8365 2.7514 15.6776 2.9574 15.7361 3.20878C15.7361 3.20878 16.5513 7.84804 16.7146 8.93999C16.7905 9.54227 16.705 9.64963 16.705 9.64963L15.6436 11.4983C15.4865 11.7497 15.5711 11.9549 15.8286 11.9549L17.0698 11.9531C17.3282 11.9531 17.6677 11.7497 17.8214 11.4975L22.5959 3.42176C22.5959 3.42263 23.055 2.7322 22.6282 2.7418Z" fill="#C56B8A"/>
</g>
<defs>
<clipPath id="clip0_2115_10544">
<rect width="45" height="12" fill="white"/>
</clipPath>
</defs>
</svg>
