<svg width="45" height="44" viewBox="0 0 45 44" fill="none" xmlns="http://www.w3.org/2000/svg">
<g clip-path="url(#clip0_1516_8237)">
<path d="M8.70557 17.9844C8.56155 17.6954 8.33373 17.4572 8.05093 17.2782C7.7559 17.0975 7.40763 16.971 7.0096 16.8959C6.6046 16.8226 6.13674 16.7894 5.5947 16.7842L3.09221 16.7859C2.8321 16.7894 2.57722 16.9919 2.51612 17.2433L0.832373 24.5771C0.771273 24.825 0.934498 25.0327 1.19461 25.0327H2.39305C2.65316 25.0327 2.91065 24.8311 2.96826 24.5771L3.37938 22.7964C3.43437 22.5485 3.69099 22.3417 3.95372 22.3417H4.29675C5.76229 22.3399 6.897 22.0405 7.71226 21.4409C8.53187 20.8404 8.93601 20.0469 8.93601 19.0641C8.93513 18.6338 8.86443 18.2724 8.70557 17.9844ZM6.12103 20.3804C5.75879 20.6457 5.25515 20.7784 4.60575 20.7784H4.31247C4.05148 20.7784 3.89175 20.5724 3.94848 20.321L4.30897 18.7638C4.3596 18.5142 4.62233 18.3073 4.87983 18.3091L5.27261 18.3064C5.73086 18.3064 6.08088 18.3859 6.31481 18.5395C6.54611 18.6914 6.66221 18.9332 6.66046 19.2535C6.66744 19.7406 6.48152 20.115 6.12103 20.3804Z" fill="#C56B8A"/>
<path d="M42.8693 17.3585L42.7942 17.3812L42.6939 17.3951L42.5708 17.3759L42.5079 17.3148L42.4791 17.2188L42.4774 17.0748V16.5415H42.878V16.3765H42.4774V16.0439H42.2793V16.3765H42.1448V16.5415H42.2793V17.1621L42.3718 17.4693L42.6441 17.5671L42.7584 17.5575L42.8798 17.5339V17.3585H42.8693Z" fill="#C56B8A"/>
<path d="M44.7277 16.4611L44.4414 16.3433L44.2302 16.386L44.0155 16.5309L43.8907 16.3921L43.6881 16.3441L43.4935 16.3869L43.3093 16.5056V16.3764H43.1147V17.5417H43.3084V16.6715L43.4717 16.5702L43.634 16.5301L43.7667 16.5536L43.8322 16.6208L43.861 16.7326L43.8706 16.8766V17.5426H44.0652V16.7971L44.0617 16.7352L44.0582 16.6784L44.2241 16.5728L44.3882 16.5318L44.5165 16.5554L44.5863 16.6226L44.6108 16.7352L44.6239 16.8775V17.5434H44.8194V16.7867L44.7277 16.4611Z" fill="#C56B8A"/>
<path d="M14.4848 19.0327C14.0327 18.7778 13.3187 18.6504 12.3428 18.6504C11.8601 18.6504 11.3792 18.6879 10.893 18.763C10.5343 18.818 10.4993 18.8285 10.2785 18.8765C9.82288 18.976 9.75131 19.4307 9.75131 19.4307L9.60466 20.0339C9.52174 20.4188 9.74345 20.404 9.83597 20.3717C10.035 20.3123 10.1458 20.2512 10.5526 20.1604C10.941 20.0723 11.3504 20.0059 11.6751 20.0103C12.1543 20.0103 12.5209 20.0609 12.7653 20.1639C13.0062 20.2687 13.1267 20.4485 13.1267 20.7086L13.1057 20.8779L12.9329 20.9844C12.2529 21.0272 11.7615 21.09 11.1653 21.1764C10.5823 21.2576 10.0708 21.3999 9.64569 21.5945C9.18918 21.7953 8.85051 22.065 8.61397 22.408C8.38528 22.7528 8.27094 23.1709 8.27094 23.6615C8.27094 24.1232 8.43678 24.5047 8.75886 24.7997C9.08269 25.0895 9.5104 25.2309 10.0219 25.2309C10.3457 25.2291 10.5962 25.2038 10.7743 25.161L11.3547 24.9612L11.8462 24.6888L12.2983 24.3903L12.3044 24.399L12.259 24.5911L12.2564 24.5989V24.6007C12.2075 24.8346 12.3489 25.0266 12.5768 25.0493L12.5811 25.0546H12.6021H13.5212H13.694L13.7097 25.0476C13.9489 25.0196 14.1732 24.8276 14.2256 24.5989L15.0993 20.8168L15.1447 20.5087L15.1657 20.2198C15.1691 19.6839 14.9378 19.2867 14.4848 19.0327ZM12.5523 23.2853L12.3655 23.5314L11.8942 23.7749C11.6725 23.8648 11.4621 23.9102 11.2675 23.9102C10.9724 23.9102 10.7411 23.8675 10.5849 23.7802L10.3536 23.3307C10.3536 23.0871 10.4094 22.8942 10.529 22.7458L11.037 22.4002C11.2544 22.3269 11.5197 22.2649 11.827 22.2221C12.101 22.1881 12.6422 22.1261 12.7129 22.1244L12.7958 22.2701C12.7793 22.3531 12.6256 22.9955 12.5523 23.2853Z" fill="#C56B8A"/>
<path d="M36.2522 19.038C35.7974 18.7831 35.0843 18.6548 34.1111 18.6548C33.6284 18.6548 33.1466 18.6923 32.6621 18.77C32.3025 18.8224 32.2667 18.8337 32.045 18.8809C31.5903 18.9795 31.5196 19.436 31.5196 19.436L31.3729 20.0383C31.2909 20.4232 31.5073 20.4057 31.6086 20.3761C31.8085 20.3167 31.9158 20.2582 32.3191 20.164C32.7058 20.0767 33.1186 20.0121 33.4442 20.0138C33.9217 20.0138 34.2883 20.0653 34.5318 20.1683C34.7745 20.2731 34.8932 20.4546 34.8932 20.7121L34.8748 20.8806L34.7038 20.9897C34.0168 21.0307 33.5245 21.0936 32.9345 21.18C32.3531 21.2611 31.8399 21.4025 31.4139 21.5981C30.9592 21.7997 30.6161 22.0694 30.3822 22.4133C30.1509 22.7581 30.0383 23.1753 30.0383 23.6615C30.0383 24.1267 30.2024 24.5082 30.5289 24.8015C30.8544 25.0904 31.2778 25.2353 31.7893 25.2353C32.1114 25.2318 32.3619 25.2108 32.5408 25.1646L33.1195 24.9673L33.6153 24.695L34.0639 24.393L34.0718 24.4026L34.0308 24.5963L34.0264 24.5998L34.0282 24.6033C33.974 24.8372 34.1163 25.031 34.3468 25.052L34.3485 25.0563H34.3694C34.5205 25.0563 35.0424 25.0563 35.2912 25.0563H35.4605L35.4789 25.0502C35.7154 25.0214 35.9388 24.8294 35.9886 24.5981L36.865 20.8212L36.9112 20.5114L36.9365 20.2216C36.9374 19.6874 36.7087 19.292 36.2522 19.038ZM34.3241 23.2905L34.1294 23.5393L33.6624 23.7811C33.4407 23.8701 33.2295 23.9164 33.0383 23.9164C32.7337 23.9164 32.5085 23.8727 32.3566 23.7854L32.1227 23.3377C32.1227 23.0933 32.1794 22.9021 32.2938 22.7511C32.4099 22.6088 32.5871 22.4919 32.807 22.4063C33.0218 22.333 33.2871 22.2737 33.5961 22.2291C33.8684 22.1951 34.4079 22.1314 34.4777 22.1305L34.5623 22.2763C34.5501 22.3592 34.3956 22.999 34.3241 23.2905Z" fill="#C56B8A"/>
<path d="M30.4694 18.0111C30.3193 17.7205 30.0941 17.4857 29.8095 17.3024C29.518 17.1208 29.1724 16.9934 28.7682 16.92C28.3711 16.8493 27.8971 16.8109 27.3586 16.8101L24.8526 16.8118C24.5916 16.8162 24.3411 17.0187 24.2808 17.2674L22.5954 24.6047C22.5343 24.8535 22.7018 25.0594 22.9567 25.0594L24.1569 25.0577C24.4118 25.0594 24.6728 24.8552 24.733 24.6038L25.1389 22.8223C25.1982 22.5744 25.4557 22.3658 25.715 22.3676H26.058C27.5253 22.3676 28.6626 22.0655 29.4813 21.4676C30.2905 20.8627 30.6999 20.0711 30.6999 19.0873C30.6955 18.6588 30.6213 18.2965 30.4694 18.0111ZM27.8849 20.4106C27.5235 20.6707 27.019 20.8034 26.3731 20.8034H26.0746C25.8171 20.806 25.6504 20.5965 25.708 20.3469L26.0711 18.7923C26.1243 18.5436 26.3844 18.3349 26.6437 18.3376L27.0321 18.3349C27.493 18.3376 27.8386 18.4135 28.0743 18.5671C28.3091 18.7207 28.4199 18.9617 28.4226 19.2811C28.4252 19.7682 28.2445 20.1435 27.8849 20.4106Z" fill="#C56B8A"/>
<path d="M40.7457 17.3259C40.8007 17.0754 40.6435 16.872 40.3861 16.8755H39.3124C39.0925 16.8755 38.8943 17.0388 38.7975 17.2395L38.7381 17.332L38.684 17.5695L37.1835 24.39L37.1347 24.5995L37.1364 24.6047C37.0867 24.829 37.2246 24.9984 37.4375 25.0307L37.4559 25.056H38.5705C38.7887 25.056 38.9938 24.8901 39.0872 24.6859L39.1449 24.5986L40.7492 17.3268L40.7457 17.3259Z" fill="#C56B8A"/>
<path d="M22.6285 18.7418C22.3448 18.7453 21.1918 18.7418 21.1918 18.7418C20.9334 18.7418 20.6017 18.9504 20.4376 19.1992C20.4376 19.1992 18.7216 22.1442 18.5549 22.4401L18.3559 22.4375L17.8217 19.2193C17.7623 18.9661 17.4979 18.7497 17.1688 18.7497L16.0952 18.7514C15.8368 18.7514 15.6779 18.9574 15.7364 19.2088C15.7364 19.2088 16.5517 23.848 16.7149 24.94C16.7908 25.5423 16.7053 25.6496 16.7053 25.6496L15.6439 27.4983C15.4868 27.7497 15.5715 27.9549 15.829 27.9549L17.0702 27.9531C17.3285 27.9531 17.6681 27.7497 17.8217 27.4975L22.5962 19.4218C22.5962 19.4226 23.0554 18.7322 22.6285 18.7418Z" fill="#C56B8A"/>
</g>
<defs>
<clipPath id="clip0_1516_8237">
<rect width="44" height="44" fill="white" transform="translate(0.819336)"/>
</clipPath>
</defs>
</svg>
