<svg width="20" height="20" viewBox="0 0 20 20" fill="none" xmlns="http://www.w3.org/2000/svg">
<g clip-path="url(#clip0_1516_7824)">
<path fill-rule="evenodd" clip-rule="evenodd" d="M8.44445 1.16666C4.42504 1.16666 1.16667 4.42503 1.16667 8.44443C1.16667 12.4638 4.42504 15.7222 8.44445 15.7222C12.4639 15.7222 15.7222 12.4638 15.7222 8.44443C15.7222 4.42503 12.4639 1.16666 8.44445 1.16666ZM0.166672 8.44443C0.166672 3.87274 3.87276 0.166656 8.44445 0.166656C13.0161 0.166656 16.7222 3.87274 16.7222 8.44443C16.7222 10.5504 15.9358 12.4726 14.6407 13.9335L19.0202 18.3131C19.2155 18.5084 19.2155 18.8249 19.0202 19.0202C18.825 19.2155 18.5084 19.2155 18.3131 19.0202L13.9335 14.6406C12.4726 15.9358 10.5504 16.7222 8.44445 16.7222C3.87276 16.7222 0.166672 13.0161 0.166672 8.44443Z" fill="#4F4C4C"/>
</g>
<defs>
<clipPath id="clip0_1516_7824">
<rect width="20" height="20" fill="white"/>
</clipPath>
</defs>
</svg>
