<svg aria-hidden="true" style="position: absolute; width: 0; height: 0; overflow: hidden;" version="1.1" xmlns="http://www.w3.org/2000/svg" xmlns:xlink="http://www.w3.org/1999/xlink">
<defs>
<symbol id="icon-Vector" viewBox="0 0 32 32">
  <path d="M22.571 3.429c-3.042 0-5.555 2.826-6.571 4.16-1.016-1.334-3.529-4.16-6.571-4.16-3.939 0-7.143 3.621-7.143 8.071 0 2.428 0.964 4.691 2.651 6.239 0.025 0.042 0.055 0.081 0.090 0.117l10.57 10.549c0.112 0.111 0.257 0.167 0.403 0.167s0.292-0.056 0.404-0.167l11.035-11.027c0.089-0.084 0.177-0.17 0.276-0.279 0.041-0.041 0.075-0.087 0.102-0.136 1.225-1.5 1.898-3.435 1.898-5.462 0-4.45-3.204-8.071-7.143-8.071z"></path>
</symbol>
</defs>
</svg>
