<svg aria-hidden="true" style="position: absolute; width: 0; height: 0; overflow: hidden;" version="1.1" xmlns="http://www.w3.org/2000/svg" xmlns:xlink="http://www.w3.org/1999/xlink">
<defs>
<symbol id="icon-paypal" viewBox="0 0 120 32">
  <path fill="#c56b8a" style="fill: var(--color1, #c56b8a)" d="M23.214 5.292c-0.384-0.77-0.992-1.406-1.746-1.883-0.787-0.482-1.715-0.819-2.777-1.019-1.080-0.196-2.328-0.284-3.773-0.298l-6.673 0.005c-0.694 0.009-1.373 0.549-1.536 1.22l-4.49 19.557c-0.163 0.661 0.272 1.215 0.966 1.215h3.196c0.694 0 1.38-0.538 1.534-1.215l1.096-4.748c0.147-0.661 0.831-1.213 1.532-1.213h0.915c3.908-0.005 6.934-0.803 9.108-2.402 2.186-1.601 3.263-3.717 3.263-6.338-0.002-1.148-0.191-2.111-0.614-2.879zM16.322 11.681c-0.966 0.708-2.309 1.061-4.041 1.061h-0.782c-0.696 0-1.122-0.549-0.971-1.22l0.961-4.152c0.135-0.666 0.836-1.217 1.522-1.213l1.047-0.007c1.222 0 2.155 0.212 2.779 0.621 0.617 0.405 0.926 1.050 0.922 1.904 0.019 1.299-0.477 2.297-1.438 3.005z"></path>
  <path fill="#c56b8a" style="fill: var(--color1, #c56b8a)" d="M114.317 3.623l-0.2 0.061-0.268 0.037-0.328-0.051-0.168-0.163-0.077-0.256-0.005-0.384v-1.422h1.068v-0.44h-1.068v-0.887h-0.529v0.887h-0.358v0.44h0.358v1.655l0.247 0.819 0.726 0.261 0.305-0.026 0.324-0.063v-0.468h-0.028z"></path>
  <path fill="#c56b8a" style="fill: var(--color1, #c56b8a)" d="M119.273 1.23l-0.763-0.314-0.563 0.114-0.573 0.386-0.333-0.37-0.54-0.128-0.519 0.114-0.491 0.317v-0.345h-0.519v3.107h0.517v-2.321l0.435-0.27 0.433-0.107 0.354 0.063 0.175 0.179 0.077 0.298 0.026 0.384v1.776h0.519v-1.988l-0.009-0.165-0.009-0.151 0.442-0.282 0.438-0.109 0.342 0.063 0.186 0.179 0.065 0.3 0.035 0.379v1.776h0.521v-2.018l-0.245-0.868z"></path>
  <path fill="#c56b8a" style="fill: var(--color1, #c56b8a)" d="M38.625 8.087c-1.206-0.68-3.11-1.019-5.712-1.019-1.287 0-2.57 0.1-3.866 0.3-0.957 0.147-1.050 0.175-1.639 0.303-1.215 0.265-1.406 1.478-1.406 1.478l-0.391 1.608c-0.221 1.026 0.37 0.987 0.617 0.901 0.531-0.158 0.826-0.321 1.911-0.563 1.036-0.235 2.127-0.412 2.993-0.4 1.278 0 2.255 0.135 2.907 0.41 0.642 0.279 0.963 0.759 0.963 1.452l-0.056 0.452-0.461 0.284c-1.813 0.114-3.124 0.282-4.714 0.512-1.555 0.216-2.919 0.596-4.052 1.115-1.217 0.535-2.12 1.255-2.751 2.169-0.61 0.919-0.915 2.034-0.915 3.342 0 1.231 0.442 2.248 1.301 3.035 0.864 0.773 2.004 1.15 3.368 1.15 0.863-0.005 1.531-0.072 2.006-0.186l1.548-0.533 1.31-0.726 1.206-0.796 0.016 0.023-0.121 0.512-0.007 0.021v0.005c-0.13 0.624 0.247 1.136 0.854 1.196l0.012 0.014h2.968l0.042-0.019c0.638-0.074 1.236-0.587 1.376-1.196l2.33-10.086 0.121-0.822 0.056-0.77c0.009-1.429-0.607-2.488-1.815-3.166zM33.472 19.427l-0.498 0.656-1.257 0.649c-0.591 0.24-1.152 0.361-1.671 0.361-0.787 0-1.403-0.114-1.82-0.347l-0.617-1.199c0-0.649 0.149-1.164 0.468-1.56l1.355-0.922c0.579-0.196 1.287-0.361 2.106-0.475 0.731-0.091 2.174-0.256 2.363-0.261l0.221 0.389c-0.044 0.221-0.454 1.934-0.649 2.707z"></path>
  <path fill="#c56b8a" style="fill: var(--color1, #c56b8a)" d="M96.672 8.101c-1.213-0.68-3.114-1.022-5.71-1.022-1.287 0-2.572 0.1-3.864 0.307-0.959 0.14-1.054 0.17-1.646 0.296-1.213 0.263-1.401 1.48-1.401 1.48l-0.391 1.606c-0.219 1.026 0.358 0.98 0.629 0.901 0.533-0.158 0.819-0.314 1.895-0.566 1.031-0.233 2.132-0.405 3-0.4 1.273 0 2.251 0.137 2.9 0.412 0.647 0.279 0.963 0.763 0.963 1.45l-0.049 0.449-0.456 0.291c-1.832 0.109-3.145 0.277-4.718 0.507-1.55 0.216-2.919 0.594-4.055 1.115-1.213 0.538-2.127 1.257-2.751 2.174-0.617 0.919-0.917 2.032-0.917 3.328 0 1.241 0.438 2.258 1.308 3.040 0.868 0.77 1.997 1.157 3.361 1.157 0.859-0.009 1.527-0.065 2.004-0.189l1.543-0.526 1.322-0.726 1.196-0.805 0.021 0.026-0.11 0.517-0.011 0.009 0.005 0.009c-0.144 0.624 0.235 1.141 0.85 1.196l0.005 0.012h0.056c0.403 0 1.795 0 2.458 0h0.451l0.049-0.016c0.631-0.077 1.227-0.589 1.359-1.206l2.337-10.072 0.123-0.826 0.067-0.773c0.002-1.425-0.607-2.479-1.825-3.156zM91.53 19.441l-0.519 0.663-1.245 0.645c-0.591 0.237-1.154 0.361-1.664 0.361-0.812 0-1.413-0.116-1.818-0.349l-0.624-1.194c0-0.652 0.151-1.161 0.456-1.564 0.309-0.379 0.782-0.691 1.369-0.919 0.573-0.196 1.28-0.354 2.104-0.473 0.726-0.091 2.165-0.261 2.351-0.263l0.226 0.389c-0.033 0.221-0.445 1.927-0.635 2.705z"></path>
  <path fill="#c56b8a" style="fill: var(--color1, #c56b8a)" d="M81.251 5.363c-0.4-0.775-1.001-1.401-1.76-1.89-0.777-0.484-1.699-0.824-2.777-1.019-1.059-0.189-2.323-0.291-3.759-0.293l-6.683 0.005c-0.696 0.012-1.364 0.552-1.525 1.215l-4.495 19.566c-0.163 0.663 0.284 1.213 0.964 1.213l3.201-0.005c0.679 0.005 1.375-0.54 1.536-1.21l1.082-4.751c0.158-0.661 0.845-1.217 1.536-1.213h0.915c3.913 0 6.946-0.805 9.129-2.4 2.158-1.613 3.249-3.724 3.249-6.347-0.011-1.143-0.209-2.109-0.614-2.87zM74.359 11.762c-0.964 0.694-2.309 1.047-4.031 1.047h-0.796c-0.687 0.007-1.131-0.552-0.978-1.217l0.969-4.146c0.142-0.663 0.835-1.22 1.527-1.213l1.036-0.007c1.229 0.007 2.151 0.21 2.779 0.619 0.626 0.41 0.922 1.052 0.929 1.904 0.007 1.299-0.475 2.3-1.434 3.012z"></path>
  <path fill="#c56b8a" style="fill: var(--color1, #c56b8a)" d="M108.654 3.536c0.147-0.668-0.272-1.21-0.959-1.201h-2.863c-0.587 0-1.115 0.435-1.373 0.971l-0.158 0.247-0.144 0.633-4.001 18.188-0.13 0.559 0.005 0.014c-0.133 0.598 0.235 1.050 0.803 1.136l0.049 0.068h2.973c0.582 0 1.129-0.442 1.378-0.987l0.154-0.233 4.278-19.391-0.009-0.002z"></path>
  <path fill="#c56b8a" style="fill: var(--color1, #c56b8a)" d="M60.342 7.311c-0.757 0.009-3.831 0-3.831 0-0.689 0-1.574 0.556-2.011 1.22 0 0-4.576 7.853-5.021 8.642l-0.531-0.007-1.424-8.582c-0.158-0.675-0.864-1.252-1.741-1.252l-2.863 0.005c-0.689 0-1.113 0.549-0.957 1.22 0 0 2.174 12.371 2.609 15.283 0.202 1.606-0.026 1.892-0.026 1.892l-2.83 4.93c-0.419 0.67-0.193 1.218 0.493 1.218l3.31-0.005c0.689 0 1.594-0.542 2.004-1.215l12.732-21.535c0 0.002 1.224-1.839 0.086-1.813z"></path>
</symbol>
</defs>
</svg>
