<svg aria-hidden="true" style="position: absolute; width: 0; height: 0; overflow: hidden;" version="1.1" xmlns="http://www.w3.org/2000/svg" xmlns:xlink="http://www.w3.org/1999/xlink">
<defs>
<symbol id="icon-filter" viewBox="0 0 32 32">
  <path  d="M1.449 5.559h15.005c0.452 2.058 2.291 3.604 4.483 3.604s4.030-1.545 4.483-3.604h5.595c0.544 0 0.986-0.441 0.986-0.986s-0.441-0.986-0.986-0.986h-5.596c-0.453-2.057-2.294-3.604-4.482-3.604-2.19 0-4.029 1.546-4.482 3.604h-15.005c-0.544 0-0.986 0.441-0.986 0.986s0.441 0.986 0.986 0.986zM18.318 4.577c0-0.004 0-0.007 0-0.011 0.004-1.439 1.179-2.61 2.618-2.61 1.437 0 2.612 1.169 2.618 2.608l0 0.014c-0.002 1.442-1.176 2.614-2.618 2.614s-2.615-1.171-2.618-2.612v-0.004zM31.014 25.977h-5.596c-0.453-2.057-2.294-3.604-4.482-3.604-2.19 0-4.029 1.546-4.482 3.604h-15.005c-0.544 0-0.986 0.441-0.986 0.986s0.441 0.985 0.986 0.985h15.005c0.452 2.058 2.291 3.604 4.483 3.604s4.030-1.545 4.483-3.604h5.595c0.544 0 0.986-0.441 0.986-0.985s-0.441-0.986-0.986-0.986zM20.936 29.581c-1.442 0-2.615-1.171-2.618-2.612v-0.004c0-0.004 0-0.007 0-0.011 0.004-1.439 1.179-2.61 2.618-2.61 1.437 0 2.612 1.169 2.618 2.608l0 0.014c-0.002 1.442-1.176 2.614-2.618 2.614zM31.014 14.783h-15.005c-0.452-2.058-2.29-3.604-4.483-3.604s-4.030 1.545-4.483 3.604h-5.595c-0.544 0-0.986 0.441-0.986 0.986s0.441 0.985 0.986 0.985h5.596c0.453 2.057 2.294 3.604 4.482 3.604 2.19 0 4.029-1.546 4.482-3.604h15.005c0.544 0 0.986-0.441 0.986-0.985s-0.441-0.986-0.986-0.986zM14.145 15.766c0 0.004-0 0.007-0 0.011-0.004 1.439-1.179 2.61-2.618 2.61-1.437 0-2.612-1.169-2.618-2.608l-0-0.014c0.002-1.442 1.176-2.614 2.618-2.614s2.615 1.171 2.618 2.612v0.003z"></path>
</symbol>
</defs>
</svg>
