<svg width="28" height="28" viewBox="0 0 28 28" fill="none" xmlns="http://www.w3.org/2000/svg">
<path d="M19.75 3C17.0879 3 14.8892 5.47266 14 6.63966C13.1108 5.47266 10.9121 3 8.24998 3C4.80373 3 2 6.16847 2 10.0625C2 12.187 2.84328 14.167 4.31933 15.522C4.3408 15.5591 4.36719 15.5933 4.39794 15.624L13.647 24.854C13.7446 24.9512 13.8721 25 14 25C14.1279 25 14.2558 24.9512 14.3535 24.8535L23.9102 15.3003L24.0088 15.2046C24.0869 15.1309 24.1641 15.0562 24.2505 14.9605C24.2866 14.9249 24.3164 14.8848 24.3394 14.8413C25.4112 13.5288 26 11.8359 26 10.0625C26 6.16847 23.1963 3 19.75 3Z" fill="white"/>
</svg>
