<svg width="48" height="49" viewBox="0 0 48 49" fill="none" xmlns="http://www.w3.org/2000/svg">
<g clip-path="url(#clip0_1515_7688)">
<mask id="mask0_1515_7688" style="mask-type:luminance" maskUnits="userSpaceOnUse" x="0" y="0" width="48" height="49">
<path d="M48 0.5H0V48.5H48V0.5Z" fill="white"/>
</mask>
<g mask="url(#mask0_1515_7688)">
<path d="M44.444 32.0367L43.994 29.7867H38.966L38.166 32.0207L34.136 32.0287C36.0546 27.415 37.9772 22.803 39.904 18.1927C40.232 17.4107 40.814 17.0127 41.672 17.0167C42.328 17.0227 43.398 17.0227 44.884 17.0187L48 32.0307L44.444 32.0367ZM40.098 26.7047H43.338L42.128 21.0647L40.098 26.7047ZM14.12 17.0147L18.172 17.0187L11.908 32.0387L7.806 32.0347C6.7745 28.0674 5.75583 24.0967 4.75 20.1227C4.55 19.3307 4.154 18.7767 3.392 18.5147C2.26645 18.1376 1.13567 17.7762 0 17.4307V17.0207H6.474C7.594 17.0207 8.248 17.5627 8.458 18.6747C8.67 19.7887 9.202 22.6247 10.058 27.1827L14.12 17.0147ZM23.74 17.0187L20.536 32.0347L16.68 32.0307L19.88 17.0147L23.74 17.0187ZM31.56 16.7407C32.714 16.7407 34.168 17.1007 35.004 17.4307L34.328 20.5447C33.572 20.2407 32.328 19.8307 31.282 19.8447C29.762 19.8707 28.822 20.5087 28.822 21.1207C28.822 22.1167 30.454 22.6187 32.134 23.7067C34.052 24.9467 34.304 26.0607 34.28 27.2707C34.254 29.7827 32.134 32.2607 27.662 32.2607C25.622 32.2307 24.886 32.0587 23.222 31.4687L23.926 28.2187C25.62 28.9287 26.338 29.1547 27.786 29.1547C29.112 29.1547 30.25 28.6187 30.26 27.6847C30.268 27.0207 29.86 26.6907 28.372 25.8707C26.884 25.0487 24.796 23.9107 24.824 21.6267C24.858 18.7027 27.628 16.7407 31.562 16.7407H31.56Z" fill="#C56B8A"/>
</g>
</g>
<defs>
<clipPath id="clip0_1515_7688">
<rect width="48" height="48" fill="white" transform="translate(0 0.5)"/>
</clipPath>
</defs>
</svg>
