<svg width="45" height="16" viewBox="0 0 45 16" fill="none" xmlns="http://www.w3.org/2000/svg">
<g clip-path="url(#clip0_2115_10542)">
<path d="M41.65 14.9085L41.2375 12.846H36.6285L35.8952 14.8939L32.201 14.9012C33.9597 10.672 35.7221 6.4443 37.4883 2.21821C37.789 1.50137 38.3225 1.13654 39.109 1.14021C39.7103 1.14571 40.6912 1.14571 42.0533 1.14204L44.9097 14.903L41.65 14.9085ZM37.6662 10.0209H40.6362L39.527 4.85087L37.6662 10.0209ZM13.853 1.13837L17.5673 1.14204L11.8253 14.9104L8.06517 14.9067C7.11962 11.27 6.18584 7.63016 5.26383 3.98737C5.0805 3.26137 4.7175 2.75354 4.019 2.51337C2.98725 2.16765 1.9507 1.8364 0.909668 1.51971L0.909668 1.14387H6.84417C7.87083 1.14387 8.47033 1.64071 8.66283 2.66004C8.85717 3.68121 9.34483 6.28087 10.1295 10.459L13.853 1.13837ZM22.6713 1.14204L19.7343 14.9067L16.1997 14.903L19.133 1.13837L22.6713 1.14204V1.14204ZM29.8397 0.887207C30.8975 0.887207 32.2303 1.21721 32.9967 1.51971L32.377 4.37421C31.684 4.09554 30.5437 3.71971 29.5848 3.73254C28.1915 3.75637 27.3298 4.34121 27.3298 4.90221C27.3298 5.81521 28.8258 6.27537 30.3658 7.27271C32.124 8.40937 32.355 9.43054 32.333 10.5397C32.3092 12.8424 30.3658 15.1139 26.2665 15.1139C24.3965 15.0864 23.7218 14.9287 22.1965 14.3879L22.8418 11.4087C24.3947 12.0595 25.0528 12.2667 26.3802 12.2667C27.5957 12.2667 28.6388 11.7754 28.648 10.9192C28.6553 10.3105 28.2813 10.008 26.9173 9.25637C25.5533 8.50287 23.6393 7.45971 23.665 5.36604C23.6962 2.68571 26.2353 0.887207 29.8415 0.887207H29.8397Z" fill="#C56B8A"/>
</g>
<defs>
<clipPath id="clip0_2115_10542">
<rect width="45" height="16" fill="white"/>
</clipPath>
</defs>
</svg>
