<svg width="24" height="24" viewBox="0 0 24 24" fill="none" xmlns="http://www.w3.org/2000/svg">
<path d="M17.75 1C15.0879 1 12.8892 3.47266 12 4.63966C11.1108 3.47266 8.91211 1 6.24998 1C2.80373 1 0 4.16847 0 8.06252C0 10.187 0.843281 12.167 2.31933 13.522C2.3408 13.5591 2.36719 13.5933 2.39794 13.624L11.647 22.854C11.7446 22.9512 11.8721 23 12 23C12.1279 23 12.2558 22.9512 12.3535 22.8535L21.9102 13.3003L22.0088 13.2046C22.0869 13.1309 22.1641 13.0562 22.2505 12.9605C22.2866 12.9249 22.3164 12.8848 22.3394 12.8413C23.4112 11.5288 24 9.83594 24 8.06252C24 4.16847 21.1963 1 17.75 1Z" fill="white"/>
<path fill-rule="evenodd" clip-rule="evenodd" d="M12 6.28967L11.2046 5.24571C10.7883 4.69938 10.0773 3.86474 9.18027 3.17493C8.27475 2.47861 7.27171 2 6.24998 2C3.46741 2 1 4.60235 1 8.06252C1 9.92483 1.73864 11.6315 2.99559 12.7853L3.10836 12.8889L3.15128 12.9631L11.9997 21.7933L21.2084 12.5879L21.3224 12.4772C21.385 12.4181 21.4352 12.3695 21.4875 12.313L21.5018 12.286L21.5648 12.2088C22.4838 11.0834 23 9.61668 23 8.06252C23 4.60235 20.5326 2 17.75 2C16.7283 2 15.7253 2.47861 14.8197 3.17493C13.9227 3.86474 13.2117 4.69938 12.7954 5.24571L12 6.28967ZM2.39794 13.624C2.36719 13.5933 2.3408 13.5591 2.31933 13.522C0.843281 12.167 0 10.187 0 8.06252C0 4.16847 2.80373 1 6.24998 1C8.4003 1 10.2483 2.61328 11.3479 3.84863C11.6097 4.14267 11.8291 4.41529 12 4.63966C12.1709 4.41529 12.3903 4.14267 12.6521 3.84863C13.7517 2.61328 15.5997 1 17.75 1C21.1963 1 24 4.16847 24 8.06252C24 9.83594 23.4112 11.5288 22.3394 12.8413C22.3164 12.8848 22.2866 12.9249 22.2505 12.9605C22.1641 13.0562 22.0869 13.1309 22.0088 13.2046L21.9102 13.3003L12.3535 22.8535C12.2558 22.9512 12.1279 23 12 23C11.8721 23 11.7446 22.9512 11.647 22.854L2.39794 13.624Z" fill="white"/>
</svg>
