<svg width="29" height="28" viewBox="0 0 29 28" fill="none" xmlns="http://www.w3.org/2000/svg">
<g clip-path="url(#clip0_1516_7826)">
<path d="M21.0444 1.16666C17.9386 1.16666 15.3734 4.05142 14.3361 5.41292C13.2987 4.05142 10.7335 1.16666 7.62771 1.16666C3.60708 1.16666 0.33606 4.8632 0.33606 9.40626C0.33606 11.8849 1.31989 14.1948 3.04194 15.7757C3.06699 15.819 3.09778 15.8588 3.13365 15.8947L13.9242 26.663C14.0381 26.7764 14.1868 26.8334 14.3361 26.8334C14.4853 26.8334 14.6345 26.7764 14.7485 26.6625L25.8979 15.517L26.013 15.4054C26.1042 15.3193 26.1942 15.2322 26.295 15.1206C26.3371 15.079 26.3718 15.0322 26.3986 14.9815C27.6491 13.4503 28.3361 11.4752 28.3361 9.40626C28.3361 4.8632 25.0651 1.16666 21.0444 1.16666ZM25.4279 14.3253C25.412 14.3441 25.3972 14.364 25.3841 14.3845C25.3294 14.4472 25.2696 14.5024 25.2103 14.5589L14.3355 25.4257L4.09129 15.202C4.05825 15.137 4.0121 15.0778 3.95572 15.0282C2.39652 13.6667 1.50271 11.6177 1.50271 9.40626C1.50271 5.50633 4.25021 2.33336 7.62771 2.33336C10.9671 2.33336 13.8171 6.689 13.8456 6.73286C14.0609 7.06552 14.6112 7.06552 14.8266 6.73286C14.855 6.689 17.705 2.33336 21.0444 2.33336C24.4219 2.33336 27.1694 5.50638 27.1694 9.40626C27.1694 11.244 26.5507 12.9911 25.4279 14.3253Z" fill="#4F4C4C"/>
</g>
<defs>
<clipPath id="clip0_1516_7826">
<rect width="28" height="28" fill="white" transform="translate(0.33606)"/>
</clipPath>
</defs>
</svg>
