<svg width="299" height="78" viewBox="0 0 299 78" fill="none" xmlns="http://www.w3.org/2000/svg">
<path d="M27.6293 45.7513C26.5462 45.9299 25.5202 45.9299 24.4941 45.8704C24.2661 45.8704 24.0381 45.8704 23.81 45.7513C23.639 45.6918 23.582 45.5132 23.582 45.3346C23.639 45.156 23.753 45.0369 23.924 45.0369C24.0951 45.0369 24.2661 45.0369 24.4371 45.0369C25.5772 45.0965 26.6602 44.9774 27.8003 44.7988C28.1993 44.7393 28.4844 44.5012 28.7124 44.144C31.6766 39.2624 34.6978 34.3808 37.833 29.6183C41.0252 24.6772 44.2745 19.8551 47.6947 15.0926C48.7208 13.6638 49.6899 12.2351 50.6589 10.6873C50.7159 10.5682 50.8299 10.3896 50.8299 10.0919C50.5449 10.5087 50.2029 10.8658 49.8609 11.223C49.8039 11.2826 49.7469 11.4016 49.6328 11.3421C49.4618 11.223 49.5188 11.104 49.5758 10.9849C49.6328 10.8658 49.6899 10.7468 49.7469 10.6277C50.2029 9.91334 50.7729 9.25849 51.343 8.66318C51.742 8.24646 52.027 8.18692 52.369 8.36552C52.7111 8.54412 52.8821 9.02037 52.7681 9.49662C52.5971 10.211 52.255 10.8658 51.913 11.4612C51.115 12.8899 50.2599 14.1996 49.3478 15.5093C46.4976 19.5574 43.5904 23.5461 40.7972 27.6537C37.206 32.952 33.7287 38.3099 30.3655 43.7868C30.2515 43.9058 30.1945 43.9654 30.1945 44.2035C30.9925 44.0249 31.7336 43.7868 32.4746 43.5486C35.4389 42.5366 38.3461 41.346 41.2533 40.0363C49.0058 36.5835 56.4163 32.4758 63.5988 27.7728C66.62 25.7487 69.5843 23.6056 72.2064 21.0457C73.4605 19.8551 74.6576 18.6049 75.6267 17.1762C76.4817 15.9856 77.2228 14.6759 77.6788 13.1876C78.1919 11.3421 78.0208 9.61568 76.9948 8.00833C76.4247 7.17489 75.7407 6.52004 74.9426 5.92473C73.1185 4.5555 71.0664 3.78159 68.9002 3.12675C66.449 2.41237 63.9409 1.99565 61.3757 1.75752C59.5515 1.63846 57.7274 1.5194 55.9033 1.5194C52.9391 1.5194 49.9749 1.69799 47.0107 2.05518C42.1653 2.53143 37.377 3.48394 32.7027 4.79363C27.4583 6.22238 22.3279 8.12739 17.4826 10.6873C14.8604 12.116 12.2952 13.7234 10.0151 15.7474C8.19094 17.4143 6.53782 19.2003 5.51175 21.522C4.71369 23.3675 4.59969 25.2129 5.34074 27.1179C5.79677 28.249 6.53782 29.2015 7.44989 30.035C8.93199 31.4637 10.6421 32.5948 12.4662 33.4878C15.2024 34.9166 18.0526 35.9286 21.0738 36.4644C21.7009 36.5835 22.3849 36.643 23.069 36.5239C23.183 36.4644 23.297 36.4049 23.354 36.5835C23.468 36.7621 23.297 36.8811 23.183 36.9406C22.955 37.1192 22.67 37.1788 22.3849 37.1788C21.1879 37.2383 20.1048 37.0597 18.9647 36.7621C15.4304 35.9286 12.1242 34.6189 9.103 32.5353C7.79191 31.6423 6.59483 30.6898 5.62576 29.4397C3.51661 26.8798 3.23159 24.0223 4.48568 20.9267C5.16973 19.3788 6.08179 18.0096 7.22187 16.7595C9.38802 14.3187 11.9532 12.4137 14.6894 10.7468C19.5917 7.77021 24.8931 5.62707 30.3085 3.96019C34.2418 2.71002 38.2891 1.75752 42.3363 1.10268C44.6735 0.745486 46.9537 0.507359 49.2908 0.269236C52.369 -0.0284248 55.3903 -0.0284248 58.4685 0.0311095C62.7438 0.209702 66.9621 0.745486 71.0664 2.23378C73.1185 3.00769 75.0566 4.01972 76.7668 5.50801C78.4769 7.05583 79.5029 9.02037 79.617 11.4016C79.674 12.4137 79.4459 13.3662 79.1609 14.3187C78.5909 15.9856 77.6788 17.4738 76.5957 18.8431C74.4866 21.5815 71.9214 23.7842 69.1852 25.8083C65.651 28.4276 61.9457 30.6303 58.1264 32.833C53.8511 35.3333 49.4048 37.655 44.9015 39.7386C40.8542 41.6436 36.6929 43.3701 32.4176 44.6797C31.5626 44.9179 30.7075 45.156 29.7955 45.3941C29.4534 45.4537 29.1684 45.6322 28.9974 45.9894C26.1472 50.6924 23.297 55.3954 20.6748 60.2175C19.3637 62.5987 18.1096 65.0395 16.9696 67.4803C16.7985 67.7184 16.6845 67.9566 16.5705 68.1947C16.3995 68.4328 16.2285 68.5519 15.9435 68.4328C15.7155 68.2542 15.7155 68.0161 15.8295 67.778C16.2285 66.885 16.6275 65.992 17.0836 65.0991C18.7937 61.5272 20.6748 58.0148 22.613 54.562C24.1521 51.8235 25.7482 49.1446 27.3443 46.4657C27.4583 46.2871 27.5723 46.1085 27.6293 45.7513Z" fill="white"/>
<path d="M98.6763 20.8076C98.7903 20.9267 98.9043 20.9267 99.0184 20.9267C102.097 20.8076 105.175 20.7481 108.196 20.6885C108.424 20.6885 108.652 20.6885 108.823 20.6885C113.668 20.6885 118.514 20.629 123.302 20.6885C126.38 20.7481 129.458 20.6885 132.48 20.8076C133.449 20.8076 134.418 20.8671 135.387 20.9267C135.558 20.9267 135.729 20.9862 135.9 20.9862C136.071 21.0457 136.185 21.1053 136.185 21.2839C136.185 21.522 136.014 21.522 135.843 21.522C135.786 21.522 135.729 21.522 135.672 21.522C134.133 21.4029 132.594 21.4625 131.055 21.4625C123.929 21.4029 116.747 21.4029 109.621 21.522C106.144 21.522 102.61 21.641 99.1324 21.7601C97.6503 21.8196 98.0493 21.7006 97.3082 22.8317C94.458 27.3561 91.6648 31.94 88.9286 36.5239C86.0214 41.2864 83.2282 46.1085 80.378 50.9306C77.8699 55.3359 75.3047 59.6817 72.7395 64.0275C72.6825 64.1465 72.6255 64.3251 72.5115 64.3847C72.3975 64.5633 72.2265 64.5633 72.0555 64.5037C71.8844 64.3847 71.8844 64.2061 71.9415 64.0275C71.9985 63.8489 72.1125 63.7298 72.1695 63.5512C73.6516 60.8128 75.2477 58.1339 76.7868 55.3954C79.808 50.0971 82.8292 44.7988 85.9644 39.56C89.3277 33.9045 92.6909 28.249 96.1111 22.5936C96.2252 22.3554 96.3962 22.2364 96.3962 21.9387C96.1112 21.8792 95.9971 22.1173 95.8261 22.2364C94.9711 23.3675 94.173 24.4986 93.318 25.5701C90.5818 29.023 87.9596 32.5353 85.1664 35.9286C83.4563 38.0122 81.5181 39.8577 79.295 41.4055C78.6679 41.8222 78.0409 42.1199 77.4138 42.4175C77.2428 42.5366 77.0148 42.5961 76.8438 42.6557C75.5897 43.0129 74.6206 42.358 74.5066 40.9888C74.3926 40.0958 74.6206 39.3219 74.9057 38.4885C75.0197 38.1908 75.1907 37.8932 75.1907 37.4764C74.9057 37.4764 74.7346 37.7146 74.5636 37.8336C72.9675 39.0243 71.3714 40.2744 69.7753 41.465C69.2623 41.8818 68.7492 42.1794 68.1792 42.4175C66.9251 42.8938 65.899 42.1794 65.842 40.7507C65.842 40.2149 65.956 39.7386 66.127 39.2028C67.0391 36.643 68.8062 34.857 71.0864 33.6069C72.1695 33.0116 73.3095 32.8925 74.4496 33.3688C75.3047 33.7259 75.9317 34.2617 76.1027 35.2738C76.1027 35.2738 76.1598 35.3333 76.1598 35.3928C76.3878 35.2142 76.4448 34.9761 76.6158 34.738C76.7298 34.5594 76.8438 34.3213 76.9578 34.0831C77.2428 33.6664 77.6989 33.5474 78.1549 33.845C78.4969 34.0831 78.6679 34.4403 78.4399 34.9166C78.2119 35.5119 77.9269 36.0477 77.6419 36.5835C77.1858 37.4169 76.6728 38.2503 76.2738 39.1433C76.0457 39.6196 75.8747 40.0958 75.7607 40.5721C75.7037 40.7507 75.7037 40.8697 75.7037 41.0483C75.6467 41.7627 75.9887 42.0008 76.6158 41.8818C77.1858 41.7032 77.7559 41.465 78.2689 41.1674C79.751 40.2744 81.0621 39.2028 82.3162 38.0122C84.3113 36.0477 86.0784 33.9045 87.7886 31.7019C90.1257 28.7253 92.5199 25.6892 94.8571 22.6531C94.9711 22.4745 95.1991 22.3554 95.1991 22.0578C95.0281 21.8792 94.8001 21.9982 94.572 21.9982C92.9189 21.9387 91.2658 22.1768 89.6697 22.1173C89.3277 22.1173 89.0426 22.1173 88.7576 22.0578C88.5866 22.0578 88.3586 21.9982 88.3586 21.7601C88.4156 21.522 88.6436 21.522 88.8146 21.522C89.2707 21.522 89.7267 21.4625 90.2397 21.4625C91.9499 21.3434 93.717 21.2243 95.4271 21.1648C95.8831 21.1053 96.1682 20.9862 96.4532 20.629C97.6503 19.1407 98.8473 17.6524 100.044 16.1641C100.842 15.0926 101.527 13.902 102.325 12.7709C103.351 11.223 104.377 9.73475 105.46 8.18692C105.631 7.9488 105.802 7.71067 106.03 7.53208C106.201 7.29395 106.372 7.23442 106.6 7.41302C106.885 7.59161 106.828 7.82974 106.714 8.00833C106.486 8.36552 106.315 8.72271 106.144 9.02037C103.921 12.4732 101.641 15.9856 99.4174 19.4384C99.1324 19.8551 98.8473 20.2718 98.6763 20.8076ZM67.2671 40.8697C67.2671 41.5246 67.3811 41.6436 67.8942 41.465C68.3502 41.346 68.7492 41.1079 69.1483 40.8102C71.2004 39.3814 73.2525 37.9527 75.3047 36.5239C75.3617 36.5239 75.3617 36.4644 75.4187 36.4644C75.6467 36.2858 75.7037 36.0477 75.5897 35.8095C75.3617 34.7975 74.7917 34.2617 73.7656 34.2617C73.0245 34.2617 72.3405 34.4999 71.7134 34.9166C69.8893 36.2263 68.3502 37.8336 67.4951 40.0363C67.3811 40.3339 67.2671 40.6316 67.2671 40.8697Z" fill="white"/>
<path d="M96.5725 38.548C97.0856 38.3099 97.3706 37.8336 97.7126 37.4764C98.5677 36.3453 99.5937 35.3928 100.506 34.3808C100.791 34.0831 101.076 33.845 101.304 33.4878C101.532 33.0116 102.216 33.0116 102.501 33.6069C102.672 33.9641 102.615 34.3213 102.558 34.6784C102.501 35.2142 102.501 35.75 102.729 36.2858C103.014 36.8811 103.413 37.2978 103.983 37.536C105.237 38.1313 106.491 38.4885 107.859 38.4885C109.74 38.548 111.565 38.3694 113.389 37.8336C113.503 37.7741 113.674 37.7146 113.845 37.7741C113.845 38.0122 113.674 38.0122 113.56 38.0717C112.534 38.3694 111.451 38.7266 110.425 38.9052C108.885 39.0838 107.346 39.1433 105.807 38.9052C105.123 38.8457 104.382 38.6671 103.755 38.4289C102.9 38.1313 102.216 37.5955 101.646 36.9406C101.19 36.3453 101.019 35.75 100.905 34.9166C100.563 35.2142 100.278 35.5119 99.9928 35.75C98.7387 37.0002 97.5986 38.4289 96.4585 39.8577C95.8885 40.5721 95.3754 41.2864 94.8624 42.0008C94.7484 42.0604 94.6914 42.1794 94.6344 42.239C94.4634 42.4175 94.2924 42.6557 94.0073 42.5366C93.7223 42.4175 93.6083 42.1794 93.6083 41.7627C93.6653 41.465 93.7223 41.1674 93.8363 40.8102C94.1214 39.8577 94.4634 38.9052 94.9194 38.0122C95.6605 36.5239 96.5155 35.2142 97.3706 33.845C97.5416 33.5474 97.7126 33.3688 97.9406 33.1902C98.2826 32.8925 98.7387 32.8925 99.0807 33.1306C99.3657 33.3688 99.4797 33.7259 99.3657 34.2022C99.2517 34.4403 99.1377 34.6784 98.9667 34.9166C98.2256 36.0477 97.3706 37.1192 96.7435 38.3099C96.6865 38.3694 96.6295 38.4885 96.5725 38.548Z" fill="white"/>
<path d="M120.246 29.2016C120.474 29.2611 120.702 29.2611 120.93 29.3206C121.101 29.3801 121.158 29.4992 121.158 29.6778C121.158 29.8564 121.044 29.9755 120.93 29.9755C120.303 30.0945 119.676 30.2731 119.106 30.4517C118.764 30.5708 118.479 30.3326 118.422 30.035C118.422 29.6778 118.593 29.5587 118.821 29.4397C119.277 29.2611 119.79 29.3206 120.246 29.2016ZM117.794 32.8925C117.794 33.1306 117.68 33.3688 117.566 33.5474C117.281 33.9641 117.053 34.3808 116.768 34.738C114.545 37.8932 112.265 41.0483 110.327 44.3821C110.042 44.8583 109.814 45.0369 109.586 44.8583C109.301 44.5607 109.529 44.263 109.643 44.0249C110.384 42.5366 111.182 41.1674 112.037 39.7982C113.348 37.7146 114.659 35.631 116.027 33.5474C116.255 33.1902 116.54 32.7734 116.882 32.4758C117.053 32.2972 117.281 32.2377 117.509 32.3567C117.68 32.4758 117.794 32.6544 117.794 32.8925Z" fill="white"/>
<path d="M143.389 38.0122C143.161 38.3099 142.876 38.3099 142.591 38.4289C141.28 38.8457 139.969 39.2028 138.658 39.6791C136.605 40.3935 134.496 40.9888 132.444 41.5841C130.962 42.0604 129.48 42.4771 127.941 42.6557C126.915 42.7152 125.832 42.8343 124.863 42.4771C123.095 41.8818 122.183 40.3935 122.525 38.4289C122.696 37.536 123.095 36.8216 123.665 36.0477C124.635 34.738 125.946 33.845 127.314 33.0711C128.112 32.5948 129.024 32.3567 129.993 32.4163C130.335 32.4163 130.62 32.4758 130.905 32.6544C131.475 32.952 131.646 33.4878 131.475 34.1427C131.247 35.0356 130.677 35.5714 129.993 36.0477C129.936 36.1072 129.936 36.1072 129.879 36.1072C129.822 36.1072 129.765 36.1072 129.765 36.1072C129.651 35.9286 129.765 35.8691 129.822 35.75C130.107 35.4524 130.335 35.0952 130.563 34.7975C130.677 34.6189 130.734 34.4403 130.791 34.2617C130.848 33.845 130.62 33.6069 130.278 33.7259C129.993 33.7855 129.708 33.9045 129.423 34.0236C128.226 34.6189 127.2 35.5119 126.231 36.4644C125.604 37.0597 125.091 37.7146 124.578 38.4289C124.178 39.0838 124.064 39.7386 124.121 40.453C124.178 40.8697 124.407 41.1674 124.749 41.4055C125.718 42.0604 126.801 42.1794 127.884 42.0604C129.765 41.7627 131.589 41.2864 133.356 40.7507C136.491 39.8577 139.627 38.8457 142.762 37.9527C142.933 37.9527 143.104 37.7741 143.389 38.0122Z" fill="white"/>
<path d="M149.805 29.2016C150.033 29.2611 150.261 29.2611 150.489 29.3206C150.66 29.3801 150.717 29.4992 150.717 29.6778C150.717 29.8564 150.603 29.9755 150.489 29.9755C149.862 30.0945 149.235 30.2731 148.665 30.4517C148.323 30.5708 148.038 30.3326 147.981 30.035C147.981 29.6778 148.152 29.5587 148.38 29.4397C148.836 29.2611 149.349 29.3206 149.805 29.2016ZM147.354 32.8925C147.354 33.1306 147.24 33.3688 147.126 33.5474C146.841 33.9641 146.613 34.3808 146.328 34.738C144.105 37.8932 141.825 41.0483 139.887 44.3821C139.602 44.8583 139.374 45.0369 139.146 44.8583C138.861 44.5607 139.089 44.263 139.203 44.0249C139.944 42.5366 140.742 41.1674 141.597 39.7982C142.908 37.7146 144.219 35.631 145.587 33.5474C145.815 33.1902 146.1 32.7734 146.442 32.4758C146.613 32.2972 146.841 32.2377 147.069 32.3567C147.24 32.4758 147.354 32.6544 147.354 32.8925Z" fill="white"/>
<path d="M153.282 42.239C153.624 42.2985 153.966 42.1794 154.251 42.0008C154.935 41.6436 155.562 41.2269 156.132 40.7507C157.728 39.441 159.268 38.0717 160.864 36.8216C161.035 36.7025 161.149 36.5835 161.32 36.4644C161.434 36.3453 161.491 36.2263 161.491 36.0477C161.434 35.1547 160.693 34.4403 159.838 34.4403C158.812 34.4999 157.899 34.9166 157.044 35.5119C155.505 36.5239 154.365 37.9527 153.339 39.5005C153.111 39.9172 152.94 40.3339 152.769 40.7507C152.655 40.9888 152.598 41.2864 152.598 41.5841C152.598 42.0604 152.826 42.239 153.282 42.239ZM160.75 37.4169C159.952 38.1313 159.211 38.8457 158.47 39.56C157.386 40.5721 156.303 41.5246 155.106 42.358C154.65 42.6557 154.251 42.8938 153.738 43.0129C152.256 43.4296 151.002 42.2985 151.23 40.6911C151.344 39.9172 151.572 39.2028 151.971 38.548C152.997 36.7025 154.365 35.1547 156.189 34.0831C157.215 33.4878 158.299 33.1902 159.439 33.2497C160.636 33.2497 161.491 33.9045 161.833 35.0952C161.947 35.4524 161.947 35.8095 162.46 35.75C162.745 35.75 162.859 36.0477 162.802 36.3453C162.745 36.5239 162.631 36.7025 162.574 36.8811C162.175 37.536 161.776 38.2503 161.491 38.9647C161.263 39.5005 161.092 40.0363 161.092 40.6316C161.092 41.2864 161.377 41.6436 161.947 41.8222C162.517 42.0008 163.144 42.0008 163.714 41.9413C164.74 41.8222 165.709 41.5246 166.678 41.2269C169.756 40.3339 172.778 39.2028 175.799 38.0717C175.97 38.0122 176.198 37.8336 176.483 37.9527C176.369 38.2503 176.084 38.3099 175.856 38.3694C174.83 38.7861 173.747 39.2028 172.664 39.6196C170.269 40.5125 167.875 41.465 165.367 42.1199C164.284 42.4175 163.201 42.6557 162.118 42.4771C160.807 42.239 160.18 41.5246 160.18 40.1553C160.18 39.441 160.351 38.7266 160.636 38.0717C160.693 37.8932 160.75 37.655 160.864 37.4764C160.807 37.4764 160.75 37.4169 160.75 37.4169Z" fill="white"/>
<path d="M125.872 48.1888C127.809 48.1888 129.146 48.1406 129.884 48.0443V49.0075C129.054 49.2001 128.347 49.6657 127.763 50.4041C127.179 51.1105 126.641 52.2342 126.149 53.7754L118.217 77.5666H117.479L110.377 59.2175L102.86 77.5666H102.123L92.715 52.0897C91.9771 50.0991 90.9164 49.0717 89.533 49.0075V48.0443C90.7627 48.1406 92.4075 48.1888 94.4674 48.1888C97.1113 48.1888 99.0789 48.1406 100.37 48.0443V49.0075C99.2019 49.0717 98.3718 49.2322 97.8799 49.4891C97.4187 49.7138 97.1882 50.1312 97.1882 50.7413C97.1882 51.2229 97.3573 51.9934 97.6954 53.0529L104.244 71.691L109.824 57.869L107.61 52.0897C106.811 50.0991 105.75 49.0717 104.428 49.0075V48.0443C105.689 48.1406 107.334 48.1888 109.363 48.1888C112.007 48.1888 113.974 48.1406 115.265 48.0443V49.0075C114.097 49.0717 113.267 49.2322 112.775 49.4891C112.283 49.7138 112.037 50.1473 112.037 50.7894C112.037 51.3352 112.222 52.0897 112.591 53.0529L119.278 71.3539L124.212 56.2797C124.796 54.4817 125.088 53.069 125.088 52.0416C125.088 50.9821 124.796 50.2275 124.212 49.7781C123.659 49.3286 122.813 49.0717 121.676 49.0075V48.0443C122.598 48.1406 123.997 48.1888 125.872 48.1888Z" fill="white"/>
<path d="M154.651 71.6428C154.651 73.3124 154.759 75.2067 154.974 77.3258C152.976 77.2294 149.609 77.1813 144.875 77.1813C139.187 77.1813 134.883 77.2294 131.963 77.3258V76.3626C133.069 76.2983 133.869 76.1699 134.361 75.9773C134.883 75.7846 135.237 75.4154 135.421 74.8696C135.606 74.3238 135.698 73.4408 135.698 72.2208V53.1493C135.698 51.9292 135.606 51.0463 135.421 50.5005C135.237 49.9546 134.883 49.5854 134.361 49.3928C133.869 49.2001 133.069 49.0717 131.963 49.0075V48.0443C134.883 48.1406 139.187 48.1888 144.875 48.1888C149.179 48.1888 152.238 48.1406 154.052 48.0443C153.837 49.9707 153.729 51.7045 153.729 53.2456C153.729 54.4978 153.775 55.4931 153.867 56.2315H152.807C152.592 53.5988 152.054 51.7687 151.193 50.7413C150.363 49.6817 148.995 49.152 147.088 49.152H143.722C142.615 49.152 141.801 49.2483 141.278 49.4409C140.786 49.6015 140.448 49.9546 140.263 50.5005C140.079 51.0463 139.987 51.9292 139.987 53.1493V62.1071H143.814C144.798 62.1071 145.551 61.8502 146.074 61.3365C146.597 60.7907 146.95 60.2128 147.135 59.6028C147.319 58.9606 147.488 58.1579 147.642 57.1947H148.703C148.61 58.2864 148.564 59.4743 148.564 60.7586V62.5887C148.564 63.8409 148.656 65.6389 148.841 67.9827H147.78C147.596 66.4415 147.242 65.2375 146.72 64.3706C146.197 63.5037 145.228 63.0703 143.814 63.0703H139.987V72.2208C139.987 73.4408 140.079 74.3238 140.263 74.8696C140.448 75.4154 140.786 75.7846 141.278 75.9773C141.801 76.1378 142.615 76.2181 143.722 76.2181H147.088C148.626 76.2181 149.84 75.9612 150.732 75.4475C151.623 74.9338 152.3 74.1151 152.761 72.9913C153.222 71.8355 153.545 70.2301 153.729 68.1753H154.79C154.698 69.0422 154.651 70.198 154.651 71.6428Z" fill="white"/>
<path d="M171.978 48.0443C176.774 48.0443 180.371 49.2643 182.769 51.7045C185.198 54.1125 186.412 57.6442 186.412 62.2997C186.412 65.3178 185.828 67.9666 184.66 70.2462C183.492 72.4937 181.786 74.2435 179.541 75.4957C177.328 76.7157 174.668 77.3258 171.563 77.3258L168.889 77.2776C167.167 77.2134 165.906 77.1813 165.107 77.1813C162.586 77.1813 160.68 77.2294 159.389 77.3258V76.3626C160.496 76.2983 161.295 76.1699 161.787 75.9773C162.309 75.7846 162.663 75.4154 162.847 74.8696C163.032 74.3238 163.124 73.4408 163.124 72.2208V53.1493C163.124 51.9292 163.032 51.0463 162.847 50.5005C162.663 49.9546 162.309 49.5854 161.787 49.3928C161.295 49.2001 160.496 49.0717 159.389 49.0075V48.0443C160.465 48.1406 161.956 48.1888 163.862 48.1888L167.782 48.1406C169.872 48.0764 171.271 48.0443 171.978 48.0443ZM170.825 48.9112C169.872 48.9112 169.15 49.0235 168.658 49.2483C168.197 49.473 167.874 49.8744 167.69 50.4523C167.505 51.0302 167.413 51.8971 167.413 53.0529V72.3171C167.413 73.4729 167.505 74.3398 167.69 74.9177C167.874 75.4957 168.197 75.897 168.658 76.1217C169.15 76.3465 169.888 76.4589 170.872 76.4589C173.669 76.4589 175.867 75.9452 177.466 74.9177C179.065 73.8582 180.187 72.3171 180.832 70.2943C181.478 68.2716 181.801 65.671 181.801 62.4924C181.801 57.8048 180.971 54.3693 179.311 52.1861C177.651 50.0028 174.822 48.9112 170.825 48.9112Z" fill="white"/>
<path d="M203.052 48.0443C207.848 48.0443 211.445 49.2643 213.843 51.7045C216.272 54.1125 217.486 57.6442 217.486 62.2997C217.486 65.3178 216.902 67.9666 215.734 70.2462C214.566 72.4937 212.86 74.2435 210.615 75.4957C208.402 76.7157 205.742 77.3258 202.637 77.3258L199.963 77.2776C198.241 77.2134 196.98 77.1813 196.181 77.1813C193.66 77.1813 191.754 77.2294 190.463 77.3258V76.3626C191.569 76.2983 192.369 76.1699 192.861 75.9773C193.383 75.7846 193.737 75.4154 193.921 74.8696C194.106 74.3238 194.198 73.4408 194.198 72.2208V53.1493C194.198 51.9292 194.106 51.0463 193.921 50.5005C193.737 49.9546 193.383 49.5854 192.861 49.3928C192.369 49.2001 191.569 49.0717 190.463 49.0075V48.0443C191.539 48.1406 193.03 48.1888 194.936 48.1888L198.856 48.1406C200.946 48.0764 202.345 48.0443 203.052 48.0443ZM201.899 48.9112C200.946 48.9112 200.224 49.0235 199.732 49.2483C199.271 49.473 198.948 49.8744 198.764 50.4523C198.579 51.0302 198.487 51.8971 198.487 53.0529V72.3171C198.487 73.4729 198.579 74.3398 198.764 74.9177C198.948 75.4957 199.271 75.897 199.732 76.1217C200.224 76.3465 200.962 76.4589 201.946 76.4589C204.743 76.4589 206.941 75.9452 208.54 74.9177C210.139 73.8582 211.261 72.3171 211.906 70.2943C212.552 68.2716 212.875 65.671 212.875 62.4924C212.875 57.8048 212.045 54.3693 210.385 52.1861C208.724 50.0028 205.896 48.9112 201.899 48.9112Z" fill="white"/>
<path d="M233.296 49.0075C232.189 49.0717 231.375 49.2001 230.852 49.3928C230.36 49.5854 230.022 49.9546 229.838 50.5005C229.653 51.0463 229.561 51.9292 229.561 53.1493V72.2208C229.561 73.4408 229.653 74.3238 229.838 74.8696C230.022 75.4154 230.36 75.7846 230.852 75.9773C231.375 76.1699 232.189 76.2983 233.296 76.3626V77.3258C231.882 77.2294 229.93 77.1813 227.44 77.1813C224.796 77.1813 222.828 77.2294 221.537 77.3258V76.3626C222.643 76.2983 223.443 76.1699 223.935 75.9773C224.457 75.7846 224.811 75.4154 224.995 74.8696C225.18 74.3238 225.272 73.4408 225.272 72.2208V53.1493C225.272 51.9292 225.18 51.0463 224.995 50.5005C224.811 49.9546 224.457 49.5854 223.935 49.3928C223.443 49.2001 222.643 49.0717 221.537 49.0075V48.0443C222.828 48.1406 224.796 48.1888 227.44 48.1888C229.899 48.1888 231.851 48.1406 233.296 48.0443V49.0075Z" fill="white"/>
<path d="M265.202 49.0075C264.126 49.0717 263.327 49.2483 262.804 49.5372C262.281 49.7941 261.928 50.2436 261.743 50.8857C261.559 51.4958 261.467 52.4108 261.467 53.6309V77.5666H260.406L241.96 50.8857V71.7392C241.96 72.9913 242.052 73.9224 242.236 74.5325C242.452 75.1425 242.851 75.592 243.436 75.8809C244.02 76.1378 244.927 76.2983 246.156 76.3626V77.3258C245.05 77.2294 243.482 77.1813 241.453 77.1813C239.608 77.1813 238.178 77.2294 237.164 77.3258V76.3626C238.24 76.2983 239.039 76.1378 239.562 75.8809C240.084 75.592 240.438 75.1425 240.622 74.5325C240.807 73.8903 240.899 72.9592 240.899 71.7392V53.1493C240.899 51.9292 240.807 51.0463 240.622 50.5005C240.438 49.9546 240.084 49.5854 239.562 49.3928C239.07 49.2001 238.271 49.0717 237.164 49.0075V48.0443C238.178 48.1406 239.608 48.1888 241.453 48.1888C243.113 48.1888 244.527 48.1406 245.695 48.0443L260.406 69.4275V53.6309C260.406 52.3787 260.298 51.4476 260.083 50.8376C259.899 50.2275 259.514 49.7941 258.93 49.5372C258.346 49.2483 257.439 49.0717 256.21 49.0075V48.0443C257.316 48.1406 258.884 48.1888 260.913 48.1888C262.758 48.1888 264.188 48.1406 265.202 48.0443V49.0075Z" fill="white"/>
<path d="M282.489 47.37C284.21 47.37 285.594 47.6269 286.639 48.1406C287.715 48.6543 288.853 49.4409 290.052 50.5005C290.451 50.8215 290.759 50.9821 290.974 50.9821C291.558 50.9821 291.942 50.0028 292.127 48.0443H293.187C293.064 49.8744 293.003 53.0851 293.003 57.6763H291.942C291.696 56.4563 291.389 55.3807 291.02 54.4496C290.682 53.5185 290.221 52.6998 289.636 51.9934C288.622 50.7734 287.561 49.8423 286.455 49.2001C285.348 48.558 283.995 48.2369 282.396 48.2369C280.552 48.2369 278.953 48.8309 277.6 50.0189C276.248 51.1747 275.202 52.8443 274.464 55.0275C273.727 57.2108 273.358 59.7793 273.358 62.7332C273.358 67.6455 274.218 71.2576 275.94 73.5693C277.662 75.8809 280.229 77.0368 283.641 77.0368C284.963 77.0368 286.147 76.9084 287.192 76.6515C287.746 76.5231 288.115 76.3144 288.299 76.0254C288.514 75.7365 288.622 75.3351 288.622 74.8214V70.6796C288.622 69.3311 288.499 68.3519 288.253 67.7419C288.007 67.1318 287.577 66.7144 286.962 66.4897C286.347 66.2649 285.348 66.1205 283.964 66.0562V65.093C285.624 65.1894 287.792 65.2375 290.467 65.2375C292.557 65.2375 294.156 65.1894 295.263 65.093V66.0562C294.555 66.1205 294.048 66.2489 293.741 66.4415C293.433 66.6342 293.218 67.0034 293.095 67.5492C292.972 68.095 292.911 68.978 292.911 70.198V77.3258H291.988C291.927 76.5552 291.696 76.1699 291.297 76.1699C291.112 76.1699 290.774 76.2823 290.282 76.507C289.79 76.7318 289.452 76.8763 289.268 76.9405C287.3 77.6468 285.286 78 283.226 78C278.615 78 275.049 76.7157 272.528 74.1472C270.007 71.5465 268.746 67.9184 268.746 63.2629C268.746 60.0523 269.33 57.259 270.499 54.883C271.667 52.475 273.281 50.6289 275.341 49.3446C277.431 48.0282 279.814 47.37 282.489 47.37Z" fill="white"/>
</svg>
